<?xml version="1.0" standalone="no"?>
<!DOCTYPE svg PUBLIC "-//W3C//DTD SVG 1.1//EN" "http://www.w3.org/Graphics/SVG/1.1/DTD/svg11.dtd" >
<svg xmlns="http://www.w3.org/2000/svg">
<metadata>
This is a custom SVG webfont generated by Font Squirrel.
Copyright   : Typeface  FontSite Inc 19962008 All Rights Reserved wwwfontsitecom
Designer    : FontSitecom
Foundry URL : httpwwwfontsitecom
</metadata>
<defs>
<font id="webfontWQ48hIB4" horiz-adv-x="1024" >
<font-face units-per-em="2048" ascent="1479" descent="-569" />
<missing-glyph horiz-adv-x="512" />
<glyph unicode=" "  horiz-adv-x="512" />
<glyph unicode="&#x09;" horiz-adv-x="512" />
<glyph unicode="&#xa0;" horiz-adv-x="512" />
<glyph unicode="!" horiz-adv-x="710" d="M135 121q0 70 47 120t113 50q59 0 96 -38t37 -101q0 -74 -45 -124.5t-111 -50.5q-59 0 -98 40.5t-39 103.5zM297 383l82 901q8 78 25.5 96.5t80.5 18.5h109q51 0 73.5 -15.5t22.5 -50.5q0 -27 -14 -69l-303 -881h-76z" />
<glyph unicode="&#x22;" horiz-adv-x="702" d="M248 1270q0 119 112 119q49 0 81 -31t32 -80q0 -43 -20 -141l-60 -297h-65l-64 297q-16 78 -16 133zM555 1270q0 119 113 119q49 0 80.5 -31t31.5 -80q0 -43 -20 -141l-60 -297h-65l-64 297q-16 78 -16 133z" />
<glyph unicode="#" d="M51 449l33 112h192l76 270h-192l30 113h193l119 422h119l-119 -422h272l119 422h121l-119 -422h182l-30 -113h-185l-74 -270h183l-33 -112h-182l-127 -449h-119l125 449h-273l-124 -449h-119l125 449h-193zM395 561h273l75 270h-272z" />
<glyph unicode="$" d="M70 215q0 57 29.5 90t80.5 33q49 0 81 -35t32 -88q0 -20 -2 -35v-33q0 -82 92 -102l102 516l-47 49q-102 102 -145 188.5t-43 192.5q0 100 45 187.5t127 138.5q80 53 225 59l31 158h76l-31 -160q123 -12 198.5 -81.5t75.5 -172.5q0 -59 -31.5 -98t-78.5 -39q-45 0 -74 32 t-29 81q0 27 9 65q2 6 2 17q0 82 -88 118l-99 -493q156 -147 217.5 -248.5t61.5 -210.5q0 -164 -126 -271.5t-319 -107.5l-36 -188h-74l37 192q-141 20 -220 85t-79 161zM442 1085q0 -109 105 -219l86 441q-78 -8 -134.5 -74t-56.5 -148zM459 43q92 14 146 72.5t54 144.5 q0 57 -24.5 108.5t-85.5 127.5z" />
<glyph unicode="%" horiz-adv-x="1275" d="M152 915q0 154 77 291q102 176 234 176q82 0 130 -70.5t48 -185.5q0 -172 -97.5 -315t-211.5 -143q-80 0 -130 69t-50 178zM240 0l786 1366h109l-787 -1366h-108zM295 811q0 -90 45 -90q47 0 92 156q66 240 66 370q0 82 -43 82q-51 0 -86 -121q-25 -88 -49.5 -220 t-24.5 -177zM729 231q0 176 97.5 321.5t213.5 145.5q82 0 130.5 -70.5t48.5 -185.5q0 -170 -97.5 -313t-212.5 -143q-80 0 -130 68t-50 177zM872 129q0 -90 46 -90q49 0 94 156q66 240 65 368q0 82 -45 82q-51 0 -86 -121q-25 -84 -49.5 -216t-24.5 -179z" />
<glyph unicode="&#x26;" horiz-adv-x="1601" d="M80 397q0 150 110.5 255.5t301.5 138.5q-106 25 -154 65q-78 68 -78 178q0 152 166 260.5t397 108.5q215 0 320 -90q76 -66 76 -135q0 -47 -36 -84t-83 -37q-106 0 -131 149q-18 102 -150 103q-119 0 -193.5 -90.5t-74.5 -233.5q0 -145 119 -145q8 0 37 4l22 2 q25 0 42 -17.5t17 -44t-19 -45t-48 -18.5q-4 0 -41 4q-41 4 -59 4q-106 0 -168 -74.5t-62 -208.5q0 -166 105.5 -261t289.5 -95q188 0 336 97.5t148 222.5q0 90 -62.5 146t-163.5 56q-53 0 -87.5 -17t-34.5 -44q0 -18 24 -31q72 -27 72 -78q0 -31 -24.5 -53t-59.5 -22 q-51 0 -89 41t-38 94q0 109 105.5 184.5t261.5 75.5q68 0 169 -19q20 -2 39 -6t33 -6q10 -2 25 -2q20 0 34.5 11.5t14.5 25.5t-14 27q-45 39 -45 77q0 41 25.5 68t66.5 27q47 0 77.5 -33t30.5 -82q0 -100 -89 -175t-232 -93q55 -78 55 -154q0 -86 -51 -173t-142 -153 q-186 -137 -481 -137q-344 0 -504 176q-106 113 -106 256z" />
<glyph unicode="'" horiz-adv-x="395" d="M248 1270q0 119 112 119q49 0 81 -31t32 -80q0 -43 -20 -141l-60 -297h-65l-64 297q-16 78 -16 133z" />
<glyph unicode="(" horiz-adv-x="786" d="M190 342q0 692 672 1135l58 -56q-229 -190 -342 -460q-78 -190 -125 -430t-47 -449q0 -303 120 -553l-67 -35q-121 174 -195 408.5t-74 439.5z" />
<glyph unicode=")" horiz-adv-x="786" d="M-115 -449q231 197 342 461q78 190 125 429t47 450q0 293 -123 553l68 33q121 -176 195.5 -408.5t74.5 -439.5q0 -684 -671 -1135z" />
<glyph unicode="*" d="M147 1130l41 78l338 -100l142 317l80 -16l6 -348l352 -39l8 -86l-330 -111l70 -344l-78 -30l-213 280l-299 -176l-63 57l205 289z" />
<glyph unicode="+" d="M119 596v123h377v348h122v-348h375v-123h-375v-348h-122v348h-377z" />
<glyph unicode="," horiz-adv-x="710" d="M-6 -301q98 23 159.5 82t61.5 133q0 66 -45 129q-47 68 -47 117q0 57 41 95t100 38q72 0 119 -59.5t47 -149.5q0 -147 -120 -280.5t-283 -168.5z" />
<glyph unicode="-" horiz-adv-x="966" d="M76 354l47 232h801l-47 -232h-801z" />
<glyph unicode="." horiz-adv-x="710" d="M145 121q0 70 47.5 120t112.5 50q59 0 96 -38t37 -101q0 -74 -45 -124.5t-110 -50.5q-59 0 -98.5 40.5t-39.5 103.5z" />
<glyph unicode="/" horiz-adv-x="759" d="M-201 -528l903 2017h191l-901 -2017h-193z" />
<glyph unicode="0" d="M94 453q0 137 44 305t112 291q94 168 207.5 258t234.5 90q150 0 239 -136.5t89 -363.5q0 -223 -86 -440t-224.5 -352.5t-281.5 -135.5q-147 0 -240.5 135.5t-93.5 348.5zM342 238q0 -188 96 -189q57 0 104.5 78t96.5 252q55 195 95 423t40 343q0 78 -25.5 125t-68.5 47 q-111 0 -186 -260q-51 -182 -101.5 -451.5t-50.5 -367.5z" />
<glyph unicode="1" d="M154 0l14 74q104 0 148 49t75 199l156 765q-137 -92 -340 -184l20 98q379 176 525 396h120l-225 -1102q-14 -70 -14 -102q0 -119 133 -119h20l-16 -74h-616z" />
<glyph unicode="2" d="M10 0v76q209 190 414 446q281 344 281 570q0 162 -150 161q-80 0 -149.5 -61.5t-104.5 -161.5h-74q20 96 60 162q57 94 154.5 149.5t207.5 55.5q143 0 240.5 -89t97.5 -221q0 -180 -229 -405q-137 -137 -471 -436h342q72 0 102.5 22.5t44.5 87.5h78l-74 -356h-770z" />
<glyph unicode="3" d="M41 74q0 59 28.5 101t69.5 42q47 0 127 -65q74 -61 119 -62q84 0 148.5 140.5t64.5 320.5q0 84 -31.5 133t-89.5 49q-33 0 -106 -39l-23 -12l21 98l14 13q41 35 127 100q182 145 182 256q0 47 -31.5 80t-78.5 33q-74 0 -209 -117l-54 51q57 66 103 104q113 96 270 97 q113 0 184.5 -57.5t71.5 -147.5q0 -125 -149 -221q-47 -29 -185 -94q104 2 166 -46q96 -78 97 -217q0 -203 -170 -395q-223 -250 -500 -250q-166 1 -166 105z" />
<glyph unicode="4" d="M70 350l39 209l731 838h98l-172 -854h225l-41 -193h-225l-76 -381h-250l78 381h-407zM195 543h321l100 489z" />
<glyph unicode="5" d="M31 84q0 55 26.5 93t65.5 38q55 0 158 -80q55 -45 102 -45q80 0 156 137q80 150 79 275q0 82 -39.5 130t-109.5 48q-59 0 -133 -57l-47 47l186 667q47 12 152 13h59q27 0 56.5 -1t33.5 -1q104 0 137 12t48 55h75l-59 -299q-109 -10 -193 -10q-41 0 -112 2q-14 2 -62 2 q-72 0 -121 -8l-57 -213q68 23 129 22q127 0 206 -83t79 -218q0 -258 -230 -469q-190 -172 -426 -172q-84 0 -121.5 27t-37.5 88z" />
<glyph unicode="6" d="M98 365q0 354 284 655t687 377l-14 -78q-211 -88 -344 -224.5t-222 -355.5q92 47 168 47q119 0 192 -81.5t73 -212.5q0 -201 -156 -362t-352 -161q-147 0 -231.5 106t-84.5 290zM344 197q0 -147 82 -148q47 0 88 68q45 74 94 231.5t49 229.5q0 45 -24.5 72.5t-63.5 27.5 q-45 0 -129 -55q-96 -236 -96 -426z" />
<glyph unicode="7" d="M174 932l109 434h778l2 -74l-582 -1323h-202l589 1157h-411q-102 0 -141.5 -35.5t-65.5 -158.5h-76z" />
<glyph unicode="8" d="M82 264q0 152 125 266q49 47 203 152l-72 96q-78 113 -78 232q0 141 98 252q123 135 338 135q143 0 231.5 -73t88.5 -191q0 -227 -334 -363q211 -219 211 -383q0 -119 -74 -225q-131 -193 -389 -193q-156 0 -252 82t-96 213zM301 260q0 -100 40 -156.5t112 -56.5 q84 0 141 68.5t57 169.5q0 84 -43 158.5t-149 179.5l-6 -7q-66 -66 -109 -162t-43 -194zM463 1102q0 -76 47 -141q12 -18 100 -117l21 -23l10 10q154 141 154 314q0 80 -39 126t-107 46q-78 0 -132 -62.5t-54 -152.5z" />
<glyph unicode="9" d="M41 -31l16 78q174 49 321.5 199.5t244.5 378.5q-92 -47 -166 -47q-115 0 -187.5 83.5t-72.5 215.5q0 199 157.5 359.5t352.5 160.5q147 0 230 -105.5t83 -296.5q0 -211 -112.5 -416.5t-315.5 -365.5q-268 -209 -551 -244zM457 774q0 -39 23.5 -65.5t58.5 -26.5 q27 0 70.5 19.5t68.5 41.5q55 152 74 246q25 131 24 195q0 55 -24.5 93t-61.5 38q-72 0 -141 -174q-37 -88 -64.5 -200t-27.5 -167z" />
<glyph unicode=":" horiz-adv-x="710" d="M145 121q0 70 47.5 120t112.5 50q59 0 96 -38t37 -101q0 -74 -45 -124.5t-110 -50.5q-59 0 -98.5 40.5t-39.5 103.5zM276 760q0 70 47.5 120t112.5 50q59 0 96 -38t37 -101q0 -74 -45 -124.5t-112 -50.5q-59 0 -97.5 40.5t-38.5 103.5z" />
<glyph unicode=";" horiz-adv-x="710" d="M27 -301q98 23 159.5 82t61.5 133q0 66 -45 129q-47 68 -47 117q0 57 41 95t100 38q72 0 119 -59.5t47 -149.5q0 -147 -120 -280.5t-284 -168.5zM274 758q0 70 47.5 120t112.5 50q59 0 96 -38t37 -102q0 -74 -45 -124t-112 -50q-59 0 -97.5 40.5t-38.5 103.5z" />
<glyph unicode="&#x3c;" d="M131 729v16l860 541v-115l-547 -348l547 -370v-308z" />
<glyph unicode="=" d="M119 459v123h874v-123h-874zM119 733v123h874v-123h-874z" />
<glyph unicode="&#x3e;" d="M131 145v115l547 350l-547 369v307l860 -584v-16z" />
<glyph unicode="?" horiz-adv-x="942" d="M152 113q0 70 47 120t112 50q59 0 96 -38t37 -102q0 -74 -45 -124t-110 -50q-59 0 -98 40.5t-39 103.5zM260 1225q0 78 71.5 127t188.5 49q170 0 262 -94.5t92 -268.5q0 -262 -196 -399q-47 -31 -133 -66q-141 -51 -156 -172h-72q8 256 72 356.5t264 180.5 q121 49 121 123q0 47 -41 77.5t-106 30.5q-41 0 -101 -20q-104 -35 -157 -35q-47 0 -78 32t-31 79z" />
<glyph unicode="@" horiz-adv-x="1501" d="M135 467q0 297 207 508t500 211q266 0 448.5 -174t182.5 -424q0 -297 -273 -436q-123 -63 -252 -64q-66 0 -92.5 24.5t-26.5 82.5q0 53 15 112q-129 -131 -182.5 -174t-83.5 -43q-23 0 -51.5 20.5t-45.5 51.5q-25 39 -24 100q0 190 151 361q195 219 447 219h16 q23 -2 41 -2h27l-115 -561q-10 -45 -10 -62q0 -39 43 -39q49 0 113.5 39t111.5 96q100 119 100 269q0 217 -157.5 368.5t-382.5 151.5q-256 0 -436.5 -185.5t-180.5 -447.5q0 -266 182.5 -450.5t444.5 -184.5q217 0 405 141h111q-82 -88 -162 -131q-170 -94 -360 -94 q-295 0 -503 210t-208 507zM621 369q0 -53 19 -86t50 -33q27 0 50.5 18.5t107.5 100.5l10 8l72 356q-8 2 -21 2q-119 0 -203.5 -108t-84.5 -258z" />
<glyph unicode="A" horiz-adv-x="1585" d="M-145 0l18 86h8q94 0 180 78q45 41 134 158l815 1077h211l14 -1147q2 -102 35 -134t137 -32h23l-17 -86h-690l18 86h56q168 0 168 156l-4 295h-488l-205 -273q-33 -43 -32 -82q0 -45 34.5 -70.5t96.5 -25.5h28l-18 -86h-522zM571 664h387l-6 499z" />
<glyph unicode="B" horiz-adv-x="1441" d="M8 0l19 86h6q111 0 160 76q25 39 47 149l157 779q8 45 9 73q0 115 -152 115h-43l18 88h693q94 0 157 -10q137 -23 220 -99.5t83 -183.5q0 -117 -90 -199.5t-258 -119.5q145 -41 223 -128t78 -206q0 -96 -57 -187.5t-154 -150.5q-133 -82 -340 -82h-776zM500 207 q0 -61 39 -89t125 -28q219 0 307 133q74 111 73 240q0 115 -86 185.5t-225 70.5h-133l-88 -424q-12 -61 -12 -88zM618 813h123q188 0 263 57q47 35 75.5 93.5t28.5 117.5q0 51 -29.5 97.5t-74.5 66.5q-66 29 -191 29h-102z" />
<glyph unicode="C" horiz-adv-x="1581" d="M143 582q0 145 61.5 294.5t166.5 253.5q125 125 316.5 196t410.5 71q264 0 471 -86l-84 -348h-88v26q0 135 -99.5 224.5t-248.5 89.5q-133 0 -256 -67t-201 -181q-141 -209 -141 -523q0 -217 101 -339.5t277 -122.5q145 0 273.5 72.5t222.5 207.5h88l-110 -350h-50 q-31 29 -75 29q-37 0 -170 -31q-125 -29 -230 -29q-268 0 -451.5 177.5t-183.5 435.5z" />
<glyph unicode="D" horiz-adv-x="1761" d="M-8 0l18 86h23q111 0 160 76q25 37 47 151l157 777q8 45 9 75q0 113 -152 113h-45l18 88h738q268 0 450 -88q135 -66 211 -200t76 -308q0 -219 -111.5 -397t-310.5 -277q-113 -57 -229.5 -76.5t-333.5 -19.5h-725zM502 211q0 -68 41 -94.5t145 -26.5q174 0 281 39 q262 96 362 350q61 156 62 309q0 129 -49.5 233.5t-139.5 166.5q-125 86 -364 86h-129l-199 -977q-10 -53 -10 -86z" />
<glyph unicode="E" horiz-adv-x="1449" d="M8 0l19 86h8q94 0 145 57q33 39 60 166l157 781q10 57 11 73q0 115 -154 115h-39l16 88h1215l-66 -330h-104q4 45 4 47q0 111 -84 158q-61 33 -209 33h-274l-111 -541h291q119 0 164 29t78 125h88l-90 -443h-89q14 49 15 80q0 117 -166 117h-309l-76 -371q-8 -39 -8 -63 q0 -59 49 -92q35 -23 115 -23h90q174 0 325 92q82 51 172 154h99l-121 -338h-1221z" />
<glyph unicode="F" horiz-adv-x="1331" d="M-14 0l18 86h21q104 0 155 57q33 41 60 166l157 781q10 47 11 75q0 113 -154 113h-47l18 88h1188l-67 -332h-84q4 23 4 49q0 190 -244 191h-309l-109 -533h318q100 0 151 33t72 111h88l-88 -428h-88q12 37 12 71q0 121 -149 121h-334l-76 -375q-10 -57 -10 -71 q0 -117 139 -117h74l-17 -86h-710z" />
<glyph unicode="G" horiz-adv-x="1765" d="M152 596q0 125 49 256t135 233q262 311 758 312q219 0 534 -82l8 -338h-96q-63 141 -137 207q-141 121 -332 121q-139 0 -270 -73t-205 -192q-133 -213 -133 -487q0 -209 117 -348q117 -141 352 -142q135 0 218 61.5t95 172.5l6 53q2 8 2 27q0 86 -129 100l19 82h583 l-16 -82q-86 -6 -126 -45t-60 -133l-17 -76q-6 -29 -6 -45q0 -25 15.5 -41t37.5 -16q14 0 39 10l-16 -76q-117 -33 -312.5 -59.5t-318.5 -26.5q-346 0 -555 152q-113 82 -176 208t-63 267z" />
<glyph unicode="H" horiz-adv-x="1757" d="M-16 0l18 86h33q111 0 160 76q23 39 45 151l157 774q10 55 11 74q0 117 -154 117h-37l19 88h710l-16 -88h-27q-104 0 -160 -45q-47 -39 -65 -129l-70 -340h672l68 323q8 39 8 76q0 115 -152 115h-30l18 88h684l-16 -88h-9q-102 0 -157 -45q-49 -37 -68 -129l-168 -830 q-10 -57 -10 -71q0 -117 139 -117h55l-18 -86h-711l19 86h41q104 0 155 57q33 41 60 166l67 328h-671l-68 -320q-16 -82 -16 -114q0 -117 139 -117h47l-18 -86h-684z" />
<glyph unicode="I" horiz-adv-x="808" d="M-20 0l18 86h25q109 0 155 57q37 45 62 166l157 778q8 45 9 76q0 115 -152 115h-41l18 88h693l-17 -88h-10q-100 0 -149.5 -40t-69.5 -134l-170 -830q-10 -53 -10 -71q0 -55 36.5 -86t102.5 -31h72l-17 -86h-712z" />
<glyph unicode="J" horiz-adv-x="778" d="M-385 -420q0 45 80 141q43 51 88 52q33 0 61.5 -18.5t89.5 -73.5q57 -51 103 -52q61 0 94 105q20 70 53 274q6 41 17 92l166 987q6 37 6 66q0 125 -156 125h-37l19 88h704l-18 -88h-19q-104 0 -159 -45q-45 -37 -62 -129l-158 -942q-43 -252 -127 -387 q-168 -281 -524 -281q-94 0 -157.5 24.5t-63.5 61.5z" />
<glyph unicode="K" horiz-adv-x="1619" d="M0 0l18 86h15q111 0 162 76q20 33 45 151l157 774q10 55 11 76q0 115 -154 115h-45l18 88h721l-18 -88h-27q-104 0 -160 -45q-47 -39 -65 -129l-76 -377l588 383q84 53 84 96q0 68 -105 72l19 88h584l-19 -88q-125 -20 -206 -55t-271 -162l-375 -248l387 -534 q78 -109 140.5 -149t160.5 -44l-18 -86h-414l-483 664l-99 -64l-65 -326q-10 -51 -10 -71q0 -117 139 -117h51l-16 -86h-674z" />
<glyph unicode="L" horiz-adv-x="1331" d="M-8 0l18 86h23q113 0 160 78q25 35 47 149l157 774q8 41 9 76q0 115 -152 115h-41l16 88h725l-16 -88h-35q-104 0 -160 -45q-45 -35 -65 -129l-162 -797q-16 -86 -16 -106q0 -106 157 -107h125q98 0 163 18.5t138 65.5q96 59 160 139h88l-100 -317h-1239z" />
<glyph unicode="M" horiz-adv-x="1961" d="M-29 0l19 86q96 16 144 73.5t87 207.5l199 739q10 37 10 59q0 109 -190 115l18 86h520l166 -1008l658 1008h477l-17 -86q-117 -6 -165 -46t-70 -144l-160 -789q-16 -78 -16 -102q0 -113 184 -113h18l-18 -86h-684l18 86q102 2 149.5 48t72.5 169l170 834l-738 -1137h-94 l-190 1176l-230 -830q-14 -57 -14 -94q0 -78 47 -122t131 -44l-16 -86h-486z" />
<glyph unicode="N" horiz-adv-x="1697" d="M23 0l16 86h5q69 0 120 58q53 60 76 167l174 863l-27 38q-55 66 -160 68l19 86h362l735 -1016l142 692q8 39 8 80q0 76 -44 114t-138 44l18 86h479l-18 -86q-170 -27 -217 -256l-209 -1036h-94l-783 1087l-149 -739q-10 -55 -10 -80q0 -72 52 -119t138 -51l-18 -86h-477z " />
<glyph unicode="O" horiz-adv-x="1810" d="M162 637q0 289 203 502q246 258 651 258q444 0 639 -324q90 -150 90 -342q0 -324 -241.5 -543t-596.5 -219q-393 0 -602 258q-143 172 -143 410zM465 530q0 -215 111.5 -339.5t304.5 -124.5q299 0 454 307q113 225 113 473q0 203 -114.5 330t-299.5 127 q-137 0 -250.5 -71t-187.5 -200q-131 -232 -131 -502z" />
<glyph unicode="P" horiz-adv-x="1402" d="M-10 0l18 86h17q104 0 155 57q33 41 60 166l159 781q8 39 9 73q0 115 -154 115h-45l18 88h682q238 0 370 -102.5t132 -284.5q0 -211 -156.5 -353.5t-386.5 -142.5q-104 0 -168 23l17 82q25 -6 49 -6q162 0 248 123q88 123 88 311q0 158 -92 219q-57 39 -187 39h-110 l-203 -1000q-10 -55 -10 -71q0 -117 139 -117h66l-19 -86h-696z" />
<glyph unicode="Q" horiz-adv-x="1816" d="M160 631q0 289 205 510q242 258 651 258q326 0 528.5 -187.5t202.5 -488.5q0 -131 -57 -272q-43 -104 -147.5 -217t-205.5 -162q-86 -41 -200 -78q47 -47 153 -119q152 -100 256 -100q82 0 150 55l53 -76q-164 -141 -354 -141q-205 0 -570 235q-139 90 -219 168 q-207 76 -326.5 240t-119.5 375zM463 532q0 -217 111.5 -341.5t304.5 -124.5q301 0 456 307q113 229 113 473q0 205 -115.5 332t-298.5 127q-137 0 -251.5 -71t-188.5 -200q-131 -232 -131 -502z" />
<glyph unicode="R" horiz-adv-x="1513" d="M0 0l18 86h15q111 0 160 76q25 39 47 151l157 777q8 49 9 73q0 115 -152 115h-14l16 88h510q164 0 254 -15.5t162 -56.5q174 -100 174 -276q0 -125 -95.5 -228.5t-259.5 -160.5q94 -313 207 -438t260 -125h19l-47 -84q-17 0 -33 -1q-263 0 -410 124q-156 132 -258 475 q-59 -6 -86 -7q-6 0 -82 7l-63 -306q-10 -51 -10 -71q0 -55 36.5 -86t102.5 -31h68l-19 -86h-686zM590 672q20 -2 47 -2q180 0 292.5 99t112.5 257q0 121 -59 180q-35 37 -86 51.5t-147 14.5h-39z" />
<glyph unicode="S" horiz-adv-x="1144" d="M43 86l88 348h86q4 -176 89 -272t235 -96q115 0 194.5 60t79.5 146q0 59 -51 119q-37 43 -207 195q-162 145 -219 229t-57 180q0 162 122.5 282t290.5 120q47 0 127 -21q119 -31 160 -30q63 0 96 38h68l-60 -395h-88q-16 137 -99 225.5t-196 88.5q-88 0 -151.5 -53.5 t-63.5 -129.5q0 -53 43 -106t189 -178q190 -164 256.5 -260.5t66.5 -204.5q0 -168 -149.5 -285t-362.5 -117q-274 0 -487 117z" />
<glyph unicode="T" horiz-adv-x="1462" d="M152 1055l79 391h64q10 -55 33.5 -67.5t117.5 -12.5h959q76 0 107.5 16.5t50.5 63.5h75l-79 -391h-89q-8 100 -57 157q-29 37 -65.5 49.5t-114.5 12.5h-186l-203 -1000q-10 -51 -10 -71q0 -117 139 -117h57l-18 -86h-717l18 86h45q104 0 156 57q35 43 59 166l197 965 h-166q-94 0 -150.5 -17.5t-109.5 -64.5q-59 -51 -104 -137h-88z" />
<glyph unicode="U" horiz-adv-x="1644" d="M193 1278l18 88h672l-17 -88h-8q-100 0 -149.5 -40t-69.5 -134l-127 -619q-18 -104 -18 -151q0 -111 100 -182.5t254 -71.5q217 0 348 135q119 119 164 385l65 395q14 96 15 111q0 139 -205 172l16 88h508l-18 -88q-96 -12 -146.5 -75.5t-72.5 -198.5l-66 -381 q-35 -197 -89 -316t-150 -201q-88 -74 -184.5 -105.5t-231.5 -31.5q-291 0 -449 137q-127 111 -127 277q0 49 25 170l108 534q8 45 9 74q0 117 -152 117h-22z" />
<glyph unicode="V" horiz-adv-x="1515" d="M258 1280l18 86h613l-17 -86q-106 -2 -149 -37t-47 -119l-31 -845l698 813q57 66 58 108q0 35 -34 57.5t-89 22.5h-10l18 86h457l-17 -86q-78 -14 -119.5 -46t-156.5 -163l-948 -1102h-137l38 1159q0 146 -145 152z" />
<glyph unicode="W" horiz-adv-x="2361" d="M285 1280l18 86h635l-18 -86h-12q-98 0 -141 -34q-46 -36 -50 -122l-49 -811l635 789q4 29 4 51q0 53 -38 88t-102 39l17 86h604l-19 -86l-45 -4q-78 -8 -108.5 -44t-36.5 -126l-51 -795l594 742q59 74 59 125q0 90 -139 102l18 86h510l-16 -86q-84 -8 -151.5 -61.5 t-204.5 -221.5l-832 -1028h-135l59 965l-776 -965h-139l71 1129q2 16 3 30q0 76 -36 109t-128 43z" />
<glyph unicode="X" horiz-adv-x="1671" d="M-14 0l16 86h8q82 0 158 44t207 167l397 371l-258 426q-68 111 -121 147.5t-155 36.5l18 88h698l-18 -88h-27q-57 0 -90 -21.5t-33 -58.5q0 -25 31 -76l160 -264l293 277q39 39 39 73q0 33 -34 54q-31 19 -71 18h-8l-25 -2l19 88h555l-19 -88h-26q-68 0 -167 -57.5 t-206 -157.5l-303 -285l274 -456q98 -164 134 -195q49 -41 116 -41h23l-19 -86h-616l18 86q106 4 107 86q0 35 -35 90l-203 324l-323 -297q-63 -57 -64 -113q0 -90 139 -90l-18 -86h-571z" />
<glyph unicode="Y" horiz-adv-x="1464" d="M174 1280l19 86h563l-17 -86q-109 -4 -108 -57q0 -18 22 -66l224 -483l378 428q47 53 48 82q0 80 -136 96l19 86h440l-18 -86l-72 -35q-43 -20 -195 -188l-438 -494l-57 -289q-10 -55 -10 -71q0 -117 139 -117h86l-19 -86h-731l17 86h32q100 0 144.5 46t70.5 177l52 254 l-271 584q-33 78 -69.5 104.5t-112.5 28.5z" />
<glyph unicode="Z" horiz-adv-x="1464" d="M0 0v94l1135 1180h-324q-100 0 -170 -25.5t-139 -87.5q-72 -63 -123 -166h-86l78 371h1155v-80l-1151 -1192h401q109 0 163 11.5t114 44.5q160 90 258 253h92l-113 -403h-1290z" />
<glyph unicode="[" horiz-adv-x="786" d="M76 -492l399 1960h500l-19 -84h-59q-76 0 -104.5 -6t-59.5 -30q-51 -41 -69 -131l-285 -1401q-18 -92 -19 -121q0 -57 37 -81t127 -24h68l-17 -82h-499z" />
<glyph unicode="\" horiz-adv-x="759" d="M78 1489h190l258 -2017h-190z" />
<glyph unicode="]" horiz-adv-x="786" d="M-170 -492l16 84h60q78 0 105.5 6.5t60.5 30.5q53 43 69 131l285 1399q18 90 18 121q0 57 -36.5 80.5t-126.5 23.5h-68l16 84h500l-399 -1960h-500z" />
<glyph unicode="^" d="M-10 573l583 861h17l543 -861h-117l-348 547l-371 -547h-307z" />
<glyph unicode="_" d="M0 -186h1024v-136h-1024v136z" />
<glyph unicode="`" d="M332 1411h258l147 -362h-162z" />
<glyph unicode="a" horiz-adv-x="1003" d="M53 193q0 236 191 452q174 199 374 250q115 27 187 27q2 0 7 -1t20.5 -2t44.5 -1h32l-143 -705q-10 -45 -10 -63q0 -20 18 -21q14 0 62.5 41t89.5 88v-72q-76 -86 -167 -146t-147 -60q-90 0 -90 129q0 51 17 139q-152 -156 -223.5 -214.5t-110.5 -58.5q-29 0 -65 26 t-56 65q-31 49 -31 127zM258 328q0 -66 24.5 -108t63.5 -42q41 0 115 68q20 16 74 69l22 23l92 446q-12 2 -28 2q-72 0 -142.5 -37.5t-116.5 -101.5q-104 -141 -104 -319z" />
<glyph unicode="b" horiz-adv-x="958" d="M92 199q0 27 19 116l188 922q4 20 4 37q0 31 -29 31q-16 0 -57 -19l-24 47l296 117q49 18 58 18q23 0 22 -30q0 -25 -6 -54l-151 -741l80 84q190 195 253 195q55 0 97.5 -94.5t42.5 -217.5q0 -250 -168 -441.5t-387 -191.5q-102 0 -170 63t-68 159zM313 131q0 -96 76 -96 q86 0 165 177t79 372q0 121 -39 121q-12 0 -27.5 -8.5t-36 -27l-51.5 -48.5l-76 -76l-14 -15l-59 -294q-17 -85 -17 -105z" />
<glyph unicode="c" horiz-adv-x="753" d="M63 233q0 102 43.5 225.5t114.5 225.5q166 236 389 236q63 0 101.5 -32t38.5 -85q0 -51 -31 -83t-82 -32q-63 0 -117 60q-37 39 -65 38q-68 0 -109 -141q-41 -137 -41 -309q0 -227 144 -227q47 0 101 32.5t93 85.5l41 -32q-59 -96 -161.5 -157t-209.5 -61 q-117 0 -183.5 68.5t-66.5 187.5z" />
<glyph unicode="d" horiz-adv-x="966" d="M68 244q0 201 137 397q82 121 180 200t166 79q63 0 119 -56l73 365l5 31q2 14 -7.5 24t-25.5 10q-20 0 -53 -14l-19 -6l-22 47l337 139q20 8 31 8q27 0 27 -32q0 -20 -8 -60l-238 -1163l-6 -45q0 -23 14 -23q33 0 109 101l39 -33q-39 -63 -119 -133q-113 -102 -189 -103 q-96 0 -96 125q0 63 27 177q-211 -299 -322 -299q-35 0 -70.5 25.5t-54.5 62.5q-34 67 -34 176zM309 301q0 -123 53 -123q29 0 90.5 63.5t120.5 157.5l50 240q-39 174 -121 174q-86 0 -142 -197q-51 -176 -51 -315z" />
<glyph unicode="e" horiz-adv-x="835" d="M70 266q0 221 168 439q76 100 179 157.5t206 57.5q82 0 130 -44.5t48 -117.5q0 -147 -195 -244q-125 -63 -278 -96q-14 -68 -15 -123q0 -86 47.5 -136t126.5 -50q92 0 244 106l29 -41q-96 -82 -227.5 -140.5t-217.5 -58.5q-111 0 -178 80t-67 211zM338 471l16 6l8 2 q115 29 176.5 102.5t61.5 174.5q0 41 -18.5 67.5t-49.5 26.5q-108 0 -194 -379z" />
<glyph unicode="f" horiz-adv-x="561" d="M-453 -371q0 43 39 77t86 34q78 0 131 -88q49 -80 103 -80q72 0 114 100q18 41 29.5 94.5t52.5 296.5l123 734h-164l9 51h7q31 0 82 14q56 16 83 35q33 203 123 342q156 240 405 240q96 0 151.5 -34t55.5 -93q0 -47 -35 -80t-84 -33q-72 0 -162 98q-51 53 -82 54 q-33 0 -52 -52.5t-48 -222.5l-39 -219h162l-23 -100h-155l-115 -691q-41 -233 -149 -382q-168 -229 -416 -230q-102 0 -167 38t-65 97z" />
<glyph unicode="g" horiz-adv-x="960" d="M-176 -352q0 88 139 172q117 74 246 119q-23 27 -23 61q0 47 39 86t109 57q-98 29 -160.5 114t-62.5 189q0 178 166.5 326t367.5 148q135 0 295 -25v-129l-127 18q55 -98 55 -190q0 -96 -56 -187.5t-157 -156.5q-70 -45 -192 -90q-96 -35 -96 -62q0 -18 34.5 -45.5 t128.5 -87.5q160 -100 207 -141q59 -53 60 -119q0 -96 -145.5 -156.5t-379.5 -60.5q-199 0 -323.5 45t-124.5 115zM51 -297q0 -76 68.5 -117t195.5 -41q113 0 192 22.5t79 55.5q0 25 -22.5 41.5t-180.5 108.5q-90 53 -147 121q-185 -72 -185 -191zM348 420q0 -90 31 -145.5 t82 -55.5q53 0 90 70q33 61 56.5 172.5t23.5 210.5q0 82 -28 130t-75 48q-33 0 -66.5 -40t-55.5 -103q-58 -156 -58 -287z" />
<glyph unicode="h" horiz-adv-x="1095" d="M68 29q0 12 8 55l233 1147q6 27 6 35q0 33 -28 32q-8 0 -43 -10l-33 -14l-23 49l344 135q20 8 29 8q25 0 25 -22q0 -6 -8 -49l-177 -858l25 28q16 18 42 53l36 50q195 254 354 254q51 0 83 -38t32 -100q0 -41 -23 -135l-92 -395q-23 -94 -22 -104q0 -25 18 -25 q33 0 147 147l43 -28q-33 -55 -108 -133q-129 -135 -236 -136q-45 0 -77.5 36t-32.5 87q0 37 31 164l90 379q8 41 8 57.5t-12.5 29.5t-26.5 13q-45 0 -137 -108q-4 -4 -23 -28l-59 -77l-82 -104l-76 -379q-6 -33 -19.5 -45t-43.5 -12h-117q-55 0 -55 41z" />
<glyph unicode="i" horiz-adv-x="616" d="M70 655q199 264 331 265q41 0 68 -35t27 -90q0 -53 -23 -148l-106 -448q-10 -41 -11 -56q0 -33 27 -32q23 0 67 32.5t87 83.5l38 -37q-72 -88 -169 -150.5t-164 -62.5q-51 0 -85 37t-34 95q0 55 51 268l68 287q8 33 8 53q0 23 -23 22q-31 0 -116 -118zM369 1208 q0 82 46 139.5t109 57.5q51 0 83 -34t32 -89q0 -82 -46 -139.5t-112 -57.5q-51 0 -81.5 34t-30.5 89z" />
<glyph unicode="j" horiz-adv-x="616" d="M-360 -371q0 49 34.5 82t85.5 33q47 0 79 -22.5t65 -77.5q29 -45 57 -45q39 0 68.5 84t70.5 307l140 690q4 18 6 33q2 6 2 10q0 16 -12 16q-31 0 -123 -127l-39 37q195 270 336 271q39 0 62.5 -29t23.5 -76q0 -27 -15 -100l-123 -602q-49 -240 -137 -381 q-80 -127 -169 -182.5t-210 -55.5q-96 0 -149 36t-53 99zM342 1208q0 82 46 139.5t110 57.5q51 0 82.5 -34t31.5 -89q0 -80 -47 -138.5t-110 -58.5q-51 0 -82 34t-31 89z" />
<glyph unicode="k" horiz-adv-x="1081" d="M68 23q0 4 10 59l231 1139q6 31 6 39q0 41 -30 40q-10 0 -54 -14l-24 -8l-19 47l334 133q27 10 37 10t17.5 -11t7.5 -25.5t-15 -83.5l-157 -775q158 164 184 189q166 158 262 158q66 0 114 -58.5t48 -136.5q0 -109 -98.5 -182.5t-276.5 -100.5l19 -24l55 -72l35 -51 q61 -90 135 -125l112 111l33 -35l-254 -271q-150 27 -266 244l-61 109l-70 100l-78 -373q-10 -45 -22.5 -56t-51.5 -11h-106q-57 0 -57 35zM391 475q33 -6 53 -6q152 0 232 47q45 25 72.5 67t27.5 83q0 33 -20.5 56t-48.5 23q-47 0 -134 -79q-121 -119 -182 -191z" />
<glyph unicode="l" horiz-adv-x="534" d="M90 100q0 49 14 121l203 991q6 37 6 45q0 37 -37 37q-25 0 -49 -12l-20 -10l-23 49l344 139q20 8 31 8q25 0 25 -32q0 -20 -9 -60l-239 -1175q-8 -41 -8 -47q0 -16 9 -28.5t21 -12.5q45 0 144 108l33 -37q-76 -90 -171.5 -148.5t-164.5 -58.5q-109 0 -109 123z" />
<glyph unicode="m" horiz-adv-x="1654" d="M63 631q209 289 347 289q86 0 86 -103q0 -25 -7 -57l-45 -215q68 98 172 213q152 162 281 162q47 0 79 -36t32 -91q0 -18 -19 -115l-26 -133q262 377 454 377q51 0 80 -36t29 -98q0 -35 -13 -96l-83 -413q-20 -102 -21 -119q0 -27 18 -27q37 0 142 146l43 -31 q-74 -119 -173.5 -196t-178.5 -77q-45 0 -70 32t-25 89q0 35 17 117l82 408q8 41 8 67q0 53 -45 53q-53 0 -144 -123l-145 -194l-76 -377q-8 -43 -17 -51t-46 -8h-115q-55 0 -55 45q0 25 6 49l104 518q14 66 15 94q0 49 -39 49q-41 0 -108.5 -73.5t-186.5 -245.5l-76 -373 q-8 -41 -20.5 -52t-49.5 -11h-112q-53 0 -53 39q0 6 8 55l116 577q6 16 7 43q0 18 -17 19q-12 0 -33.5 -21.5t-85.5 -101.5z" />
<glyph unicode="n" horiz-adv-x="1120" d="M55 623q76 121 179.5 209t168.5 88q84 0 84 -119q0 -51 -12 -111l-31 -153q272 383 451 383q49 0 79 -34t30 -91q0 -41 -17 -109l-113 -469q-16 -70 -16 -74q0 -18 16 -18q14 0 61.5 46t86.5 99l43 -32q-68 -104 -172.5 -183.5t-173.5 -79.5q-41 0 -71 36t-30 87 q0 37 19 113l102 438q8 35 9 45q0 41 -35 41q-41 0 -125 -102l-166 -209l-72 -352q-10 -53 -23.5 -68.5t-52.5 -15.5h-116q-51 0 -52 32l13 62l119 588q8 41 8 47q0 18 -15 18q-37 0 -133 -141z" />
<glyph unicode="o" horiz-adv-x="978" d="M74 299q0 231 185 426t409 195q106 0 170.5 -88.5t64.5 -235.5q0 -240 -184 -428q-84 -84 -196.5 -137.5t-207.5 -53.5q-109 0 -175 88.5t-66 233.5zM328 350q0 -121 33.5 -200.5t84.5 -79.5q76 0 140.5 153.5t64.5 329.5q0 111 -34.5 192.5t-84.5 83.5q-2 0 -3 1 q-70 0 -135 -151q-66 -155 -66 -329z" />
<glyph unicode="p" horiz-adv-x="1052" d="M-195 -500l11 51h16q113 0 162 60q37 43 63 178l172 842q6 55 7 63q0 45 -31 45q-49 0 -162 -157l-45 32q227 305 381 306q96 0 96 -150q0 -74 -29 -217q262 367 363 367q61 0 112.5 -102.5t51.5 -227.5q0 -162 -73 -302.5t-206 -234.5q-113 -78 -245 -78q-43 0 -115 25 l-51 -254q-10 -45 -11 -84q0 -74 80 -100q27 -8 107 -11l-13 -51h-641zM369 166q20 -63 45.5 -90t68.5 -27q98 0 176 180q66 156 66 306q0 166 -70 165q-55 0 -235 -280z" />
<glyph unicode="q" horiz-adv-x="966" d="M55 205q0 104 54.5 233t140.5 228q145 170 325 215q150 39 287 39h51l-235 -1151q-16 -84 -16 -103q0 -63 41.5 -86.5t156.5 -28.5l-10 -51h-651l10 51l18 3q102 0 146.5 46t72.5 181l91 440q-256 -244 -351 -244q-53 0 -92 69t-39 159zM256 340q0 -74 26.5 -120 t67.5 -46q66 0 205 143l98 478q-117 -8 -176 -35t-112 -96q-109 -140 -109 -324z" />
<glyph unicode="r" horiz-adv-x="731" d="M57 631l52 65q178 225 270 226q47 0 47 -84q0 -119 -55 -365l-11 -55l-8 -31l-10 -47q-4 -25 -4 -31q0 -20 12 -20t20.5 21.5t43.5 152.5q66 240 134 349.5t152 109.5q37 0 58.5 -27t21.5 -72q0 -76 -33.5 -133t-80.5 -57q-10 0 -17 2l-24 4q-88 0 -154 -182 q-72 -195 -119 -426q-8 -33 -20.5 -43.5t-46.5 -10.5h-99q-39 0 -52 8.5t-13 32.5q0 14 8 62l98 567l11 64q0 20 -13 20q-14 0 -31.5 -18.5t-97.5 -114.5z" />
<glyph unicode="s" horiz-adv-x="755" d="M10 123q0 47 36 83t83 36q59 0 125 -66q94 -96 168 -96q27 0 46 19.5t19 45.5q0 51 -110 162q-125 127 -150 166q-51 78 -51 154q0 117 106.5 205t247.5 88q78 0 126.5 -41t48.5 -105q0 -53 -32 -87t-81 -34q-47 0 -72.5 22.5t-46.5 80.5q-23 66 -74 65q-25 0 -41 -18.5 t-16 -44.5q0 -70 135 -211q90 -94 118 -141.5t28 -112.5q0 -141 -110 -228.5t-290 -87.5q-96 0 -154.5 40t-58.5 106z" />
<glyph unicode="t" horiz-adv-x="632" d="M88 111q0 16 21 125l112 559h-106l10 55q203 59 395 340h60q-57 -125 -103 -287h176l-22 -108h-174l-117 -572q-12 -66 -12 -71q0 -16 13 -31t30 -15q47 0 172 130l37 -39q-88 -98 -189.5 -159t-183.5 -61q-53 0 -86 37.5t-33 96.5z" />
<glyph unicode="u" horiz-adv-x="1101" d="M72 653q102 141 180 204t151 63q39 0 66 -30t27 -77q0 -20 -17 -104l-76 -375q-12 -66 -12 -84q0 -35 23 -35q18 0 75.5 62.5t116.5 148.5q66 92 96.5 178t57.5 242q8 43 18 52t49 9h111q31 0 42 -9t11 -34q0 -12 -4 -41l-119 -579q-10 -53 -10 -58q0 -18 14 -18 q10 0 54.5 39t87.5 88l37 -35q-88 -109 -203 -196t-170 -87q-31 0 -52.5 27t-21.5 64q0 10 14 92l56 280q-80 -125 -228 -288q-158 -174 -243 -175q-78 0 -78 105q0 41 18 127l93 457q10 53 10 59q0 27 -17 27q-23 0 -116 -129z" />
<glyph unicode="v" horiz-adv-x="946" d="M68 657q188 262 317 263q45 0 72.5 -27t27.5 -72q0 -25 -8 -80l-80 -471q-16 -90 -16 -110q0 -33 27 -33q33 0 131 113q78 90 133 205.5t55 185.5q0 29 -9 41t-38 22q-49 16 -49 64q0 63 52 112.5t117.5 49.5t102.5 -44.5t37 -119.5q0 -225 -336 -539 q-258 -240 -366 -240q-96 0 -97 123q0 49 17 140l75 452q4 20 5 41q0 18 -13 19q-27 0 -116 -125z" />
<glyph unicode="w" horiz-adv-x="1472" d="M66 639q31 47 100 137q117 143 219 144q98 0 98 -115q0 -23 -10 -86l-78 -463l-6 -55q0 -29 25 -29q33 0 127 108.5t159 223.5l54 313q10 63 20 76.5t49 13.5h107q35 0 51 -9t14 -30q0 -10 -6 -47l-90 -530q-18 -113 -18 -121q0 -43 34 -43q86 0 218.5 187.5t132.5 308.5 q0 53 -41 71q-35 18 -47.5 30.5t-12.5 33.5q0 59 55.5 111.5t118.5 52.5q59 0 99.5 -46.5t40.5 -113.5q0 -227 -367 -565q-238 -219 -356 -220q-53 0 -82 40t-29 110q0 47 27 207l8 47q-51 -86 -180 -231q-158 -174 -267 -175q-96 0 -96 107q0 23 17 127l86 518q0 20 -17 21 q-20 0 -114 -140z" />
<glyph unicode="x" horiz-adv-x="1097" d="M37 86q0 104 63 213h45q20 -80 88 -80q113 0 222 166l-9 16q-23 45 -60.5 137.5t-51.5 123.5q-35 84 -72 83q-41 0 -88 -92l-45 19q66 131 123 189.5t123 58.5q90 0 153 -125q6 -12 82 -201q209 326 326 326q41 0 73.5 -42t32.5 -100q0 -66 -30 -131h-51q-27 57 -91 58 q-127 0 -233 -166q51 -139 123 -289q31 -66 65 -66q45 0 95 115l49 -27q-66 -158 -123.5 -225t-126.5 -67q-57 0 -95 39.5t-79 144.5q-43 113 -68 164l-69 -99q-178 -252 -287 -252q-39 0 -61.5 29t-22.5 80z" />
<glyph unicode="y" horiz-adv-x="1007" d="M-86 -500l10 51h31q76 0 116 33t91 135q76 154 105.5 266.5t29.5 245.5q0 225 -32 372t-79 147q-45 0 -108 -99l-45 29q63 109 144 174.5t155 65.5q76 0 125 -134q61 -180 61 -499q0 -102 -10 -248q98 195 159.5 365.5t61.5 246.5q0 35 -33 72q-18 23 -18 61 q0 55 45 95.5t104 40.5q55 0 92 -36t37 -91q0 -53 -30.5 -118t-145.5 -253q-135 -221 -187 -321.5t-165 -358.5q-51 -115 -51 -137q0 -53 76 -54h34l-10 -51h-563z" />
<glyph unicode="z" horiz-adv-x="1034" d="M16 41q0 162 189 281q90 57 291 157l161 80q223 111 271 211q-221 -117 -375 -117q-92 0 -174 52q-66 41 -107 40q-51 0 -110 -59l-41 35q156 199 311 199q78 0 174 -58q129 -74 203 -74q82 0 94 62q10 41 20.5 55.5t34.5 14.5q53 0 54 -62q0 -119 -142.5 -238.5 t-457.5 -265.5q-162 -76 -215.5 -109.5t-81.5 -82.5q227 88 358 88q80 0 195 -49q90 -37 123 -37q29 0 62.5 22.5t51.5 55.5l43 -31q-27 -59 -80 -111q-117 -123 -250 -123q-94 0 -225 80q-123 74 -196 74q-70 0 -70 -59v-2q2 -6 2 -29v-4q0 -27 -15.5 -43.5t-41.5 -16.5 q-56 1 -56 64z" />
<glyph unicode="{" horiz-adv-x="786" d="M121 496l12 63q94 -4 152 53q27 27 37 48.5t23 80t34 166.5l39 193q31 152 75 225.5t130 112.5q45 20 100 25t195 5h40l-16 -75q-150 -10 -207 -69.5t-92 -227.5l-61 -299q-25 -121 -78 -179.5t-164 -87.5l-2 -8q141 -33 141 -176q0 -57 -16 -135l-68 -326 q-14 -63 -14 -127q0 -109 68 -149q39 -25 126 -25l-16 -76q-127 0 -205 11q-96 10 -149 67.5t-53 149.5q0 59 18 147l47 228q43 205 43 256q0 63 -29.5 91t-109.5 38z" />
<glyph unicode="|" d="M471 -342v1708h178v-1708h-178z" />
<glyph unicode="}" horiz-adv-x="786" d="M-154 -492l15 76q125 -4 197.5 68t105.5 233l65 326q29 145 87.5 217t164.5 94l2 8q-147 39 -147 162q0 49 12 105l62 299q25 125 24 147q0 86 -67 121q-35 18 -138 29l17 75l123 -2q147 -2 200 -28q43 -20 69 -67.5t21 -102.5q-2 -66 -24 -168l-39 -193l-31 -135 q-14 -66 -14 -98q0 -115 149 -115l-14 -63q-121 -14 -163 -79t-89 -306l-45 -228q-29 -139 -77 -214t-140 -120q-49 -25 -108.5 -31t-217.5 -10z" />
<glyph unicode="~" horiz-adv-x="1366" d="M322 1266q123 221 274 221q49 0 170 -43q104 -39 162 -39q96 0 172 98l41 -26q-53 -102 -126 -161t-149 -59q-43 0 -164 41q-121 43 -176 43q-41 0 -69.5 -17t-75.5 -64l-19 -19z" />
<glyph unicode="&#xa1;" horiz-adv-x="710" d="M37 -362q0 20 16 69l303 881h74l-82 -899q-8 -78 -25.5 -97.5t-78.5 -19.5h-111q-51 0 -73.5 15.5t-22.5 50.5zM299 819q0 74 45 124t111 50q59 0 98 -40t39 -103q0 -70 -47 -120t-113 -50q-59 0 -96 39t-37 100z" />
<glyph unicode="&#xa2;" d="M182 231q0 127 62.5 275.5t158.5 255.5q133 145 310 158l114 387h64l-117 -392q94 -23 94 -112q0 -51 -30.5 -83t-81.5 -32q-23 0 -47 8l-174 -583q14 -4 34 -4q47 0 100.5 33.5t92.5 84.5l41 -32q-45 -78 -133 -139.5t-174 -73.5l-125 -424h-64l125 417 q-115 0 -182.5 68.5t-67.5 187.5zM424 338q0 -139 57 -197l176 590l-14 12l-10 11l-6 8q-16 25 -54 24q-68 0 -108 -141q-41 -133 -41 -307z" />
<glyph unicode="&#xa3;" d="M-80 49q0 82 77 149.5t200 94.5q35 98 82 258h-236l12 78h244q82 332 137 440q72 139 215.5 235.5t280.5 96.5q90 0 149.5 -44t59.5 -110q0 -49 -29 -79.5t-74 -30.5q-47 0 -80.5 28.5t-68.5 98.5q-25 53 -62 53q-41 0 -74.5 -62.5t-82.5 -224.5q-53 -180 -162 -401h295 l-10 -78h-324l-14 -29q-41 -76 -47 -98q-25 -47 -76 -125q76 -4 143.5 -32.5t186.5 -112.5q113 -78 149 -78q18 0 31.5 15t13.5 36q0 25 -55 115q-25 37 -25 73q0 47 34 78t85 31q57 0 91 -40t34 -110q0 -127 -91 -217t-220 -90q-80 0 -150 24.5t-168 88.5l-115 74 q-4 4 -32 18q-84 -115 -137.5 -159t-108.5 -44q-78 0 -78 80z" />
<glyph unicode="&#xa4;" d="M98 279l138 135q-96 115 -96.5 266t96.5 266l-138 137l60 60l137 -135q117 94 266 94q156 0 266 -94l138 135l59 -60l-137 -137q96 -113 96 -264q0 -154 -96 -268l137 -135l-59 -62l-138 137q-115 -94 -266 -94q-156 0 -266 94l-137 -137zM307 680q0 -102 74 -177 t176 -75q109 0 183.5 72.5t74.5 177.5q0 106 -73.5 181t-180.5 75q-104 0 -179 -74t-75 -180z" />
<glyph unicode="&#xa5;" d="M78 721l16 78h260l-32 162h-195l16 77h162l-8 43q-37 201 -182 211l16 74h510l-16 -74q-78 -14 -78 -65q0 -16 10 -70l23 -119h270l37 64q39 66 39 94q0 70 -105 96l17 74h391l-15 -74q-90 -55 -144 -105t-97 -130l-10 -19h174l-17 -77h-207l-98 -162h272l-16 -78h-303 l-96 -158l-62 -303q-10 -45 -10 -72q0 -117 139 -116h58l-15 -72h-669l14 72h18q94 0 142 57q39 45 61 166l53 268l-30 158h-293zM596 961l53 -271l156 271h-209z" />
<glyph unicode="&#xa6;" d="M471 313h178v-655h-178v655zM471 651v715h178v-715h-178z" />
<glyph unicode="&#xa7;" d="M-119 -381q0 45 30 75t77 34q47 2 121 -47q88 -57 151 -58q88 0 139.5 66.5t51.5 181.5q0 88 -22.5 160.5t-109.5 265.5q-111 248 -110 418q0 244 201 483q231 281 516 281q104 0 169.5 -38t65.5 -98q0 -43 -32.5 -75.5t-77.5 -32.5q-72 0 -172 90q-37 33 -82 33 q-76 0 -125 -74t-49 -188q0 -94 45 -222q14 -41 129 -296q78 -170 77 -297q0 -281 -245 -533q-250 -258 -510 -258q-238 0 -238 129zM352 739q0 -102 35 -194q16 -45 78 -199q80 -201 96.5 -263.5t16.5 -164.5q0 -37 -7 -68q90 109 125 189t35 182q0 84 -25.5 163 t-119.5 288q-96 215 -97 372q0 29 7 82q-144 -190 -144 -387z" />
<glyph unicode="&#xa8;" d="M328 1231q0 51 37.5 89t91.5 38q51 0 89 -38t38 -89q0 -53 -37 -91t-90.5 -38t-91 38t-37.5 91zM758 1231q0 51 38 89t91 38q51 0 89 -38t38 -89q0 -53 -37 -91t-90 -38t-91 38t-38 91z" />
<glyph unicode="&#xa9;" horiz-adv-x="1634" d="M143 682q0 297 212 508t511 211q301 0 511 -211t210 -512q0 -297 -214 -505t-519 -208q-291 0 -501 212t-210 505zM248 682q0 -254 180 -438.5t428 -184.5q262 0 444.5 180.5t182.5 438.5q0 262 -180.5 445.5t-436.5 183.5t-437 -182.5t-181 -442.5zM463 680 q0 152 128 256t312 104q84 0 182 -34q25 -10 35 -10.5t19 12.5h39l10 -203h-58q-53 168 -219 168q-119 0 -192.5 -78t-73.5 -203q0 -127 80 -214t199 -87q160 0 231 156h57q-12 -104 -67 -211q-37 10 -70 10q-29 0 -96 -12q-47 -8 -100 -8q-174 0 -295 102t-121 252z" />
<glyph unicode="&#xaa;" horiz-adv-x="655" d="M84 635l18 90h564l-19 -90h-563zM180 956q0 143 117 273q150 166 350 166h12q10 -2 21 -2l12 -2q14 0 27 2l-88 -424q-4 -16 -4 -35q0 -8 6 -8q23 0 96 86l2 -60q-49 -55 -106.5 -92t-94.5 -37q-61 0 -61 86q0 16 6 62q-152 -150 -194 -150q-39 0 -70 41t-31 94z M319 1038q0 -37 13.5 -60.5t36.5 -23.5q27 0 120 90l52 256h-9q-88 0 -150.5 -76.5t-62.5 -185.5z" />
<glyph unicode="&#xab;" horiz-adv-x="942" d="M59 489l406 400h72l-232 -400l31 -397h-64zM516 492l340 376h72l-172 -376l-13 -373h-63z" />
<glyph unicode="&#xac;" d="M113 420v125h895v-545h-293v420h-602z" />
<glyph unicode="&#xad;" horiz-adv-x="966" d="M76 354l47 232h801l-47 -232h-801z" />
<glyph unicode="&#xae;" horiz-adv-x="1634" d="M143 682q0 297 212 508t511 211q301 0 511 -211t210 -512q0 -297 -214 -505t-519 -208q-291 0 -501 212t-210 505zM248 682q0 -254 180 -438.5t428 -184.5q262 0 444.5 180.5t182.5 438.5q0 262 -180.5 445.5t-436.5 183.5t-437 -182.5t-181 -442.5zM446 342v55h25 q57 0 74.5 16.5t17.5 69.5v400q0 53 -17.5 69.5t-74.5 16.5h-22v55q215 18 339 18q213 0 297 -59q76 -57 76 -143q0 -61 -43 -110.5t-117 -70.5q31 -29 117 -137q59 -76 102.5 -104.5t104.5 -32.5v-53q-49 -2 -72 -2q-121 0 -180 26q-39 16 -66.5 44t-103.5 124 q-49 68 -90 103h-80v-144q0 -53 17.5 -69.5t74.5 -16.5h31v-55h-410zM733 682q117 2 156 18q90 33 90 134q0 152 -205 151q-25 0 -41 -4v-299z" />
<glyph unicode="&#xaf;" d="M309 1149l35 168h692l-35 -168h-692z" />
<glyph unicode="&#xb0;" horiz-adv-x="622" d="M229 1169q0 94 66.5 160t163.5 66q94 0 160.5 -66.5t66.5 -161.5q0 -92 -66.5 -159.5t-160.5 -67.5t-162 66.5t-68 162.5zM322 1169.5q0 -55.5 39.5 -95.5t97.5 -40q55 0 95 40t40 93q0 57 -40 97.5t-97 40.5q-55 0 -95 -40t-40 -95.5z" />
<glyph unicode="&#xb1;" d="M61 23v122h875v-122h-875zM61 596v123h377v348h123v-348h375v-123h-375v-348h-123v348h-377z" />
<glyph unicode="&#xb2;" horiz-adv-x="684" d="M104 803v53q133 119 254 264q168 201 168 332q0 90 -86 90q-49 0 -89 -36t-62 -95h-58q16 70 39 105q33 57 95.5 90.5t132.5 33.5q90 0 152.5 -55t62.5 -135q0 -111 -142 -242q-109 -109 -272 -247h195q41 0 57 13t24 52h62l-47 -223h-486z" />
<glyph unicode="&#xb3;" horiz-adv-x="684" d="M123 852q0 39 19.5 65.5t47.5 26.5q31 0 82 -39q47 -35 70 -35q45 0 83 80t38 178q0 106 -70 107q-23 0 -86 -35l15 74l12 8l78 59q106 80 106 146q0 27 -18.5 44t-44.5 17q-41 0 -127 -71l-41 36q63 72 115.5 99.5t124 27.5t117.5 -35.5t46 -91.5q0 -72 -72 -122 q-31 -18 -110 -58q141 -25 141 -164t-133 -262t-285 -123q-108 0 -108 68z" />
<glyph unicode="&#xb4;" d="M547 1053l145 358h256l-239 -358h-162z" />
<glyph unicode="&#xb5;" horiz-adv-x="1101" d="M-102 -315.5q0 36.5 47 159.5q129 328 198 672l84 406h238l-119 -574q-18 -84 -18 -149q0 -51 27.5 -82t72.5 -31q92 0 215 125l145 711h236l-135 -660q-14 -63 -15 -104q0 -61 66 -62q18 0 59 13l-8 -37l-256 -95l-10 -2q-35 -2 -55.5 26t-24.5 83q0 2 -1 9t-2 16.5 t-1 17.5q-115 -96 -173 -127t-134 -31q-84 0 -126 40t-61 134q-23 -104 -22 -161q0 -8 4 -51.5t6 -112.5l2 -60q2 -68 -37 -112.5t-100 -44.5q-45 0 -73.5 23.5t-28.5 60z" />
<glyph unicode="&#xb6;" horiz-adv-x="1097" d="M150 -492l18 86q109 6 145.5 48.5t65.5 187.5l147 727q-23 -2 -51 -2q-152 0 -236.5 90t-84.5 252q0 152 72.5 288t193.5 208q115 68 278 67h596l-18 -86q-109 -6 -145.5 -48t-65.5 -187l-266 -1309q-23 -109 -23 -141q0 -47 32 -69.5t107 -25.5l-18 -86h-747zM481 -383 h129l355 1735h-131z" />
<glyph unicode="&#xb7;" horiz-adv-x="710" d="M244 731q0 68 50 117t119.5 49t119 -49t49.5 -119t-49.5 -120t-118.5 -50q-72 0 -121 50t-49 122z" />
<glyph unicode="&#xb8;" d="M166 -506l12 57q96 4 160.5 52.5t64.5 117.5q0 78 -81 95l75 170h62l-23 -45q141 -37 142 -158q0 -70 -45.5 -134.5t-122.5 -103.5q-101 -49 -244 -51z" />
<glyph unicode="&#xb9;" horiz-adv-x="684" d="M193 803l12 57h10q57 0 82 27.5t41 111.5l90 441q-92 -57 -207 -107l15 72q238 109 323 237h84l-133 -659q-8 -43 -8 -57q0 -66 78 -66h18l-12 -57h-393z" />
<glyph unicode="&#xba;" horiz-adv-x="655" d="M84 635l18 90h564l-19 -90h-563zM201 1020q0 139 115.5 256t254.5 117q68 0 110 -55.5t42 -143.5q0 -150 -113 -258q-119 -115 -254 -115q-70 0 -112.5 54.5t-42.5 144.5zM371 1053q0 -70 20.5 -117t48.5 -47q41 0 77 88t36 190q0 59 -20.5 107.5t-47.5 50.5 q-41 2 -77.5 -87t-36.5 -185z" />
<glyph unicode="&#xbb;" horiz-adv-x="942" d="M10 117l170 375l19 374h59l162 -374l-330 -375h-80zM395 94l234 398l-25 395h64l213 -395l-404 -398h-82z" />
<glyph unicode="&#xbc;" horiz-adv-x="1638" d="M193 545l12 57h10q57 0 82 27.5t41 111.5l90 441q-92 -57 -207 -107l15 72q238 109 323 237h84l-133 -659q-8 -43 -8 -57q0 -66 78 -66h18l-12 -57h-393zM436 0l787 1366h133l-787 -1366h-133zM983 207l25 131l448 500h72l-103 -504h140l-27 -127h-139l-45 -225h-166 l45 225h-250zM1081 334h179l51 260z" />
<glyph unicode="&#xbd;" horiz-adv-x="1638" d="M193 545l12 57h10q57 0 82 27.5t41 111.5l90 441q-92 -57 -207 -107l15 72q238 109 323 237h84l-133 -659q-8 -43 -8 -57q0 -66 78 -66h18l-12 -57h-393zM410 0l786 1366h131l-784 -1366h-133zM948 0v53q133 119 254 264q168 201 168 332q0 90 -86 90q-49 0 -89 -35.5 t-62 -95.5h-58q16 70 39 105q33 57 95.5 91t131.5 34q90 0 152.5 -55.5t62.5 -135.5q0 -111 -141 -241l-272 -248h194q41 0 57.5 13t24.5 52h62l-47 -223h-486z" />
<glyph unicode="&#xbe;" horiz-adv-x="1638" d="M123 596q0 39 19.5 65.5t47.5 26.5q31 0 82 -39q47 -35 70 -35q45 0 83 80t38 178q0 106 -70 107q-23 0 -86 -35l15 74l90 67q106 80 106 146q0 27 -18.5 44t-44.5 17q-41 0 -127 -71l-41 36q63 72 115.5 99.5t124 27.5t117.5 -35.5t46 -91.5q0 -72 -72 -122 q-31 -18 -110 -58q141 -25 141 -164t-133 -262t-285 -123q-108 0 -108 68zM430 0l787 1366h131l-785 -1366h-133zM983 207l25 131l448 500h72l-103 -504h140l-27 -127h-139l-45 -225h-166l45 225h-250zM1081 334h179l53 260z" />
<glyph unicode="&#xbf;" horiz-adv-x="942" d="M63 -66q0 264 197 398q45 33 133 67q74 29 111 69t43 101h71q-8 -256 -70.5 -356t-262.5 -180q-121 -49 -121 -123q0 -47 41 -78t106 -31q39 0 101 21q104 37 157 37q47 0 78 -32t31 -79q0 -78 -71.5 -127t-188.5 -49q-170 0 -262.5 94t-92.5 268zM492 819q0 74 45 124 t112 50q59 0 97 -40t38 -103q0 -70 -47 -120t-112 -50q-59 0 -96 39t-37 100z" />
<glyph unicode="&#xc0;" horiz-adv-x="1585" d="M-145 0l18 86h8q94 0 180 78q45 41 134 158l815 1077h211l14 -1147q2 -102 35 -134t137 -32h23l-17 -86h-690l18 86h56q168 0 168 156l-4 295h-488l-205 -273q-33 -43 -32 -82q0 -45 34.5 -70.5t96.5 -25.5h28l-18 -86h-522zM571 664h387l-6 499zM584 1843h383l215 -330 h-181z" />
<glyph unicode="&#xc1;" horiz-adv-x="1585" d="M-145 0l18 86h8q94 0 180 78q45 41 134 158l815 1077h211l14 -1147q2 -102 35 -134t137 -32h23l-17 -86h-690l18 86h56q168 0 168 156l-4 295h-488l-205 -273q-33 -43 -32 -82q0 -45 34.5 -70.5t96.5 -25.5h28l-18 -86h-522zM571 664h387l-6 499zM987 1511l217 332h387 l-422 -332h-182z" />
<glyph unicode="&#xc2;" horiz-adv-x="1585" d="M-145 0l18 86h8q94 0 180 78q45 41 134 158l815 1077h211l14 -1147q2 -102 35 -134t137 -32h23l-17 -86h-690l18 86h56q168 0 168 156l-4 295h-488l-205 -273q-33 -43 -32 -82q0 -45 34.5 -70.5t96.5 -25.5h28l-18 -86h-522zM571 664h387l-6 499zM686 1530l367 325h329 l123 -325h-147l-164 166l-324 -166h-184z" />
<glyph unicode="&#xc3;" horiz-adv-x="1585" d="M-145 0l18 86h8q94 0 180 78q45 41 134 158l815 1077h211l14 -1147q2 -102 35 -134t137 -32h23l-17 -86h-690l18 86h56q168 0 168 156l-4 295h-488l-205 -273q-33 -43 -32 -82q0 -45 34.5 -70.5t96.5 -25.5h28l-18 -86h-522zM571 664h387l-6 499zM639 1511q2 88 20 136 q31 82 103 135t151 53q76 0 230 -55q160 -55 200 -56q80 0 101 105h166q2 -133 -81 -227.5t-204 -94.5q-57 0 -217 57.5t-199 57.5q-41 0 -69.5 -30.5t-34.5 -80.5h-166z" />
<glyph unicode="&#xc4;" horiz-adv-x="1585" d="M-145 0l18 86h8q94 0 180 78q45 41 134 158l815 1077h211l14 -1147q2 -102 35 -134t137 -32h23l-17 -86h-690l18 86h56q168 0 168 156l-4 295h-488l-205 -273q-33 -43 -32 -82q0 -45 34.5 -70.5t96.5 -25.5h28l-18 -86h-522zM571 664h387l-6 499zM678 1649q0 57 41 97 t98 40t97 -40t40 -97.5t-40 -98.5t-97 -41q-59 0 -99 40.5t-40 99.5zM1282 1649q0 57 41 97t96 40q57 0 98.5 -40t41.5 -97.5t-41 -98.5t-97 -41q-57 0 -98 40.5t-41 99.5z" />
<glyph unicode="&#xc5;" horiz-adv-x="1585" d="M-145 0l18 86h8q94 0 180 78q41 35 134 158l776 1028q-117 72 -117 206q0 109 77 187t185.5 78t184 -77t75.5 -185q0 -76 -42 -139.5t-113 -98.5l14 -1069q2 -102 35 -134t137 -32h23l-17 -86h-690l18 86h56q168 0 168 156l-4 295h-488l-205 -273q-33 -43 -32 -82 q0 -45 34.5 -70.5t96.5 -25.5h28l-18 -86h-522zM571 664h387l-6 499zM973 1563q0 -61 42 -103.5t101.5 -42.5t101.5 42t42 101.5t-42 101.5t-101.5 42t-101.5 -42t-42 -99z" />
<glyph unicode="&#xc6;" horiz-adv-x="2099" d="M-143 0l16 86q84 8 165 67.5t179 182.5l672 842q23 29 22 55q0 33 -28 41q-8 4 -66 4h-61l18 88h1325l-67 -330h-105q6 39 6 54q0 100 -90 151q-59 33 -196 33h-287l-109 -539h289q113 0 165 33t79 119h90l-90 -438h-90q16 55 16 79q0 115 -176 115h-301l-76 -369 q-8 -37 -8 -65q0 -115 147 -115h90q291 0 512 242h101l-119 -336h-1221l19 86h8q88 0 141 59q35 37 62 164l43 217h-445l-188 -233q-59 -78 -59 -123q0 -37 29.5 -60.5t76.5 -23.5h33l-17 -86h-505zM561 618h389l135 660z" />
<glyph unicode="&#xc7;" horiz-adv-x="1581" d="M143 582q0 145 61.5 293.5t166.5 254.5q125 127 316.5 197t410.5 70q264 0 471 -86l-84 -348h-88q2 14 2 28q0 98 -68 191q-94 121 -280 121q-133 0 -256 -67t-203 -181q-143 -205 -143 -518q0 -182 73 -299q102 -168 309 -168q233 0 394 163q45 45 100 117h88l-110 -350 h-50q-31 29 -75 29q-37 0 -170 -31q-119 -29 -213 -29l-15 -57q76 -8 120 -51t44 -109q0 -117 -122 -187.5t-322 -70.5q-29 0 -49 2l18 76q117 -2 189.5 29.5t72.5 85.5q0 55 -90 69l64 217q-242 25 -402 198t-160 411z" />
<glyph unicode="&#xc8;" horiz-adv-x="1449" d="M8 0l19 86h8q94 0 145 57q33 39 60 166l157 781q10 57 11 73q0 115 -154 115h-39l16 88h1215l-66 -330h-104q4 45 4 47q0 111 -84 158q-61 33 -209 33h-274l-111 -541h291q119 0 164 29t78 125h88l-90 -443h-89q14 49 15 80q0 117 -166 117h-309l-76 -371q-8 -39 -8 -63 q0 -59 49 -92q35 -23 115 -23h90q174 0 325 92q82 51 172 154h99l-121 -338h-1221zM449 1843h382l216 -330h-181z" />
<glyph unicode="&#xc9;" horiz-adv-x="1449" d="M8 0l19 86h8q94 0 145 57q33 39 60 166l157 781q10 57 11 73q0 115 -154 115h-39l16 88h1215l-66 -330h-104q4 45 4 47q0 111 -84 158q-61 33 -209 33h-274l-111 -541h291q119 0 164 29t78 125h88l-90 -443h-89q14 49 15 80q0 117 -166 117h-309l-76 -371q-8 -39 -8 -63 q0 -59 49 -92q35 -23 115 -23h90q174 0 325 92q82 51 172 154h99l-121 -338h-1221zM813 1511l217 332h387l-422 -332h-182z" />
<glyph unicode="&#xca;" horiz-adv-x="1449" d="M8 0l19 86h8q94 0 145 57q33 39 60 166l157 781q10 57 11 73q0 115 -154 115h-39l16 88h1215l-66 -330h-104q4 45 4 47q0 111 -84 158q-61 33 -209 33h-274l-111 -541h291q119 0 164 29t78 125h88l-90 -443h-89q14 49 15 80q0 117 -166 117h-309l-76 -371q-8 -39 -8 -63 q0 -59 49 -92q35 -23 115 -23h90q174 0 325 92q82 51 172 154h99l-121 -338h-1221zM498 1530l366 325h330l123 -325h-148l-163 166l-324 -166h-184z" />
<glyph unicode="&#xcb;" horiz-adv-x="1449" d="M8 0l19 86h8q94 0 145 57q33 39 60 166l157 781q10 57 11 73q0 115 -154 115h-39l16 88h1215l-66 -330h-104q4 45 4 47q0 111 -84 158q-61 33 -209 33h-274l-111 -541h291q119 0 164 29t78 125h88l-90 -443h-89q14 49 15 80q0 117 -166 117h-309l-76 -371q-8 -39 -8 -63 q0 -59 49 -92q35 -23 115 -23h90q174 0 325 92q82 51 172 154h99l-121 -338h-1221zM489 1649q0 57 41 97t98.5 40t97.5 -40t40 -97.5t-40 -98.5t-97 -41q-59 0 -99.5 40.5t-40.5 99.5zM1094 1649q0 57 41 97t96 40q57 0 98 -40t41 -97.5t-41 -98.5t-96 -41q-57 0 -98 40.5 t-41 99.5z" />
<glyph unicode="&#xcc;" horiz-adv-x="808" d="M-20 0l18 86h25q109 0 155 57q37 45 62 166l157 778q8 45 9 76q0 115 -152 115h-41l18 88h693l-17 -88h-10q-100 0 -149.5 -40t-69.5 -134l-170 -830q-10 -53 -10 -71q0 -55 36.5 -86t102.5 -31h72l-17 -86h-712zM127 1843h383l215 -330h-180z" />
<glyph unicode="&#xcd;" horiz-adv-x="808" d="M-20 0l18 86h25q109 0 155 57q37 45 62 166l157 778q8 45 9 76q0 115 -152 115h-41l18 88h693l-17 -88h-10q-100 0 -149.5 -40t-69.5 -134l-170 -830q-10 -53 -10 -71q0 -55 36.5 -86t102.5 -31h72l-17 -86h-712zM492 1511l217 332h387l-422 -332h-182z" />
<glyph unicode="&#xce;" horiz-adv-x="808" d="M-20 0l18 86h25q109 0 155 57q37 45 62 166l157 778q8 45 9 76q0 115 -152 115h-41l18 88h693l-17 -88h-10q-100 0 -149.5 -40t-69.5 -134l-170 -830q-10 -53 -10 -71q0 -55 36.5 -86t102.5 -31h72l-17 -86h-712zM217 1530l367 325h329l123 -325h-147l-164 166l-324 -166 h-184z" />
<glyph unicode="&#xcf;" horiz-adv-x="808" d="M-20 0l18 86h25q109 0 155 57q37 45 62 166l157 778q8 45 9 76q0 115 -152 115h-41l18 88h693l-17 -88h-10q-100 0 -149.5 -40t-69.5 -134l-170 -830q-10 -53 -10 -71q0 -55 36.5 -86t102.5 -31h72l-17 -86h-712zM264 1649q0 57 41 97t98.5 40t97.5 -40t40 -97.5 t-40 -98.5t-98 -41q-59 0 -99 40.5t-40 99.5zM719 1649q0 57 41 97t96 40q57 0 98 -40t41 -97.5t-41 -98.5t-96 -41q-59 0 -99 40.5t-40 99.5z" />
<glyph unicode="&#xd0;" horiz-adv-x="1761" d="M-8 0l18 86h23q111 0 160 76q25 37 47 149l65 328h-178l18 96h181l71 355q8 45 9 75q0 113 -152 113h-45l18 88h738q268 0 450 -88q137 -63 212 -198.5t75 -311.5q0 -219 -110.5 -395t-311.5 -277q-113 -57 -229.5 -76.5t-333.5 -19.5h-725zM502 211q0 -68 41 -94.5 t145 -26.5q174 0 279 39q266 96 364 348q61 158 62 311q0 127 -49.5 232.5t-139.5 167.5q-125 86 -364 86h-129l-109 -539h369l-21 -96h-366l-72 -342q-10 -47 -10 -86z" />
<glyph unicode="&#xd1;" horiz-adv-x="1697" d="M23 0l16 86q72 -2 125 58.5t76 166.5l174 863l-27 38q-55 66 -160 68l19 86h362l735 -1016l142 692q8 39 8 80q0 76 -44 114t-138 44l18 86h479l-18 -86q-170 -27 -217 -256l-209 -1036h-94l-783 1087l-149 -739q-10 -55 -10 -80q0 -72 52 -119t138 -51l-18 -86h-477z M612 1511q2 88 21 136q31 82 102.5 135t151.5 53q76 0 229 -55q160 -55 201 -56q80 0 100 105h166q2 -133 -81 -227.5t-204 -94.5q-57 0 -216.5 57.5t-198.5 57.5q-41 0 -70 -30.5t-35 -80.5h-166z" />
<glyph unicode="&#xd2;" horiz-adv-x="1810" d="M162 637q0 289 203 502q246 258 651 258q444 0 639 -324q90 -150 90 -342q0 -324 -241.5 -543t-596.5 -219q-393 0 -602 258q-143 172 -143 410zM465 530q0 -215 111.5 -339.5t304.5 -124.5q299 0 454 307q113 225 113 473q0 203 -114.5 330t-299.5 127 q-137 0 -250.5 -71t-187.5 -200q-131 -232 -131 -502zM627 1843h383l215 -330h-181z" />
<glyph unicode="&#xd3;" horiz-adv-x="1810" d="M162 637q0 289 203 502q246 258 651 258q444 0 639 -324q90 -150 90 -342q0 -324 -241.5 -543t-596.5 -219q-393 0 -602 258q-143 172 -143 410zM465 530q0 -215 111.5 -339.5t304.5 -124.5q299 0 454 307q113 225 113 473q0 203 -114.5 330t-299.5 127 q-137 0 -250.5 -71t-187.5 -200q-131 -232 -131 -502zM979 1511l217 332h387l-422 -332h-182z" />
<glyph unicode="&#xd4;" horiz-adv-x="1810" d="M162 637q0 289 203 502q246 258 651 258q444 0 639 -324q90 -150 90 -342q0 -324 -241.5 -543t-596.5 -219q-393 0 -602 258q-143 172 -143 410zM465 530q0 -215 111.5 -339.5t304.5 -124.5q299 0 454 307q113 225 113 473q0 203 -114.5 330t-299.5 127 q-137 0 -250.5 -71t-187.5 -200q-131 -232 -131 -502zM717 1530l366 325h330l123 -325h-147l-164 166l-324 -166h-184z" />
<glyph unicode="&#xd5;" horiz-adv-x="1810" d="M162 637q0 289 203 502q246 258 651 258q444 0 639 -324q90 -150 90 -342q0 -324 -241.5 -543t-596.5 -219q-393 0 -602 258q-143 172 -143 410zM465 530q0 -215 111.5 -339.5t304.5 -124.5q299 0 454 307q113 225 113 473q0 203 -114.5 330t-299.5 127 q-137 0 -250.5 -71t-187.5 -200q-131 -232 -131 -502zM690 1526q4 135 77 216t189 81q43 0 81 -12.5t165 -67.5q70 -31 107 -31q90 0 116 105h140q-4 -127 -79 -211t-188 -84q-47 0 -91 14t-185 80q-47 20 -78 20q-43 0 -74.5 -30.5t-38.5 -79.5h-141z" />
<glyph unicode="&#xd6;" horiz-adv-x="1810" d="M162 637q0 289 203 502q246 258 651 258q444 0 639 -324q90 -150 90 -342q0 -324 -241.5 -543t-596.5 -219q-393 0 -602 258q-143 172 -143 410zM465 530q0 -215 111.5 -339.5t304.5 -124.5q299 0 454 307q113 225 113 473q0 203 -114.5 330t-299.5 127 q-137 0 -250.5 -71t-187.5 -200q-131 -232 -131 -502zM682 1649q0 57 41 97t98.5 40t97 -40t39.5 -97.5t-39.5 -98.5t-97.5 -41q-59 0 -99 40.5t-40 99.5zM1286 1649q0 57 41 97t96 40q57 0 98.5 -40t41.5 -97.5t-41 -98.5t-97 -41q-57 0 -98 40.5t-41 99.5z" />
<glyph unicode="&#xd7;" d="M174 362l295 295l-295 295l86 86l295 -295l295 295l86 -86l-295 -295l295 -295l-86 -86l-295 295l-295 -295z" />
<glyph unicode="&#xd8;" horiz-adv-x="1810" d="M162 629q0 295 203 510q242 258 649 258q240 0 405 -94l137 163l72 -59l-133 -156q250 -197 250 -520q0 -322 -241.5 -542t-596.5 -220q-252 0 -420 101l-137 -162l-69 59l131 154q-250 201 -250 508zM465 520q0 -166 63 -262l793 930q-117 115 -287 115 q-135 0 -251.5 -72t-188.5 -199q-129 -229 -129 -512zM584 182q113 -117 293 -116q305 0 458 307q113 225 113 471q0 160 -70 270z" />
<glyph unicode="&#xd9;" horiz-adv-x="1644" d="M193 1278l18 88h672l-17 -88h-8q-100 0 -149.5 -40t-69.5 -134l-127 -619q-18 -104 -18 -151q0 -111 100 -182.5t254 -71.5q217 0 348 135q119 119 164 385l65 395q14 96 15 111q0 139 -205 172l16 88h508l-18 -88q-96 -12 -146.5 -75.5t-72.5 -198.5l-66 -381 q-35 -197 -89 -316t-150 -201q-88 -74 -184.5 -105.5t-231.5 -31.5q-291 0 -449 137q-127 111 -127 277q0 49 25 170l108 534q8 45 9 74q0 117 -152 117h-22zM588 1843h383l215 -330h-180z" />
<glyph unicode="&#xda;" horiz-adv-x="1644" d="M193 1278l18 88h672l-17 -88h-8q-100 0 -149.5 -40t-69.5 -134l-127 -619q-18 -104 -18 -151q0 -111 100 -182.5t254 -71.5q217 0 348 135q119 119 164 385l65 395q14 96 15 111q0 139 -205 172l16 88h508l-18 -88q-96 -12 -146.5 -75.5t-72.5 -198.5l-66 -381 q-35 -197 -89 -316t-150 -201q-88 -74 -184.5 -105.5t-231.5 -31.5q-291 0 -449 137q-127 111 -127 277q0 49 25 170l108 534q8 45 9 74q0 117 -152 117h-22zM952 1511l217 332h387l-421 -332h-183z" />
<glyph unicode="&#xdb;" horiz-adv-x="1644" d="M193 1278l18 88h672l-17 -88h-8q-100 0 -149.5 -40t-69.5 -134l-127 -619q-18 -104 -18 -151q0 -111 100 -182.5t254 -71.5q217 0 348 135q119 119 164 385l65 395q14 96 15 111q0 139 -205 172l16 88h508l-18 -88q-96 -12 -146.5 -75.5t-72.5 -198.5l-66 -381 q-35 -197 -89 -316t-150 -201q-88 -74 -184.5 -105.5t-231.5 -31.5q-291 0 -449 137q-127 111 -127 277q0 49 25 170l108 534q8 45 9 74q0 117 -152 117h-22zM676 1530l366 325h330l123 -325h-147l-164 166l-324 -166h-184z" />
<glyph unicode="&#xdc;" horiz-adv-x="1644" d="M193 1278l18 88h672l-17 -88h-8q-100 0 -149.5 -40t-69.5 -134l-127 -619q-18 -104 -18 -151q0 -111 100 -182.5t254 -71.5q217 0 348 135q119 119 164 385l65 395q14 96 15 111q0 139 -205 172l16 88h508l-18 -88q-96 -12 -146.5 -75.5t-72.5 -198.5l-66 -381 q-35 -197 -89 -316t-150 -201q-88 -74 -184.5 -105.5t-231.5 -31.5q-291 0 -449 137q-127 111 -127 277q0 49 25 170l108 534q8 45 9 74q0 117 -152 117h-22zM670 1649q0 57 41 97t98 40t97 -40t40 -97.5t-40 -98.5t-97 -41q-59 0 -99 40.5t-40 99.5zM1274 1649q0 57 41 97 t96 40q57 0 98 -40t41 -97.5t-41 -98.5t-96 -41q-57 0 -98 40.5t-41 99.5z" />
<glyph unicode="&#xdd;" horiz-adv-x="1464" d="M174 1280l19 86h563l-17 -86q-109 -4 -108 -57q0 -18 22 -66l224 -483l378 428q47 53 48 82q0 80 -136 96l19 86h440l-18 -86l-72 -35q-43 -20 -195 -188l-438 -494l-57 -289q-10 -55 -10 -71q0 -117 139 -117h86l-19 -86h-731l17 86h32q100 0 144.5 46t70.5 177l52 254 l-271 584q-33 78 -69.5 104.5t-112.5 28.5zM860 1511l217 332h387l-422 -332h-182z" />
<glyph unicode="&#xde;" horiz-adv-x="1400" d="M-10 0l18 86h17q104 0 155 57q33 41 60 166l159 781q8 35 9 73q0 115 -154 115h-45l18 88h688l-18 -88h-16q-88 0 -133.5 -35t-65.5 -119h178q238 0 370 -102t132 -285q0 -211 -155.5 -353t-387.5 -142q-102 0 -170 20l19 84q29 -6 49 -6q160 0 246 123q90 125 90 309 q0 158 -92 219q-57 39 -187 39h-110l-154 -756q-10 -55 -10 -71q0 -117 139 -117h66l-19 -86h-696z" />
<glyph unicode="&#xdf;" horiz-adv-x="1048" d="M-422 -375q0 45 37 78t90 33q76 0 125 -76q57 -86 98 -86q35 0 57.5 40t44 139.5t60.5 330.5l139 825q29 174 97 295q74 131 185.5 202t240.5 71q137 0 222 -75t85 -196q0 -199 -211 -305q-102 -51 -148 -59q254 -59 254 -330q0 -223 -141 -377.5t-346 -154.5 q-23 0 -41 2l8 53q127 25 196.5 152.5t69.5 334.5t-120 297l8 49q106 18 171.5 123t65.5 256q0 76 -33.5 123t-89.5 47q-96 0 -159 -149q-35 -82 -72 -312l-127 -757q-33 -190 -62.5 -288.5t-76.5 -172.5q-158 -244 -404 -244q-94 0 -158.5 38t-64.5 93z" />
<glyph unicode="&#xe0;" horiz-adv-x="1003" d="M53 193q0 236 191 452q174 199 374 250q115 27 187 27q2 0 7 -1t20.5 -2t44.5 -1h32l-143 -705q-10 -45 -10 -63q0 -20 18 -21q14 0 62.5 41t89.5 88v-72q-76 -86 -167 -146t-147 -60q-90 0 -90 129q0 51 17 139q-152 -156 -223.5 -214.5t-110.5 -58.5q-29 0 -65 26 t-56 65q-31 49 -31 127zM258 328q0 -66 24.5 -108t63.5 -42q41 0 115 68q20 16 74 69l22 23l92 446q-12 2 -28 2q-72 0 -142.5 -37.5t-116.5 -101.5q-104 -141 -104 -319zM350 1411h258l148 -362h-162z" />
<glyph unicode="&#xe1;" horiz-adv-x="1003" d="M53 193q0 236 191 452q174 199 374 250q115 27 187 27q2 0 7 -1t20.5 -2t44.5 -1h32l-143 -705q-10 -45 -10 -63q0 -20 18 -21q14 0 62.5 41t89.5 88v-72q-76 -86 -167 -146t-147 -60q-90 0 -90 129q0 51 17 139q-152 -156 -223.5 -214.5t-110.5 -58.5q-29 0 -65 26 t-56 65q-31 49 -31 127zM258 328q0 -66 24.5 -108t63.5 -42q41 0 115 68q20 16 74 69l22 23l92 446q-12 2 -28 2q-72 0 -142.5 -37.5t-116.5 -101.5q-104 -141 -104 -319zM551 1053l145 358h256l-239 -358h-162z" />
<glyph unicode="&#xe2;" horiz-adv-x="1003" d="M53 193q0 236 191 452q174 199 374 250q115 27 187 27q2 0 7 -1t20.5 -2t44.5 -1h32l-143 -705q-10 -45 -10 -63q0 -20 18 -21q14 0 62.5 41t89.5 88v-72q-76 -86 -167 -146t-147 -60q-90 0 -90 129q0 51 17 139q-152 -156 -223.5 -214.5t-110.5 -58.5q-29 0 -65 26 t-56 65q-31 49 -31 127zM258 328q0 -66 24.5 -108t63.5 -42q41 0 115 68q20 16 74 69l22 23l92 446q-12 2 -28 2q-72 0 -142.5 -37.5t-116.5 -101.5q-104 -141 -104 -319zM315 1051l303 360h291l82 -360h-164l-82 170l-272 -170h-158z" />
<glyph unicode="&#xe3;" horiz-adv-x="1003" d="M53 193q0 236 191 452q174 199 374 250q115 27 187 27q2 0 7 -1t20.5 -2t44.5 -1h32l-143 -705q-10 -45 -10 -63q0 -20 18 -21q14 0 62.5 41t89.5 88v-72q-76 -86 -167 -146t-147 -60q-90 0 -90 129q0 51 17 139q-152 -156 -223.5 -214.5t-110.5 -58.5q-29 0 -65 26 t-56 65q-31 49 -31 127zM258 328q0 -66 24.5 -108t63.5 -42q41 0 115 68q20 16 74 69l22 23l92 446q-12 2 -28 2q-72 0 -142.5 -37.5t-116.5 -101.5q-104 -141 -104 -319zM276 1075q2 139 64.5 225t165.5 86q49 0 166 -51q117 -49 153 -49q63 0 86 98h142q-8 -123 -47 -194 q-29 -53 -77 -85t-100 -32q-47 0 -176 55q-109 43 -145 43q-68 0 -86 -96h-146z" />
<glyph unicode="&#xe4;" horiz-adv-x="1003" d="M53 193q0 236 191 452q174 199 374 250q115 27 187 27q2 0 7 -1t20.5 -2t44.5 -1h32l-143 -705q-10 -45 -10 -63q0 -20 18 -21q14 0 62.5 41t89.5 88v-72q-76 -86 -167 -146t-147 -60q-90 0 -90 129q0 51 17 139q-152 -156 -223.5 -214.5t-110.5 -58.5q-29 0 -65 26 t-56 65q-31 49 -31 127zM258 328q0 -66 24.5 -108t63.5 -42q41 0 115 68q20 16 74 69l22 23l92 446q-12 2 -28 2q-72 0 -142.5 -37.5t-116.5 -101.5q-104 -141 -104 -319zM319 1231q0 51 38 89t92 38q51 0 88.5 -38t37.5 -89q0 -53 -36.5 -91t-90 -38t-91.5 38t-38 91z M750 1231q0 51 37.5 89t91.5 38q51 0 89 -38t38 -89q0 -53 -37 -91t-90.5 -38t-91 38t-37.5 91z" />
<glyph unicode="&#xe5;" horiz-adv-x="1003" d="M53 193q0 236 191 452q174 199 374 250q115 27 187 27q2 0 7 -1t20.5 -2t44.5 -1h32l-143 -705q-10 -45 -10 -63q0 -20 18 -21q14 0 62.5 41t89.5 88v-72q-76 -86 -167 -146t-147 -60q-90 0 -90 129q0 51 17 139q-152 -156 -223.5 -214.5t-110.5 -58.5q-29 0 -65 26 t-56 65q-31 49 -31 127zM258 328q0 -66 24.5 -108t63.5 -42q41 0 115 68q20 16 74 69l22 23l92 446q-12 2 -28 2q-72 0 -142.5 -37.5t-116.5 -101.5q-104 -141 -104 -319zM444 1245q0 88 63.5 150.5t154.5 62.5q88 0 151.5 -63.5t63.5 -151.5q0 -90 -63.5 -153.5 t-151.5 -63.5q-90 0 -154 63.5t-64 155.5zM522 1243q0 -59 40 -99t100 -40q57 0 97 41t40 96q0 57 -40 98t-97.5 41t-98.5 -40t-41 -97z" />
<glyph unicode="&#xe6;" horiz-adv-x="1357" d="M55 203q0 209 172 424q233 293 621 293h59l-12 -68q135 68 235 68q199 0 199 -164q0 -176 -244 -264q-133 -51 -251 -76q-10 -49 -11 -99q0 -207 189 -206q94 0 243 110l29 -45q-104 -88 -230 -142t-223 -54q-109 0 -180 71.5t-71 179.5v27l-88 -82 q-121 -115 -179.5 -157t-99.5 -42q-70 0 -114 64t-44 162zM252 322q0 -59 29.5 -104.5t68.5 -45.5q41 0 108.5 50t127.5 124l90 438h-37q-209 0 -317 -200q-70 -127 -70 -262zM844 473q133 25 207.5 100.5t74.5 186.5q0 43 -22.5 70.5t-56.5 27.5q-66 0 -109 -81t-94 -304z " />
<glyph unicode="&#xe7;" horiz-adv-x="753" d="M57 -506l13 57q96 4 160.5 53.5t64.5 119.5q0 76 -82 92l72 161q-109 10 -166.5 77t-57.5 179q0 102 43 225.5t115 225.5q166 236 391 236q63 0 101.5 -32t38.5 -85q0 -51 -31 -83t-82 -32q-61 0 -119 60q-37 39 -63 38q-68 0 -109 -141q-43 -143 -43 -309 q0 -227 143 -227q49 0 102.5 32.5t94.5 85.5l41 -32q-53 -86 -148.5 -147.5t-189.5 -70.5l-18 -36q141 -37 141 -158q0 -70 -46 -134.5t-122 -103.5q-101 -49 -244 -51z" />
<glyph unicode="&#xe8;" horiz-adv-x="835" d="M70 266q0 221 168 439q76 100 179 157.5t206 57.5q82 0 130 -44.5t48 -117.5q0 -147 -195 -244q-125 -63 -278 -96q-14 -68 -15 -123q0 -86 47.5 -136t126.5 -50q92 0 244 106l29 -41q-96 -82 -227.5 -140.5t-217.5 -58.5q-111 0 -178 80t-67 211zM276 1411h259l147 -362 h-162zM338 471l16 6l8 2q115 29 176.5 102.5t61.5 174.5q0 41 -18.5 67.5t-49.5 26.5q-108 0 -194 -379z" />
<glyph unicode="&#xe9;" horiz-adv-x="835" d="M70 266q0 221 168 439q76 100 179 157.5t206 57.5q82 0 130 -44.5t48 -117.5q0 -147 -195 -244q-125 -63 -278 -96q-14 -68 -15 -123q0 -86 47.5 -136t126.5 -50q92 0 244 106l29 -41q-96 -82 -227.5 -140.5t-217.5 -58.5q-111 0 -178 80t-67 211zM338 471l16 6l8 2 q115 29 176.5 102.5t61.5 174.5q0 41 -18.5 67.5t-49.5 26.5q-108 0 -194 -379zM506 1053l145 358h256l-239 -358h-162z" />
<glyph unicode="&#xea;" horiz-adv-x="835" d="M70 266q0 221 168 439q76 100 179 157.5t206 57.5q82 0 130 -44.5t48 -117.5q0 -147 -195 -244q-125 -63 -278 -96q-14 -68 -15 -123q0 -86 47.5 -136t126.5 -50q92 0 244 106l29 -41q-96 -82 -227.5 -140.5t-217.5 -58.5q-111 0 -178 80t-67 211zM258 1051l303 360h291 l82 -360h-164l-82 170l-272 -170h-158zM338 471l16 6l8 2q115 29 176.5 102.5t61.5 174.5q0 41 -18.5 67.5t-49.5 26.5q-108 0 -194 -379z" />
<glyph unicode="&#xeb;" horiz-adv-x="835" d="M70 266q0 221 168 439q76 100 179 157.5t206 57.5q82 0 130 -44.5t48 -117.5q0 -147 -195 -244q-125 -63 -278 -96q-14 -68 -15 -123q0 -86 47.5 -136t126.5 -50q92 0 244 106l29 -41q-96 -82 -227.5 -140.5t-217.5 -58.5q-111 0 -178 80t-67 211zM233 1231q0 51 38 89 t91 38q51 0 89 -38t38 -89q0 -53 -36.5 -91t-90 -38t-91.5 38t-38 91zM338 471l16 6l8 2q115 29 176.5 102.5t61.5 174.5q0 41 -18.5 67.5t-49.5 26.5q-108 0 -194 -379zM664 1231q0 51 37.5 89t91.5 38q51 0 89 -38t38 -89q0 -53 -37 -91t-90.5 -38t-91 38t-37.5 91z" />
<glyph unicode="&#xec;" horiz-adv-x="616" d="M70 655q199 264 331 265q41 0 68 -35t27 -90q0 -53 -23 -148l-106 -448q-10 -41 -11 -56q0 -33 27 -32q23 0 67 32.5t87 83.5l38 -37q-72 -88 -169 -150.5t-164 -62.5q-51 0 -85 37t-34 95q0 55 51 268l68 287q8 33 8 53q0 23 -23 22q-31 0 -116 -118zM86 1411h258 l148 -362h-162z" />
<glyph unicode="&#xed;" horiz-adv-x="616" d="M70 655q199 264 331 265q41 0 68 -35t27 -90q0 -53 -23 -148l-106 -448q-10 -41 -11 -56q0 -33 27 -32q23 0 67 32.5t87 83.5l38 -37q-72 -88 -169 -150.5t-164 -62.5q-51 0 -85 37t-34 95q0 55 51 268l68 287q8 33 8 53q0 23 -23 22q-31 0 -116 -118zM342 1053l145 358 h256l-239 -358h-162z" />
<glyph unicode="&#xee;" horiz-adv-x="616" d="M53 1051l303 360h291l82 -360h-164l-82 170l-272 -170h-158zM70 655q199 264 331 265q41 0 68 -35t27 -90q0 -57 -23 -148l-106 -448q-10 -41 -11 -56q0 -33 27 -32q23 0 67 32.5t87 83.5l38 -37q-72 -88 -169 -150.5t-164 -62.5q-51 0 -85 37t-34 95q0 47 51 268l68 287 q8 29 8 53q0 23 -23 22q-33 0 -116 -118z" />
<glyph unicode="&#xef;" horiz-adv-x="616" d="M70 655q199 264 331 265q41 0 68 -35t27 -90q0 -53 -23 -148l-106 -448q-10 -41 -11 -56q0 -33 27 -32q23 0 67 32.5t87 83.5l38 -37q-72 -88 -169 -150.5t-164 -62.5q-51 0 -85 37t-34 95q0 55 51 268l68 287q8 33 8 53q0 23 -23 22q-31 0 -116 -118zM125 1231 q0 51 38 89t91 38t90 -38t37 -89q0 -53 -37 -91t-90 -38t-91 38t-38 91zM487 1231q0 51 38 89t91 38q51 0 89 -38t38 -89q0 -53 -36.5 -91t-90 -38t-91.5 38t-38 91z" />
<glyph unicode="&#xf0;" horiz-adv-x="978" d="M74 295q0 137 68.5 269t187.5 227q160 123 280 122q25 0 45 -10q0 172 -45 305l-217 -67l-18 63l209 66q-39 74 -99 141l50 57q113 -80 178 -159l217 67l18 -61l-190 -60q168 -233 168 -518q0 -362 -207 -569q-84 -84 -196.5 -137.5t-207.5 -53.5q-109 0 -175 88.5 t-66 229.5zM328 350q0 -121 33.5 -200.5t84.5 -79.5q76 0 140.5 153.5t64.5 329.5q0 111 -34.5 192.5t-84.5 83.5q-72 4 -138 -150.5t-66 -328.5z" />
<glyph unicode="&#xf1;" horiz-adv-x="1120" d="M55 623q76 121 179.5 209t168.5 88q84 0 84 -119q0 -51 -12 -111l-31 -153q272 383 451 383q49 0 79 -34t30 -91q0 -41 -17 -109l-113 -469q-16 -70 -16 -74q0 -18 16 -18q14 0 61.5 46t86.5 99l43 -32q-68 -104 -172.5 -183.5t-173.5 -79.5q-41 0 -71 36t-30 87 q0 37 19 113l102 438q8 35 9 45q0 41 -35 41q-41 0 -125 -102l-166 -209l-72 -352q-10 -53 -23.5 -68.5t-52.5 -15.5h-116q-51 0 -52 32l13 62l119 588q8 41 8 47q0 18 -15 18q-37 0 -133 -141zM319 1075q2 139 64.5 225t165.5 86q49 0 166 -51q117 -49 153 -49q63 0 86 98 h142q-8 -123 -47 -194q-29 -53 -77 -85t-100 -32q-47 0 -176 55q-106 43 -145 43q-68 0 -86 -96h-146z" />
<glyph unicode="&#xf2;" horiz-adv-x="978" d="M74 299q0 231 185 426t409 195q106 0 170.5 -88.5t64.5 -235.5q0 -240 -184 -428q-84 -84 -196.5 -137.5t-207.5 -53.5q-109 0 -175 88.5t-66 233.5zM309 1411h258l148 -362h-162zM328 350q0 -121 33.5 -200.5t84.5 -79.5q76 0 140.5 153.5t64.5 329.5q0 111 -34.5 192.5 t-84.5 83.5q-72 4 -138 -150.5t-66 -328.5z" />
<glyph unicode="&#xf3;" horiz-adv-x="978" d="M74 299q0 231 185 426t409 195q106 0 170.5 -88.5t64.5 -235.5q0 -240 -184 -428q-84 -84 -196.5 -137.5t-207.5 -53.5q-109 0 -175 88.5t-66 233.5zM328 350q0 -121 33.5 -200.5t84.5 -79.5q76 0 140.5 153.5t64.5 329.5q0 111 -34.5 192.5t-84.5 83.5 q-72 4 -138 -150.5t-66 -328.5zM524 1053l146 358h256l-240 -358h-162z" />
<glyph unicode="&#xf4;" horiz-adv-x="978" d="M74 299q0 231 185 426t409 195q106 0 170.5 -88.5t64.5 -235.5q0 -240 -184 -428q-84 -84 -196.5 -137.5t-207.5 -53.5q-109 0 -175 88.5t-66 233.5zM274 1051l304 360h290l82 -360h-164l-81 170l-273 -170h-158zM328 350q0 -121 33.5 -200.5t84.5 -79.5 q76 0 140.5 153.5t64.5 329.5q0 111 -34.5 192.5t-84.5 83.5q-72 4 -138 -150.5t-66 -328.5z" />
<glyph unicode="&#xf5;" horiz-adv-x="978" d="M74 299q0 231 185 426t409 195q106 0 170.5 -88.5t64.5 -235.5q0 -240 -184 -428q-84 -84 -196.5 -137.5t-207.5 -53.5q-109 0 -175 88.5t-66 233.5zM262 1075q2 139 64.5 225t165.5 86q49 0 165 -51q117 -49 154 -49q63 0 86 98h141q-8 -123 -47 -194q-29 -53 -77 -85 t-99 -32q-47 0 -176 55q-109 43 -145 43q-68 0 -86 -96h-146zM328 350q0 -121 33.5 -200.5t84.5 -79.5q76 0 140.5 153.5t64.5 329.5q0 111 -34.5 192.5t-84.5 83.5q-72 4 -138 -150.5t-66 -328.5z" />
<glyph unicode="&#xf6;" horiz-adv-x="978" d="M74 299q0 231 185 426t409 195q106 0 170.5 -88.5t64.5 -235.5q0 -240 -184 -428q-84 -84 -196.5 -137.5t-207.5 -53.5q-109 0 -175 88.5t-66 233.5zM305 1231q0 51 38 89t91 38t90 -38t37 -89q0 -53 -37 -91t-90 -38t-91 38t-38 91zM328 350q0 -121 33.5 -200.5 t84.5 -79.5q76 0 140.5 153.5t64.5 329.5q0 111 -34.5 192.5t-84.5 83.5q-72 4 -138 -150.5t-66 -328.5zM735 1231q0 51 38 89t91.5 38t90 -38t36.5 -89q0 -53 -36.5 -91t-90 -38t-91.5 38t-38 91z" />
<glyph unicode="&#xf7;" d="M119 596v123h874v-123h-874zM444 315q0 47 33 80t80 33q45 0 78 -33t33 -80q0 -45 -33 -77.5t-78 -32.5t-79 32.5t-34 77.5zM444 997q0 47 33 80t80 33q45 0 78 -33t33 -80q0 -45 -33 -77.5t-78 -32.5t-79 32.5t-34 77.5z" />
<glyph unicode="&#xf8;" horiz-adv-x="978" d="M47 -55l94 116q-68 86 -67 232q0 238 185 432.5t411 194.5q72 0 127 -41l98 120l47 -36l-102 -127q66 -106 65 -236q0 -248 -184 -432q-86 -84 -198.5 -137.5t-207.5 -53.5q-72 0 -129 41l-92 -112zM328 348q0 -27 2 -51l307 383q-37 150 -105 149q-74 0 -139 -153.5 t-65 -327.5zM342 213q35 -143 104 -143q35 0 79 50t73 120q55 137 55 325q0 20 -4 33z" />
<glyph unicode="&#xf9;" horiz-adv-x="1101" d="M72 653q102 141 180 204t151 63q39 0 66 -30t27 -77q0 -20 -17 -104l-76 -375q-12 -66 -12 -84q0 -35 23 -35q18 0 75.5 62.5t116.5 148.5q66 92 96.5 178t57.5 242q8 43 18 52t49 9h111q31 0 42 -9t11 -34q0 -12 -4 -41l-119 -579q-10 -53 -10 -58q0 -18 14 -18 q10 0 54.5 39t87.5 88l37 -35q-88 -109 -203 -196t-170 -87q-31 0 -52.5 27t-21.5 64q0 10 14 92l56 280q-80 -125 -228 -288q-158 -174 -243 -175q-78 0 -78 105q0 41 18 127l93 457q10 53 10 59q0 27 -17 27q-23 0 -116 -129zM371 1411h258l147 -362h-162z" />
<glyph unicode="&#xfa;" horiz-adv-x="1101" d="M72 653q102 141 180 204t151 63q39 0 66 -30t27 -77q0 -20 -17 -104l-76 -375q-12 -66 -12 -84q0 -35 23 -35q18 0 75.5 62.5t116.5 148.5q66 92 96.5 178t57.5 242q8 43 18 52t49 9h111q31 0 42 -9t11 -34q0 -12 -4 -41l-119 -579q-10 -53 -10 -58q0 -18 14 -18 q10 0 54.5 39t87.5 88l37 -35q-88 -109 -203 -196t-170 -87q-31 0 -52.5 27t-21.5 64q0 10 14 92l56 280q-80 -125 -228 -288q-158 -174 -243 -175q-78 0 -78 105q0 41 18 127l93 457q10 53 10 59q0 27 -17 27q-23 0 -116 -129zM586 1053l145 358h256l-239 -358h-162z" />
<glyph unicode="&#xfb;" horiz-adv-x="1101" d="M72 653q102 141 180 204t151 63q39 0 66 -30t27 -77q0 -20 -17 -104l-76 -375q-12 -66 -12 -84q0 -35 23 -35q18 0 75.5 62.5t116.5 148.5q66 92 96.5 178t57.5 242q8 43 18 52t49 9h111q31 0 42 -9t11 -34q0 -12 -4 -41l-119 -579q-10 -53 -10 -58q0 -18 14 -18 q10 0 54.5 39t87.5 88l37 -35q-88 -109 -203 -196t-170 -87q-31 0 -52.5 27t-21.5 64q0 10 14 92l56 280q-80 -125 -228 -288q-158 -174 -243 -175q-78 0 -78 105q0 41 18 127l93 457q10 53 10 59q0 27 -17 27q-23 0 -116 -129zM336 1051l303 360h291l82 -360h-164l-82 170 l-272 -170h-158z" />
<glyph unicode="&#xfc;" horiz-adv-x="1101" d="M72 653q102 141 180 204t151 63q39 0 66 -30t27 -77q0 -20 -17 -104l-76 -375q-12 -66 -12 -84q0 -35 23 -35q18 0 75.5 62.5t116.5 148.5q66 92 96.5 178t57.5 242q8 43 18 52t49 9h111q31 0 42 -9t11 -34q0 -12 -4 -41l-119 -579q-10 -53 -10 -58q0 -18 14 -18 q10 0 54.5 39t87.5 88l37 -35q-88 -109 -203 -196t-170 -87q-31 0 -52.5 27t-21.5 64q0 10 14 92l56 280q-80 -125 -228 -288q-158 -174 -243 -175q-78 0 -78 105q0 41 18 127l93 457q10 53 10 59q0 27 -17 27q-23 0 -116 -129zM367 1231q0 51 37.5 89t91 38t90.5 -38 t37 -89q0 -53 -37 -91t-90.5 -38t-91 38t-37.5 91zM797 1231q0 51 37.5 89t91 38t90.5 -38t37 -89q0 -53 -37 -91t-90.5 -38t-91 38t-37.5 91z" />
<glyph unicode="&#xfd;" horiz-adv-x="1007" d="M-86 -500l10 51h31q76 0 116 33t91 135q76 154 105.5 266.5t29.5 245.5q0 225 -32 372t-79 147q-45 0 -108 -99l-45 29q63 109 144 174.5t155 65.5q76 0 125 -134q61 -180 61 -499q0 -102 -10 -248q98 195 159.5 365.5t61.5 246.5q0 35 -33 72q-18 23 -18 61 q0 55 45 95.5t104 40.5q55 0 92 -36t37 -91q0 -53 -30.5 -118t-145.5 -253q-135 -221 -187 -321.5t-165 -358.5q-51 -115 -51 -137q0 -53 76 -54h34l-10 -51h-563zM539 1053l145 358h256l-240 -358h-161z" />
<glyph unicode="&#xfe;" horiz-adv-x="1052" d="M-195 -500l11 51h16q113 0 162 60q37 43 63 178l289 1423q6 29 6 45q0 37 -37 37q-25 0 -49 -12l-20 -10l-23 49l346 139q23 8 29 8q25 0 25 -32q0 -18 -9 -60l-168 -823q256 367 361 367q63 0 114.5 -102.5t51.5 -227.5q0 -162 -73 -302.5t-206 -234.5 q-113 -78 -245 -78q-43 0 -115 25l-51 -254q-10 -61 -11 -84q0 -74 80 -100q27 -8 107 -11l-13 -51h-641zM369 166q18 -63 44.5 -90t69.5 -27q98 0 176 180q66 156 66 306q0 166 -70 165q-57 0 -235 -280z" />
<glyph unicode="&#xff;" horiz-adv-x="1007" d="M-86 -500l10 51h31q76 0 116 33t91 135q76 154 105.5 266.5t29.5 245.5q0 225 -32 372t-79 147q-45 0 -108 -99l-45 29q63 109 144 174.5t155 65.5q76 0 125 -134q61 -180 61 -499q0 -102 -10 -248q98 195 159.5 365.5t61.5 246.5q0 35 -33 72q-18 23 -18 61 q0 55 45 95.5t104 40.5q55 0 92 -36t37 -91q0 -53 -30.5 -118t-145.5 -253q-135 -221 -187 -321.5t-165 -358.5q-51 -115 -51 -137q0 -53 76 -54h34l-10 -51h-563zM319 1231q0 51 38 89t92 38q51 0 88.5 -38t37.5 -89q0 -53 -36.5 -91t-90 -38t-91.5 38t-38 91zM750 1231 q0 51 37.5 89t91.5 38q51 0 89 -38t38 -89q0 -53 -37 -91t-90.5 -38t-91 38t-37.5 91z" />
<glyph unicode="&#x152;" horiz-adv-x="2279" d="M156 608q0 176 79.5 335t223.5 267q227 174 585 174q68 0 150 -10q63 -8 137 -8h944l-69 -336h-109q6 33 6 51q0 92 -63 146q-33 29 -74 38t-133 9h-293l-108 -539h274q119 0 172 31t86 119h90l-90 -439h-88q12 57 12 84q0 59 -45 86t-147 27h-285l-70 -344 q-12 -70 -12 -100q0 -47 40 -76t104 -29h126q338 0 478 244h102l-123 -338h-993q-31 0 -117 -10q-68 -8 -145 -8q-350 0 -527 237q-118 164 -118 389zM453 532q0 -197 104.5 -325.5t261.5 -128.5q152 0 211 112q25 47 39 125l158 775q4 29 4 36q0 72 -55.5 117t-143.5 45 q-123 0 -242.5 -73.5t-195.5 -194.5q-141 -224 -141 -488z" />
<glyph unicode="&#x153;" horiz-adv-x="1409" d="M80 289q0 242 156 416q86 96 203.5 154.5t230.5 58.5q98 0 153 -62q16 -16 43 -68q137 131 310 132q90 0 142 -42t52 -118q0 -145 -213 -248q-82 -39 -276 -94q-12 -59 -13 -105q0 -90 48.5 -144t125.5 -54q57 0 109.5 22.5t140.5 81.5l29 -43q-109 -84 -236 -140 t-211 -56q-70 0 -130 35.5t-87 95.5q-207 -133 -329 -134q-115 0 -181.5 84.5t-66.5 227.5zM330 360q0 -129 32.5 -208.5t86.5 -79.5q72 0 139 143t67 295q0 139 -33.5 226t-86.5 91q-49 2 -97.5 -65.5t-78 -177t-29.5 -224.5zM891 475q270 74 270 279q0 45 -20.5 70.5 t-55.5 25.5q-106 0 -194 -375z" />
<glyph unicode="&#x178;" horiz-adv-x="1464" d="M174 1280l19 86h563l-17 -86q-109 -4 -108 -57q0 -18 22 -66l224 -483l378 428q47 53 48 82q0 80 -136 96l19 86h440l-18 -86l-72 -35q-43 -20 -195 -188l-438 -494l-57 -289q-10 -55 -10 -71q0 -117 139 -117h86l-19 -86h-731l17 86h32q100 0 144.5 46t70.5 177l52 254 l-271 584q-33 78 -69.5 104.5t-112.5 28.5zM563 1649q0 57 41 97t98.5 40t97.5 -40t40 -97.5t-40 -98.5t-98 -41q-59 0 -99 40.5t-40 99.5zM1167 1649q0 57 41 97t97 40q57 0 98 -40t41 -97.5t-41 -98.5t-96 -41q-57 0 -98.5 40.5t-41.5 99.5z" />
<glyph unicode="&#x2c6;" d="M299 1051l303 360h291l82 -360h-164l-82 170l-272 -170h-158z" />
<glyph unicode="&#x2dc;" d="M285 1075q2 139 64.5 225t164.5 86q49 0 166 -51q117 -49 154 -49q63 0 86 98h141q-8 -123 -47 -194q-29 -53 -77 -85t-99 -32q-47 0 -176 55q-106 43 -146 43q-68 0 -86 -96h-145z" />
<glyph unicode="&#x2000;" horiz-adv-x="927" />
<glyph unicode="&#x2001;" horiz-adv-x="1855" />
<glyph unicode="&#x2002;" horiz-adv-x="927" />
<glyph unicode="&#x2003;" horiz-adv-x="1855" />
<glyph unicode="&#x2004;" horiz-adv-x="618" />
<glyph unicode="&#x2005;" horiz-adv-x="462" />
<glyph unicode="&#x2006;" horiz-adv-x="309" />
<glyph unicode="&#x2007;" horiz-adv-x="309" />
<glyph unicode="&#x2008;" horiz-adv-x="231" />
<glyph unicode="&#x2009;" horiz-adv-x="370" />
<glyph unicode="&#x200a;" horiz-adv-x="102" />
<glyph unicode="&#x2010;" horiz-adv-x="966" d="M76 354l47 232h801l-47 -232h-801z" />
<glyph unicode="&#x2011;" horiz-adv-x="966" d="M76 354l47 232h801l-47 -232h-801z" />
<glyph unicode="&#x2012;" horiz-adv-x="966" d="M76 354l47 232h801l-47 -232h-801z" />
<glyph unicode="&#x2013;" horiz-adv-x="1087" d="M-31 430l41 199h1139l-41 -199h-1139z" />
<glyph unicode="&#x2014;" horiz-adv-x="2174" d="M-31 430l41 199h2226l-41 -199h-2226z" />
<glyph unicode="&#x2018;" horiz-adv-x="710" d="M303 1030q0 147 119 279.5t285 169.5l32 -64q-98 -23 -159.5 -82t-61.5 -133q0 -66 45 -129q47 -68 47 -117q0 -57 -41 -95t-100 -38q-72 0 -119 59.5t-47 149.5z" />
<glyph unicode="&#x2019;" horiz-adv-x="710" d="M219 881q98 23 159.5 82t61.5 133q0 66 -45 129q-47 63 -47 116q0 55 41 94.5t100 39.5q72 0 119 -59.5t47 -149.5q0 -147 -118.5 -279.5t-284.5 -169.5z" />
<glyph unicode="&#x201a;" horiz-adv-x="710" d="M8 -301q98 23 159.5 82t61.5 133q0 66 -45 129q-47 68 -47 117q0 57 41 95t101 38q72 0 118.5 -59.5t46.5 -149.5q0 -147 -119.5 -280.5t-283.5 -168.5z" />
<glyph unicode="&#x201c;" horiz-adv-x="1325" d="M307 1030q0 147 119 279.5t285 169.5l32 -64q-98 -23 -159.5 -82t-61.5 -133q0 -66 45 -129q47 -68 47 -117q0 -57 -41 -95t-100 -38q-72 0 -119 59.5t-47 149.5zM911 1030q0 147 119 279.5t285 169.5l33 -64q-100 -23 -162 -82t-62 -133q0 -66 45 -129q49 -63 50 -117 q0 -57 -41 -95t-101 -38q-72 0 -119 59.5t-47 149.5z" />
<glyph unicode="&#x201d;" horiz-adv-x="1325" d="M250 881q98 23 159.5 82t61.5 133q0 66 -45 129q-47 63 -47 116q0 55 41 94.5t100 39.5q72 0 119 -59.5t47 -149.5q0 -147 -118.5 -279.5t-284.5 -169.5zM854 881q100 23 161.5 82t61.5 133q0 66 -45 129q-49 68 -49 116q0 55 41 94.5t100 39.5q72 0 119 -59.5t47 -149.5 q0 -147 -118.5 -279.5t-284.5 -169.5z" />
<glyph unicode="&#x201e;" horiz-adv-x="1325" d="M6 -301q98 23 159.5 82t61.5 133q0 66 -45 129q-47 68 -47 117q0 57 41 95t100 38q72 0 119 -59.5t47 -149.5q0 -147 -119.5 -280.5t-283.5 -168.5zM610 -301q100 23 162 82t62 133q0 66 -46 129q-49 63 -49 119q0 53 42 92t100 39q72 0 119 -59.5t47 -149.5 q0 -147 -119 -280.5t-285 -168.5z" />
<glyph unicode="&#x2022;" horiz-adv-x="1366" d="M451 692q0 119 83.5 202t204.5 83q113 0 196 -84t83 -199q0 -119 -83 -201.5t-200 -82.5t-200.5 82.5t-83.5 199.5z" />
<glyph unicode="&#x2026;" horiz-adv-x="2129" d="M145 121q0 70 47.5 120t112.5 50q59 0 96 -38t37 -101q0 -74 -45 -124.5t-110 -50.5q-59 0 -98.5 40.5t-39.5 103.5zM856 121q0 70 47 120t113 50q59 0 96 -38t37 -101q0 -74 -45 -124.5t-111 -50.5q-59 0 -98 40.5t-39 103.5zM1565 121q0 70 47 120t112 50 q59 0 96.5 -38t37.5 -101q0 -74 -45.5 -124.5t-110.5 -50.5q-59 0 -98 40.5t-39 103.5z" />
<glyph unicode="&#x202f;" horiz-adv-x="370" />
<glyph unicode="&#x2039;" horiz-adv-x="491" d="M41 492l410 399h77l-241 -399l28 -396h-69z" />
<glyph unicode="&#x203a;" horiz-adv-x="491" d="M-41 96l234 398l-31 399h67l211 -399l-399 -398h-82z" />
<glyph unicode="&#x205f;" horiz-adv-x="462" />
<glyph unicode="&#x20ac;" horiz-adv-x="1673" d="M94 569l51 84h103l8 54h-135l51 84h104q35 121 107 231q119 176 334 275.5t481 99.5t471 -86l-82 -348h-90q2 10 2 26q0 135 -99.5 224.5t-248.5 89.5q-205 0 -361.5 -141.5t-207.5 -370.5h678l-52 -84h-643q0 -4 -6 -54h619l-54 -84h-571q-2 -18 -2 -43 q0 -213 101.5 -334.5t279.5 -121.5q143 0 271 72.5t222 207.5h88l-110 -350h-47q-31 29 -76 29q-39 0 -170 -31q-129 -29 -231 -29q-264 0 -447.5 173t-187.5 427h-150z" />
<glyph unicode="&#x2122;" horiz-adv-x="2084" d="M186 1178l47 233h50l2 -10q4 -23 17 -29t65 -6h561q43 0 59.5 8t26.5 37h57l-47 -233h-66q-4 66 -34.5 94t-98.5 28h-102l-113 -552q-6 -31 -6 -37q0 -61 78 -62h39l-12 -61h-433l13 61h33q55 0 78.5 24.5t37.5 94.5l109 532h-90q-147 0 -207 -122h-64zM969 588l14 61 q57 8 83 37t48 113l115 415q4 20 4 31q0 57 -113 60l13 61h317l98 -553l373 553h291l-12 -61q-70 -2 -97.5 -22.5t-38.5 -78.5l-90 -442q-8 -37 -8 -55q0 -57 105 -58h16l-12 -61h-416l12 61q63 0 89 23.5t40 91.5l88 436l-409 -612h-64l-112 635l-123 -437q-8 -33 -9 -49 q0 -39 26 -63.5t67 -24.5h16l-14 -61h-297z" />
<glyph unicode="&#xe000;" horiz-adv-x="920" d="M0 920h920v-920h-920v920z" />
<glyph unicode="&#xfb01;" horiz-adv-x="1103" d="M-453 -371q0 43 39 77t86 34q78 0 131 -88q49 -80 103 -80q72 0 114 100q18 41 29.5 94.5t52.5 296.5l123 734h-164l9 51q33 -2 89 14.5t83 34.5q43 229 120 344q156 236 410 236q133 0 214 -63.5t81 -170.5q0 -57 -33 -90t-88 -33q-47 0 -76.5 25.5t-27.5 66.5l2 37 q6 33 6 62q0 53 -31 83.5t-84 30.5q-170 0 -215 -262l-45 -266h223q145 0 314 23l-172 -721q-10 -41 -11 -56q0 -33 27 -32q23 0 68 33.5t86 82.5l41 -37q-72 -88 -170.5 -150.5t-165.5 -62.5q-51 0 -85 37t-34 94.5t51 268.5l82 342q10 39 10 51q0 16 -9 21.5t-44 5.5h-227 l-115 -691q-39 -233 -149 -382q-168 -229 -416 -230q-102 0 -167 38t-65 97z" />
<glyph unicode="&#xfb02;" horiz-adv-x="1042" d="M-453 -371q0 43 39 77t86 34q78 0 131 -88q49 -80 103 -80q72 0 114 100q18 41 29.5 94.5t52.5 296.5l123 734h-164l9 51q33 0 89 15.5t83 33.5q55 240 125 352q137 227 352 228q102 0 203 -64l114 47q23 8 31 8q25 0 25 -32q0 -16 -9 -60l-239 -1175q-8 -39 -8 -47 q0 -16 9 -28.5t21 -12.5q41 0 144 108l32 -37q-78 -90 -173 -148.5t-164 -58.5q-109 0 -109 123q0 37 16 121l193 944l14 58q10 39 10 84q0 100 -122 100q-78 0 -119 -57.5t-68 -200.5l-45 -252h162l-23 -100h-155l-115 -691q-39 -233 -149 -382q-168 -229 -416 -230 q-102 0 -167 38t-65 97z" />
<glyph unicode="&#xfb03;" horiz-adv-x="1611" d="M-453 -371q0 43 39 77t86 34q78 0 131 -88q49 -80 103 -80q72 0 114 100q18 41 29.5 94.5t52.5 296.5l123 734h-164l9 51q33 0 89 15.5t83 33.5q57 272 170 406q150 174 370 174q123 0 254 -66q111 66 244 66t214 -63.5t81 -170.5q0 -57 -33 -90t-88 -33 q-47 0 -76.5 25.5t-27.5 66.5l2 37q6 35 6 62q0 53 -31 83.5t-84 30.5q-170 0 -215 -262l-45 -266h223q145 0 314 23l-172 -721q-10 -41 -11 -56q0 -33 27 -32q51 0 154 116l41 -37q-74 -90 -171.5 -151.5t-164.5 -61.5q-51 0 -85 37t-34 95q0 51 51 268l82 342q8 41 8 51 q0 16 -9 21.5t-42 5.5h-227l-117 -691q-41 -244 -129 -385q-141 -227 -340 -227q-82 0 -137.5 39t-55.5 98q0 47 33 78t82 31q86 0 121 -88q31 -80 59 -80q20 0 30.5 21.5t25.5 89.5q25 115 69 380l125 734h-274l-115 -691q-39 -233 -149 -382q-168 -229 -416 -230 q-102 0 -167 38t-65 97zM475 897h275q29 154 64.5 243t103.5 165q-59 66 -93 87t-82 21q-109 0 -163 -86q-39 -57 -62 -188z" />
<glyph unicode="&#xfb04;" horiz-adv-x="1550" d="M-453 -371q0 43 39 77t86 34q78 0 131 -88q49 -80 103 -80q72 0 114 100q18 41 29.5 94.5t52.5 296.5l123 734h-164l9 51q33 0 89 15.5t83 33.5q57 272 170 406q150 174 370 174q123 0 246 -62q96 61 199 62q96 0 203 -64l114 47q23 8 29 8q25 0 24 -32q0 -10 -8 -60 l-237 -1175q-2 -8 -5.5 -25.5t-3.5 -21.5q0 -16 9.5 -28.5t21.5 -12.5q39 0 144 108l32 -37q-78 -90 -173 -148.5t-165 -58.5q-109 0 -108 123q0 45 16 121l193 944q23 109 22 142q0 47 -32.5 73.5t-90.5 26.5q-78 0 -117.5 -56.5t-66.5 -201.5l-45 -252h162l-23 -100h-155 l-117 -691q-41 -244 -129 -385q-141 -227 -340 -227q-82 0 -137.5 39t-55.5 98q0 47 33 78t82 31q86 0 121 -88q31 -80 59 -80q20 0 30.5 21.5t25.5 89.5q25 115 69 380l125 734h-274l-115 -691q-39 -233 -149 -382q-168 -229 -416 -230q-102 0 -167 38t-65 97zM475 897h275 q66 285 165 412q-55 61 -89.5 82.5t-82.5 21.5q-109 0 -163 -86q-39 -57 -62 -188z" />
</font>
</defs>
</svg>
