<?xml version="1.0" standalone="no"?>
<!DOCTYPE svg PUBLIC "-//W3C//DTD SVG 1.1//EN" "http://www.w3.org/Graphics/SVG/1.1/DTD/svg11.dtd" >
<svg xmlns="http://www.w3.org/2000/svg">
<metadata>
This is a custom SVG webfont generated by Font Squirrel.
Copyright   : Typeface  FontSite Inc 19962008 All Rights Reserved wwwfontsitecom
Designer    : FontSitecom
Foundry URL : httpwwwfontsitecom
</metadata>
<defs>
<font id="webfontYjq6Uu7v" horiz-adv-x="1079" >
<font-face units-per-em="2048" ascent="1479" descent="-569" />
<missing-glyph horiz-adv-x="512" />
<glyph unicode=" "  horiz-adv-x="512" />
<glyph unicode="&#x09;" horiz-adv-x="512" />
<glyph unicode="&#xa0;" horiz-adv-x="512" />
<glyph unicode="!" horiz-adv-x="641" d="M154 72q0 53 29.5 91t74.5 38q37 0 60.5 -28t23.5 -73q0 -53 -29.5 -90t-74.5 -37q-39 0 -61.5 27t-22.5 72zM283 362l131 961q8 55 18 66.5t55 11.5h48q39 0 52 -8.5t13 -30.5q0 -18 -6 -37l-270 -963h-41z" />
<glyph unicode="&#x22;" horiz-adv-x="626" d="M266 1264q0 53 20.5 87.5t53.5 34.5q35 0 56.5 -34.5t21.5 -89.5q0 -8 -8 -82l-45 -334h-46l-47 334q-6 37 -6 84zM514 1264q0 53 20.5 87.5t53.5 34.5q35 0 56.5 -34.5t21.5 -89.5q0 -31 -9 -82l-47 -334h-43l-47 334q-6 61 -6 84z" />
<glyph unicode="#" d="M82 469l20 72h215l89 311h-213l20 72h215l127 442h78l-127 -442h313l127 442h80l-129 -442h203l-21 -72h-202l-91 -311h203l-20 -72h-203l-135 -469h-80l135 469h-313l-135 -469h-78l135 469h-213zM395 541h314l90 311h-314z" />
<glyph unicode="$" d="M150 223q0 41 20 67.5t53 26.5q29 0 48.5 -20.5t19.5 -50.5q0 -16 -6 -51l-2 -37q-2 -76 69 -121l121 598q-145 147 -145 313q0 133 73.5 221t202.5 111l27 131h35l-25 -127h43q20 0 74 -4l26 131h35l-28 -137q90 -23 140 -86.5t50 -153.5q0 -100 -66 -100 q-27 0 -43 21.5t-16 56.5q0 25 6 49q6 33 6 53q0 78 -86 115l-118 -588q188 -182 188 -342q0 -135 -88 -222t-238 -104l-32 -163h-35l33 161q-57 0 -115 13l-37 -174h-35l37 182q-86 29 -139 92t-53 139zM385 23q45 -12 84 -13q14 0 31 2l100 492l-41 43l-57 57zM428 1006 q0 -92 80 -201l86 428q-76 -25 -121 -86t-45 -141zM537 16q84 18 137 84t53 150q0 104 -98 219zM537 768q33 -37 43 -47l53 -51l117 569q-37 6 -66 6q-10 0 -51 -4z" />
<glyph unicode="%" horiz-adv-x="1792" d="M133 842q0 219 134 387t308 168q129 0 199 -87t70 -249q0 -225 -130 -390t-306 -165q-127 0 -201 90t-74 246zM174 -59l1364 1495h96l-1364 -1495h-96zM252 752q0 -100 41 -155.5t115 -55.5q141 0 227 190q90 201 90 416t-158 215q-129 0 -211 -160q-37 -76 -70.5 -220 t-33.5 -230zM1030 305q0 221 133 389t310 168q129 0 198.5 -88t69.5 -250q0 -225 -130 -390t-306 -165q-129 0 -202 89t-73 247zM1149 213q0 -100 41 -154.5t115 -54.5q141 0 227 191q92 205 92 417q0 215 -160 215q-127 0 -211 -161q-37 -74 -70.5 -219.5t-33.5 -233.5z " />
<glyph unicode="&#x26;" horiz-adv-x="1556" d="M113 393q0 94 56 181.5t153 144.5q90 55 223 74q-250 70 -250 254q0 139 141 247q139 106 363 107q193 0 293 -80q84 -66 84 -129q0 -27 -21.5 -46.5t-50.5 -19.5q-37 0 -56.5 25t-35.5 92q-29 104 -209 105q-156 0 -248 -105q-84 -100 -84 -229q0 -86 43 -142.5 t109 -56.5h16l35 4q6 2 18 2q51 0 51 -35q0 -37 -67 -36q-12 0 -90 4q-43 2 -98.5 -19.5t-90.5 -52.5q-94 -90 -94 -244q0 -84 35 -164.5t94 -132.5q117 -100 322 -100q244 0 403 166q104 111 105 221q0 88 -63.5 141.5t-166.5 53.5q-66 0 -115 -18.5t-49 -43.5 q0 -14 25 -39q27 -27 27 -49q0 -20 -17.5 -35.5t-42.5 -15.5q-33 0 -52.5 19.5t-19.5 50.5q0 72 70 141q49 49 114.5 68.5t180.5 19.5q72 0 107 -2q94 -4 106 -4q55 0 94 17.5t39 41.5q0 12 -18 33q-18 25 -19 45q0 16 16.5 30.5t37.5 14.5q23 0 40 -19.5t17 -46.5 q0 -57 -45 -106t-123 -78q-76 -29 -195 -31q106 -82 107 -188q0 -143 -135 -274q-190 -188 -502 -189q-246 0 -389 107q-80 57 -129 146t-49 175z" />
<glyph unicode="'" horiz-adv-x="378" d="M266 1264q0 53 20.5 87.5t53.5 34.5q35 0 56.5 -34.5t21.5 -89.5q0 -8 -8 -82l-45 -334h-46l-47 334q-6 37 -6 84z" />
<glyph unicode="(" horiz-adv-x="663" d="M154 256q0 246 96 480.5t301 488.5q121 150 233 254l19 -33q-182 -209 -283 -402q-84 -162 -168 -409q-82 -248 -82 -531q0 -297 113 -600l-35 -16q-109 254 -151.5 425t-42.5 343z" />
<glyph unicode=")" horiz-adv-x="663" d="M-123 -479q186 215 285 401q92 178 168 408q82 244 82 538q0 158 -22.5 272.5t-92.5 321.5l35 17q111 -258 153.5 -426t42.5 -342q0 -477 -399 -969q-106 -133 -233 -254z" />
<glyph unicode="*" d="M174 1167l31 58l362 -123l148 350l63 -12l-6 -379l379 -29l8 -65l-364 -113l92 -373l-66 -26l-217 303l-317 -195l-49 49l231 310z" />
<glyph unicode="+" d="M141 666v67h418v397h68v-397h415v-67h-415v-398h-68v398h-418z" />
<glyph unicode="," horiz-adv-x="641" d="M39 -342q111 78 152.5 131t41.5 113q0 37 -30 96q-33 63 -33 102q0 41 26.5 71t65.5 30q45 0 77 -46t32 -112q0 -244 -314 -424z" />
<glyph unicode="-" horiz-adv-x="733" d="M102 367l29 137h496l-29 -137h-496z" />
<glyph unicode="." horiz-adv-x="641" d="M154 72q0 53 29.5 91t74.5 38q37 0 60.5 -28t23.5 -73q0 -53 -29.5 -90t-74.5 -37q-39 0 -61.5 27t-22.5 72z" />
<glyph unicode="/" horiz-adv-x="641" d="M-174 -489l833 1939h82l-833 -1939h-82z" />
<glyph unicode="0" d="M115 459q0 193 75.5 406.5t190.5 348.5q162 186 344 187q160 0 246 -126t86 -357q0 -242 -85 -462t-225.5 -353.5t-293.5 -133.5q-158 0 -248 130.5t-90 359.5zM266 326q0 -162 58 -242q47 -70 131 -70t176 86q121 117 205 455q72 293 71 502q0 143 -50 221t-142 78 q-168 0 -283 -262q-57 -129 -111.5 -380t-54.5 -388z" />
<glyph unicode="1" d="M246 0l8 35h65q76 0 100.5 22.5t41.5 108.5l209 1032q-215 -172 -379 -225l12 59q309 131 483 367h82l-247 -1215q-6 -25 -7 -61q0 -53 50 -72q27 -10 112 -16l-6 -35h-524z" />
<glyph unicode="2" d="M16 0v33l193 188q315 309 471 510q156 207 156 371q0 92 -61.5 148.5t-162.5 56.5q-115 0 -201.5 -71t-134.5 -202h-43q31 166 147 266.5t273.5 100.5t257 -87t99.5 -224q0 -82 -40 -160t-141 -187q-33 -37 -63 -64l-96 -86l-148 -136l-114 -109q-14 -14 -70 -63 l-145 -138h520q55 0 73.5 17.5t32.5 83.5l6 31h41l-49 -279h-801z" />
<glyph unicode="3" d="M29 55q0 29 21.5 51.5t49.5 22.5q27 0 64 -23q98 -53 170 -53q139 0 259 158t120 344q0 96 -52.5 157.5t-136.5 61.5q-59 0 -182 -65l12 53q229 135 326.5 228t97.5 177q0 63 -48 107.5t-118 44.5q-66 0 -122 -35t-121 -117l-29 27q127 207 338 207q115 0 190.5 -60.5 t75.5 -152.5q0 -184 -336 -314q14 2 33 3q111 0 179.5 -75t68.5 -194q0 -133 -87 -273t-229 -235q-86 -59 -191.5 -95t-186.5 -36q-74 0 -120 23.5t-46 62.5z" />
<glyph unicode="4" d="M119 416v78l819 905h57l-174 -864h201l-25 -119h-200l-92 -447h-158l92 447h-520zM227 535h435l126 620z" />
<glyph unicode="5" d="M68 61q0 27 21.5 49.5t47.5 22.5q35 0 111 -47q72 -43 114 -43q57 0 125 40t121 105q123 147 123 338q0 115 -58.5 183.5t-154.5 68.5q-76 0 -172 -49l170 637q33 2 76 2q68 0 299 -8q14 -2 39 -2q86 0 102 45h37l-37 -182q-55 -8 -98 -9q-2 0 -11.5 2.5t-43 3.5t-95.5 1 h-63q-133 0 -191 -9l-84 -313q84 31 144 31q127 0 212 -96.5t85 -239.5q0 -238 -197.5 -429.5t-445.5 -191.5q-176 0 -176 90z" />
<glyph unicode="6" d="M133 358q0 238 144.5 476.5t381.5 390.5q236 150 445 174l-12 -56q-238 -47 -426.5 -233t-307.5 -496q172 166 332 166q113 0 188.5 -87t75.5 -218q0 -197 -151.5 -351.5t-343.5 -154.5q-150 0 -238 105.5t-88 283.5zM270 240q0 -102 49.5 -164t133.5 -62q119 0 213 123 q51 68 88 184.5t37 213.5q0 82 -41 129t-111 47q-121 0 -301 -164q-68 -192 -68 -307z" />
<glyph unicode="7" d="M197 1026l84 342h788v-57l-627 -1342h-104l623 1250h-560q-72 0 -99.5 -16.5t-39.5 -65.5l-29 -111h-36z" />
<glyph unicode="8" d="M123 281q0 152 162 284q57 49 219 140q-188 186 -189 350q0 152 111 249t285 97q143 0 235 -73t92 -185q0 -131 -151 -250q-61 -47 -223 -133q135 -135 187 -224.5t52 -183.5q0 -160 -120.5 -271.5t-293.5 -111.5q-154 0 -260 90.5t-106 221.5zM264 238q0 -96 60.5 -158 t154.5 -62q115 0 196 82t81 197q0 190 -219 373q-273 -186 -273 -432zM449 1112q0 -143 188 -319l20 14q111 76 176.5 173t65.5 187q0 84 -53 136.5t-139 52.5q-106 0 -182 -72t-76 -172z" />
<glyph unicode="9" d="M61 -31l11 51q238 47 431 234.5t312 488.5q-90 -74 -127 -96q-96 -61 -201 -61q-111 0 -184.5 89t-73.5 222q0 193 151.5 348.5t338.5 155.5q152 0 241 -105.5t89 -287.5q0 -127 -49.5 -270.5t-133.5 -258.5q-102 -137 -255.5 -260t-303.5 -186q-105 -44 -246 -64z M389 840q0 -84 41 -135.5t109 -51.5q121 0 305 166l14 47q55 182 55 275q0 96 -49 155.5t-131 59.5q-150 0 -244 -160q-100 -174 -100 -356z" />
<glyph unicode=":" horiz-adv-x="641" d="M156 72q0 53 29.5 91t74.5 38q37 0 60.5 -28t23.5 -73q0 -53 -29.5 -90t-74.5 -37q-39 0 -61.5 27t-22.5 72zM293 768q0 55 29.5 92t74.5 37q39 0 62.5 -27.5t23.5 -72.5q0 -53 -29.5 -90t-74.5 -37q-39 0 -62.5 26.5t-23.5 71.5z" />
<glyph unicode=";" horiz-adv-x="641" d="M37 -342q111 78 152.5 131t41.5 113q0 37 -30 96q-33 63 -33 102q0 41 26.5 71t65.5 30q45 0 77 -46t32 -112q0 -244 -314 -424zM303 768q0 53 31 91t74 38q39 0 62.5 -27.5t23.5 -72.5q0 -53 -30 -90t-75 -37q-39 0 -62.5 26.5t-23.5 71.5z" />
<glyph unicode="&#x3c;" horiz-adv-x="1024" d="M137 694v13l846 544v-71l-649 -424l649 -432v-195z" />
<glyph unicode="=" d="M141 514v68h901v-68h-901zM141 815v68h901v-68h-901z" />
<glyph unicode="&#x3e;" horiz-adv-x="1024" d="M137 129v74l649 422l-649 434v192l846 -565v-12z" />
<glyph unicode="?" horiz-adv-x="870" d="M137 72q0 53 30 91t75 38q37 0 60.5 -28t23.5 -73q0 -53 -30 -90t-75 -37q-39 0 -61.5 27t-22.5 72zM266 360q27 227 75 317.5t177 158.5q104 55 148.5 108t44.5 123q0 76 -55.5 125t-139.5 49q-39 0 -137 -27q-25 -8 -45 -8q-25 0 -40 23.5t-15 58.5q0 43 40 70 q68 43 156 43q137 0 223 -95.5t86 -244.5q0 -143 -63 -252q-51 -88 -178 -145q-106 -49 -153.5 -110.5t-80.5 -193.5h-43z" />
<glyph unicode="@" horiz-adv-x="1568" d="M174 467q0 297 208 508t499 211q266 0 447 -174t181 -430q0 -213 -151.5 -361.5t-370.5 -148.5q-45 0 -65.5 21.5t-20.5 70.5q0 45 27 174q-252 -260 -314 -260q-41 0 -73.5 57.5t-32.5 132.5q0 135 90 274.5t231.5 227.5t278.5 88q18 0 41 -2l-123 -602q-8 -41 -8 -57 q0 -53 67 -54q82 0 172 72q184 147 185 365q0 229 -164 385q-170 160 -397 159q-266 0 -452.5 -191.5t-186.5 -463.5q0 -274 188 -465.5t461 -191.5q225 0 416 143h82q-201 -205 -504 -205q-297 0 -504 209t-207 508zM621 305q0 -55 17 -95t42 -40q43 0 260 223l76 371 q-137 -12 -213 -66q-80 -53 -131 -163.5t-51 -229.5z" />
<glyph unicode="A" horiz-adv-x="1533" d="M-106 0l8 39q80 10 133 50t139 153l889 1159h115l10 -1233q0 -72 36 -97.5t136 -29.5l12 -2l-8 -39h-586l6 39h12q118 0 168 39q52 41 52 143l-2 375h-494l-287 -371q-39 -49 -38 -92q0 -57 51 -76q43 -16 131 -18l-8 -39h-475zM582 674h430l-4 565z" />
<glyph unicode="B" horiz-adv-x="1343" d="M4 0l8 39h4q106 0 152 67q33 49 55 158l170 838q16 84 17 115q0 111 -127 110h-50l9 39h616q197 0 305.5 -77t108.5 -214q0 -123 -94.5 -207t-255.5 -106q141 -35 227 -132.5t86 -223.5q0 -109 -60.5 -202t-160.5 -141q-129 -63 -334 -63h-676zM393 213q0 -84 57.5 -122 t184.5 -38q117 0 187.5 25.5t127.5 89.5q94 104 94 264q0 145 -100 230.5t-274 85.5h-174l-93 -453q-10 -55 -10 -82zM506 801h174q188 0 274 51q135 78 136 242q0 170 -152 206q-57 14 -160 15h-168z" />
<glyph unicode="C" horiz-adv-x="1613" d="M160 586q0 342 277.5 578.5t680.5 236.5q281 0 481 -101l-79 -327h-41q6 37 6 63q0 150 -99.5 231t-281.5 81q-276 0 -508 -207q-115 -104 -179.5 -256t-64.5 -322q0 -250 131 -398.5t355 -148.5q346 0 571 332h41l-109 -344h-18q-37 12 -78 12q-25 0 -127 -18 q-176 -33 -291 -33q-221 0 -374 88q-135 78 -214 221.5t-79 311.5z" />
<glyph unicode="D" horiz-adv-x="1675" d="M-12 0l8 39h22q94 0 146 51q20 20 29.5 47t29.5 127l176 864q14 72 15 95q0 102 -140 102h-59l8 41h656q328 0 525.5 -167t197.5 -441q0 -211 -124 -396.5t-327 -279.5q-180 -82 -395 -82h-768zM387 180q0 -74 51 -101.5t191 -27.5q250 0 401 82q172 94 272.5 265 t100.5 372q0 162 -73 285t-210 190q-76 39 -161 53.5t-232 14.5h-115l-219 -1077q-6 -27 -6 -56z" />
<glyph unicode="E" horiz-adv-x="1382" d="M-18 0l10 39h10q111 0 162 55q31 33 53 144l182 890q12 61 13 93q0 102 -140 102h-55l10 43h1127l-62 -303h-35q2 23 3 43q0 109 -55.5 157t-182.5 48h-412l-121 -592h433q92 0 139 30.5t86 114.5h39l-80 -385h-37q2 14 2 33q0 88 -47 120t-176 32h-369l-94 -461 q-4 -29 -4 -43q0 -59 44 -83t161 -24h141q193 0 334 92q49 33 75.5 60.5t69.5 89.5h37l-98 -295h-1163z" />
<glyph unicode="F" horiz-adv-x="1239" d="M-4 0l8 41h8q102 0 152 53q33 35 53 144l182 890q14 70 15 95q0 47 -37 74.5t-103 27.5h-41l11 41h1040l-61 -299h-35v37q0 117 -45 162t-160 45h-373l-118 -592h387q78 0 126 34.5t87 123.5h38l-79 -398h-39q-2 109 -35 147t-125 38h-373l-86 -426q-12 -63 -12 -82 q0 -115 154 -115h43l-11 -41h-571z" />
<glyph unicode="G" horiz-adv-x="1724" d="M172 602q0 330 273.5 564.5t658.5 234.5q258 0 512 -107l10 -299h-39q-39 166 -171 259.5t-322 93.5q-174 0 -325 -79t-251 -225q-150 -217 -149 -471q0 -164 68.5 -291.5t189.5 -189.5q147 -74 331 -74q168 0 275 64q51 33 70 111l12 51q16 68 16 98q0 98 -143 98h-6 l8 41h485l-10 -41q-100 -14 -126 -43.5t-52 -152.5l-21 -97q-2 -10 -2 -22q0 -43 74 -43l-8 -39q-285 -78 -576 -78q-383 0 -583 193q-199 188 -199 444z" />
<glyph unicode="H" horiz-adv-x="1660" d="M-37 0l8 39h45q104 0 152 67q29 43 53 158l176 864q14 72 15 95q0 47 -37 74.5t-103 27.5h-53l8 41h588l-8 -41h-29q-104 0 -153 -55q-29 -33 -52 -142l-81 -399h792l82 399q12 55 12 95q0 47 -36.5 74.5t-100.5 27.5h-35l8 41h543l-6 -41h-10q-113 0 -156 -68 q-27 -41 -51 -155l-176 -864q-10 -53 -10 -82q0 -115 153 -115h27l-8 -41h-586l8 41h27q113 0 161 55q33 35 54 142l86 417h-793l-86 -417q-12 -57 -12 -82q0 -115 153 -115h52l-9 -41h-612z" />
<glyph unicode="I" horiz-adv-x="694" d="M-8 0l8 41h8q106 0 156 55q33 33 55 142l180 890q14 70 15 95q0 47 -37 74.5t-103 27.5h-28l8 41h549l-8 -41h-15q-104 0 -153 -55q-27 -29 -52 -142l-182 -890q-12 -63 -12 -78q0 -119 156 -119h30l-8 -41h-567z" />
<glyph unicode="J" horiz-adv-x="663" d="M-477 -457q0 23 26 62q29 49 72 49q27 0 115 -31q70 -25 137 -24q137 0 209 106q37 55 57 178l219 1245q10 55 11 89q0 109 -142 108h-41l9 41h553l-7 -41h-8q-106 0 -151 -55q-31 -33 -50 -142l-188 -1067q-29 -154 -73 -241.5t-134 -163.5q-90 -78 -211 -123t-239 -45 q-164 0 -164 55z" />
<glyph unicode="K" horiz-adv-x="1554" d="M-14 0l8 41h8q109 0 162 55q31 33 53 142l180 890q14 72 15 95q0 47 -37 74.5t-103 27.5h-6l8 41h531l-8 -41h-19q-104 0 -153 -55q-29 -33 -52 -142l-88 -432l672 471q57 39 71.5 56.5t14.5 42.5q0 33 -22.5 44t-85.5 15l8 41h497l-8 -41l-100 -22q-129 -29 -373 -201 l-463 -326l504 -592q66 -78 125 -111.5t131 -33.5h12l-8 -39h-327l-574 680l-90 -64l-78 -378q-12 -57 -12 -82q0 -115 156 -115h28l-8 -41h-569z" />
<glyph unicode="L" horiz-adv-x="1282" d="M-14 0l8 41h24q102 0 152 70q29 43 53 155l176 862q14 72 15 95q0 47 -37 74.5t-103 27.5h-41l9 41h573l-8 -41h-27q-109 0 -153 -55q-33 -35 -54 -142l-178 -876q-8 -45 -8 -84q0 -96 109 -96h256q164 0 266 50t203 179h41l-101 -301h-1175z" />
<glyph unicode="M" horiz-adv-x="1875" d="M-51 0l8 41q115 23 161 83t101 259l203 727q18 59 18 111q0 72 -75 94q-41 10 -101 10h-20l8 41h405l201 -1167l760 1167h358l-8 -41h-18q-104 0 -154 -55q-31 -37 -51 -142l-182 -890q-12 -55 -13 -82q0 -115 156 -115h33l-10 -41h-572l8 41h6q111 0 164 55 q33 35 54 142l200 985l-796 -1223h-74l-207 1231l-266 -948q-12 -43 -13 -93q0 -139 164 -149l-8 -41h-440z" />
<glyph unicode="N" horiz-adv-x="1693" d="M0 0l8 41q96 12 142.5 66.5t72.5 179.5l197 960q-41 66 -191 80l9 39h294l818 -1151l178 875q10 55 10 90q0 70 -45 105.5t-141 41.5l10 39h446l-8 -39q-94 -12 -145 -65.5t-74 -167.5l-227 -1119h-54l-839 1205l-178 -879q-10 -57 -11 -90q0 -109 95 -152q27 -10 98 -18 l-8 -41h-457z" />
<glyph unicode="O" horiz-adv-x="1738" d="M162 608q0 164 81 327t218 273q240 193 540 193q283 0 477.5 -186.5t194.5 -454.5q0 -328 -248.5 -561.5t-599.5 -233.5q-203 0 -362 101q-141 90 -221 233t-80 309zM356 539q0 -231 130 -376t341 -145q119 0 234 50.5t192 138.5q106 117 167 280.5t61 335.5 q0 229 -131 377t-338 148q-248 0 -412 -168q-115 -115 -179.5 -286t-64.5 -355z" />
<glyph unicode="P" horiz-adv-x="1239" d="M12 0l8 41q92 4 135.5 52t67.5 171l176 864q12 55 13 95q0 102 -140 102h-26l8 41h485q219 0 324 -55q197 -98 197 -322q0 -154 -103 -274q-156 -180 -467 -180q-76 0 -119 10l9 39q43 -6 69 -6q231 0 346 172q80 121 80 270q0 178 -121 252q-66 39 -204 39h-140 l-219 -1073q-10 -51 -10 -82q0 -115 154 -115h30l-8 -41h-545z" />
<glyph unicode="Q" horiz-adv-x="1736" d="M162 608q0 317 250 555t583 238q287 0 482.5 -184.5t195.5 -456.5q0 -291 -206.5 -517.5t-510.5 -269.5l86 -59q291 -201 455 -201q78 0 145 27l21 -29q-104 -94 -285 -94q-98 0 -203.5 46t-263.5 149l-188 122q-31 20 -61 48q-215 45 -357.5 224t-142.5 402zM356 539 q0 -231 130 -376t341 -145q119 0 234 50.5t192 138.5q106 117 167 280.5t61 335.5q0 229 -131 377t-338 148q-248 0 -412 -168q-113 -115 -178.5 -287t-65.5 -354z" />
<glyph unicode="R" horiz-adv-x="1540" d="M-33 0l8 41h27q109 0 162 55q33 35 53 142l182 890q12 59 13 95q0 47 -37 74.5t-103 27.5h-34l8 41h618q176 0 286 -93t110 -243q0 -152 -116 -261.5t-319 -145.5q41 -57 191 -291q57 -90 131 -164t137 -105q74 -37 166 -36q12 0 23 2v-35q-47 -16 -115 -17 q-127 0 -217 39t-174 131q-59 63 -191 269q-86 133 -131 186q-41 -4 -96 -4q-41 0 -84 2l-74 -362q-10 -51 -10 -82q0 -115 154 -115h40l-8 -41h-600zM475 649q166 0 261 18.5t167 63.5q80 49 126 138t46 196q0 143 -129 209q-70 33 -231 33h-105z" />
<glyph unicode="S" horiz-adv-x="1167" d="M55 104l72 314h39q-2 -20 -2 -51q0 -162 99 -255.5t276 -93.5q152 0 247 73t95 185q0 98 -86 187q-43 47 -203 162q-162 119 -230.5 211t-68.5 192q0 147 124 249.5t302 102.5q86 0 194 -28q57 -14 82 -15q35 0 72 31h43l-49 -360h-39q0 152 -80 236.5t-223 84.5 q-125 0 -206 -62.5t-81 -158.5q0 -66 43 -123t152 -141q174 -131 231 -180.5t92 -96.5q80 -104 80 -213q0 -170 -140 -279.5t-358 -109.5q-111 0 -241 38t-236 101z" />
<glyph unicode="T" horiz-adv-x="1441" d="M180 1073l72 352h39q27 -37 55.5 -48t89.5 -11h858q111 0 152 10t80 49h41l-72 -352h-41v35q0 135 -57 180q-27 23 -105 23h-315l-219 -1073q-12 -57 -13 -82q0 -115 156 -115h45l-8 -41h-602l10 41h23q111 0 161 55q33 35 54 142l217 1073h-254q-135 0 -204 -50.5 t-124 -187.5h-39z" />
<glyph unicode="U" horiz-adv-x="1601" d="M182 1325l8 41h558l-9 -41h-16q-104 0 -152 -55q-33 -35 -53 -142l-115 -563q-27 -135 -26 -211q0 -150 113.5 -243t297.5 -93q276 0 422 181q82 100 123 319l105 574q8 43 8 79q0 154 -199 154l10 41h451l-8 -41q-164 -20 -205 -246l-106 -577q-45 -254 -177 -381 q-162 -156 -456 -156q-305 0 -451 160q-100 113 -100 258q0 63 26 188l113 557q14 78 14 95q0 47 -36.5 74.5t-102.5 27.5h-37z" />
<glyph unicode="V" horiz-adv-x="1533" d="M279 1325l8 41h532l-8 -41h-29q-168 0 -174 -197l-33 -962l777 917q86 102 86 152q0 63 -70 84q-20 6 -72 6l9 41h417l-6 -41q-68 -23 -124 -67t-134 -136l-981 -1157h-71l32 1163v18q0 87 -18 118q-37 61 -133 61h-8z" />
<glyph unicode="W" horiz-adv-x="2105" d="M233 1323l9 43h497l-8 -43q-98 -8 -135 -52t-43 -155l-47 -919l684 919v76q0 129 -170 131l10 43h518l-8 -43q-98 -8 -136 -47t-40 -133l-23 -946l633 897q57 80 58 131q0 98 -140 98h-6l8 43h400l-10 -43q-51 -10 -94.5 -49t-112.5 -137l-832 -1172h-80l25 1053 l-784 -1053h-74l55 1184v43q0 72 -30 97.5t-124 33.5z" />
<glyph unicode="X" horiz-adv-x="1509" d="M-59 0l8 35q84 8 143.5 41t145.5 119l505 507l-284 504q-39 70 -89.5 93.5t-156.5 27.5l6 39h584l-8 -39q-86 -2 -121 -17.5t-35 -52.5q0 -29 29 -79l194 -353l330 332q53 57 53 96q0 68 -155 74l8 39h497l-8 -39q-100 -12 -162.5 -44t-164.5 -134l-369 -371l311 -559 q59 -104 99 -137t137 -47l-8 -35h-525l6 35q88 8 119 23.5t31 50.5q0 27 -21 61l-270 483l-391 -389q-86 -86 -86 -139q0 -45 31.5 -65.5t111.5 -24.5l-6 -35h-489z" />
<glyph unicode="Y" horiz-adv-x="1372" d="M160 1327l8 39h457l-9 -39q-121 -10 -120 -76q0 -37 26 -90l248 -536l426 489q78 90 78 133q0 74 -131 80l8 39h375l-8 -37q-55 -20 -92 -50t-99 -99l-539 -621l-65 -321q-12 -63 -12 -82q0 -115 153 -115h56l-9 -41h-624l8 41h37q113 0 162 55q31 33 53 142l65 321 l-276 606q-43 92 -78 126t-98 36z" />
<glyph unicode="Z" horiz-adv-x="1509" d="M49 0v43l1251 1268h-505q-156 0 -251 -73t-155 -237h-41l84 365h1116v-45l-1253 -1266h643q158 0 253 67.5t202 256.5h41l-105 -379h-1280z" />
<glyph unicode="[" horiz-adv-x="663" d="M37 -477l389 1915h412l-7 -37h-198q-45 0 -64.5 -17.5t-29.5 -66.5l-340 -1671l-6 -43q0 -45 114 -45h150l-8 -35h-412z" />
<glyph unicode="\" horiz-adv-x="641" d="M248 1450h76l213 -1939h-74z" />
<glyph unicode="]" horiz-adv-x="663" d="M-160 -477l8 37h199q45 0 64.5 17t29.5 67l340 1671q6 25 6 43q2 25 -24.5 35t-89.5 10h-150l6 35h412l-389 -1915h-412z" />
<glyph unicode="^" horiz-adv-x="1024" d="M0 588l565 846h13l544 -846h-71l-424 649l-432 -649h-195z" />
<glyph unicode="_" horiz-adv-x="1024" d="M0 -180h1024v-82h-1024v82z" />
<glyph unicode="`" horiz-adv-x="1024" d="M391 1460h156l229 -475h-41z" />
<glyph unicode="a" horiz-adv-x="878" d="M29 199q0 143 89 293.5t240 265.5q84 61 188.5 100t190.5 39q14 0 49 -4l-131 -643q-16 -80 -16 -117q0 -33 20 -33q29 0 125 115v-53q-166 -188 -229 -189q-27 0 -43 28t-16 73q0 70 30 207q-295 -307 -372 -308q-49 0 -87 69t-38 157zM164 246q0 -66 20.5 -114 t48.5 -48q51 0 308 262l88 438q-160 -12 -252 -75q-94 -66 -153.5 -195t-59.5 -268z" />
<glyph unicode="b" horiz-adv-x="860" d="M104 172q0 53 15 123l205 1001q6 35 6 43q0 16 -15 17q-23 0 -82 -37l-18 31l186 106q41 23 62 23q27 0 26 -27q0 -2 -3 -13.5t-3 -17.5l-168 -833q115 119 234 214t153 95q41 0 79 -98.5t38 -202.5q0 -162 -71.5 -302t-204.5 -235q-117 -86 -230 -86q-94 0 -151.5 54.5 t-57.5 144.5zM238 147q0 -57 29.5 -93t76.5 -36q88 0 164 76q74 78 122 207t48 250q0 98 -20.5 162.5t-53.5 64.5q-66 0 -303 -258l-45 -225q-18 -85 -18 -148z" />
<glyph unicode="c" horiz-adv-x="608" d="M31 201q0 106 43 235t114 238q150 223 328 223q51 0 82 -21.5t31 -58.5q0 -29 -16.5 -48t-41.5 -19q-35 0 -102 38q-37 18 -61 19q-78 0 -144 -158q-96 -236 -96 -424q0 -78 35 -122t94 -44q109 0 219 138l29 -23q-80 -92 -168 -146.5t-158 -54.5q-84 0 -136 63t-52 165z " />
<glyph unicode="d" horiz-adv-x="862" d="M37 236q0 147 69.5 293.5t192.5 256.5q121 111 205 111t135 -76l100 492l4 24q0 18 -14 19q-16 0 -127 -62l-18 -8l-17 33l248 137q41 23 59 23q27 0 27 -27q0 -4 -4 -29l-258 -1267q-4 -29 -4 -35q0 -23 16 -23q29 0 123 135l29 -20q-61 -96 -143 -168t-127.5 -72 t-45.5 66q0 43 17 119l33 159q-266 -344 -377 -344q-53 0 -88 74t-35 189zM174 252q0 -78 20.5 -125t55.5 -47q37 0 125 94t180 234l61 297q-51 129 -141 129q-86 0 -172 -150q-129 -219 -129 -432z" />
<glyph unicode="e" horiz-adv-x="720" d="M39 272q0 242 162 445q143 180 325 180q82 0 128 -38t46 -105q0 -129 -200 -238q-90 -49 -303 -117q-14 -76 -15 -133q0 -98 44 -154.5t122 -56.5q98 0 252 115l18 -29q-94 -76 -193 -122t-169 -46q-92 0 -154.5 86t-62.5 213zM207 440q213 68 278 121q88 74 88 195 q0 96 -79 96q-86 0 -156 -86q-63 -80 -131 -326z" />
<glyph unicode="f" horiz-adv-x="503" d="M-446 -412q0 27 21.5 47.5t49.5 20.5q39 0 115 -57q55 -39 92 -39q49 0 98.5 34.5t75.5 88.5q61 121 117 440l121 676h-156l8 41q2 0 26.5 3t45.5 7q23 4 88 20q16 104 61 221t95 189q66 92 151.5 145.5t171.5 53.5q66 0 112 -31t46 -74q0 -27 -18.5 -45t-45.5 -18 q-39 0 -114 55q-49 35 -80 35q-98 0 -158 -144q-29 -68 -65 -272l-21 -115h187l-21 -71h-178l-100 -568q-37 -209 -74 -309q-76 -207 -202 -320.5t-282 -113.5q-68 0 -117.5 29.5t-49.5 70.5z" />
<glyph unicode="g" horiz-adv-x="798" d="M-215 -338q0 55 88 121.5t307 173.5q-27 35 -26 63q0 61 102 119q-84 41 -132 119t-48 172q0 84 53 179.5t143 172.5q131 115 285 115q4 0 164 -10l92 -6v-103l-123 13q47 -113 47 -195q0 -84 -39 -165t-104 -134q-109 -86 -256 -152q-86 -37 -86 -71q0 -23 32.5 -52.5 t118.5 -84.5q154 -96 209.5 -149.5t55.5 -100.5q0 -84 -136.5 -141.5t-336.5 -57.5q-180 0 -295 49t-115 125zM-88 -315q0 -70 81 -115t208 -45q147 0 245.5 32.5t98.5 84.5q0 35 -74 86q-184 127 -246 180l-20 18q-293 -128 -293 -241zM217 412q0 -84 41 -145.5t96 -61.5 q88 0 163 129t75 282q0 102 -36 163t-95 61q-102 0 -178 -166q-66 -147 -66 -262z" />
<glyph unicode="h" horiz-adv-x="991" d="M66 -4q0 4 4 24l264 1291q4 25 4 26q0 16 -14 17q-23 0 -109 -49l-18 32l213 119q39 23 59 23q27 0 27 -29q0 -14 -2 -23l-201 -991q160 215 294 338t206 123q37 0 59 -35t22 -90q0 -57 -20 -139l-127 -486q-8 -33 -8 -38q0 -20 18 -21q43 0 172 148l23 -23 q-76 -98 -161 -169t-130 -71q-57 0 -57 84q0 57 18 131l113 441q20 78 20 121q0 49 -33 49q-47 0 -168.5 -127t-259.5 -320l-63 -303q-12 -55 -23.5 -64.5t-70.5 -9.5q-51 1 -51 21z" />
<glyph unicode="i" horiz-adv-x="532" d="M100 686q190 211 265 211q43 0 43 -55q0 -20 -9 -70l-123 -612q-6 -25 -6 -47q0 -25 19 -25q33 0 139 135l27 -24q-61 -84 -146.5 -155t-124.5 -71q-59 0 -59 78q0 37 10 84l111 549q12 66 12 68q0 14 -12 14q-10 0 -17.5 -5t-28.5 -27l-65 -64l-12 -13zM352 1198 q0 66 32 117t71 51q27 0 42 -20q14 -18 13 -46q0 -74 -32 -123q-30 -46 -70 -47q-56 0 -56 68z" />
<glyph unicode="j" horiz-adv-x="512" d="M-342 -410q0 29 17.5 47.5t45.5 18.5q23 0 40.5 -9t68.5 -50q43 -35 80 -35q66 0 114 88t87 284l157 779q2 8 2 24q0 20 -16 20.5t-42 -21t-95 -91.5l-25 23q80 96 164 163.5t123 67.5q45 0 45 -61q0 -25 -14 -101l-136 -669q-57 -295 -235 -476q-98 -100 -238 -100 q-66 0 -104.5 26.5t-38.5 71.5zM371 1198q0 66 30.5 117t71.5 51q25 0 41 -20q15 -18 15 -47q0 -73 -32 -122q-30 -46 -71 -47q-55 0 -55 68z" />
<glyph unicode="k" horiz-adv-x="999" d="M74 -8q0 10 2 18l268 1315v8q0 20 -14 21q-23 0 -99 -45l-18 32l215 119q37 18 53 19q10 0 17.5 -9.5t5.5 -21.5l-185 -905q190 170 304 248q152 104 194 104q49 0 88 -53.5t39 -120.5q0 -78 -51 -142.5t-137 -99.5q-121 -47 -303 -57q72 -74 168 -203q88 -119 200 -133 l99 96l24 -22l-186 -187q-141 0 -295 240q-96 152 -168 209l-80 -399q-8 -37 -18.5 -43.5t-63.5 -6.5q-59 1 -59 19zM303 459q25 -2 53 -2q213 0 322 51q59 29 98 88t39 119q0 35 -21.5 60.5t-52.5 25.5q-45 0 -175 -96.5t-259 -225.5z" />
<glyph unicode="l" horiz-adv-x="483" d="M96 72q0 29 8 78l238 1159q4 16 4 28q0 16 -14 17q-20 0 -133 -62l-19 33l211 119q63 35 86 35q27 0 27 -29q0 -8 -6 -35l-262 -1292q-4 -29 -5 -37q0 -27 21 -27q35 0 154 134l26 -23q-166 -199 -262 -199q-35 0 -54.5 28t-19.5 73z" />
<glyph unicode="m" horiz-adv-x="1482" d="M92 662q82 102 160 168.5t115 66.5q35 0 34 -45q0 -10 -4 -35l-86 -420q127 201 277.5 350.5t228.5 149.5q27 0 43.5 -26.5t16.5 -69.5q0 -45 -25 -166l-43 -219q145 219 287 348q139 129 204 129q29 0 46.5 -25.5t17.5 -66.5q0 -37 -10 -86l-119 -580q-4 -18 -4 -31 q0 -10 10 -10q29 0 148 144l28 -21q-84 -109 -161.5 -175.5t-120.5 -66.5q-49 0 -50 60q0 35 7 61l129 633q6 29 6 45.5t-15 16.5q-20 0 -78.5 -47.5t-113.5 -108.5q-215 -236 -248 -397l-35 -175q-14 -66 -20 -77q-8 -10 -64 -11h-36q-9 0 -17 2.5t-9 6.5t-1 12q0 16 6 41 l141 694l4 41q0 20 -18 21q-37 0 -131 -95.5t-197 -236.5q-98 -137 -129 -287l-28 -139q-8 -45 -20.5 -52.5t-70.5 -7.5q-51 0 -51 23q0 16 8 51l132 645q6 27 6 35q0 16 -15 16q-18 0 -112 -110z" />
<glyph unicode="n" horiz-adv-x="1024" d="M80 627q61 96 151.5 183t128.5 87q14 0 25.5 -12.5t11.5 -28.5q0 -31 -6 -61l-76 -369q373 471 506 471q39 0 62.5 -34t23.5 -91q0 -59 -18 -129l-129 -489q-14 -53 -14.5 -72t14.5 -19q33 0 190 185l25 -21q-197 -254 -305 -254q-27 0 -44.5 25t-17.5 63q0 31 10 72 l140 547q10 39 10 59q0 25 -10 41.5t-27 16.5q-33 0 -84 -47q-186 -184 -346 -402l-70 -334q-6 -29 -13 -34t-46 -5q-53 0 -65.5 4.5t-12.5 18.5q0 10 2 14l140 688q4 12 4 21q0 14 -11 14q-29 -4 -123 -131z" />
<glyph unicode="o" horiz-adv-x="817" d="M51 317q0 125 63.5 243t178.5 208q164 129 272 129q70 0 131 -82q70 -96 70 -240q0 -301 -262 -489q-158 -113 -256 -113q-76 0 -136.5 105.5t-60.5 238.5zM195 328q0 -119 43 -197t106 -78q43 0 91 30t81 79q47 68 78 176t31 209q0 113 -49.5 189.5t-120.5 76.5 q-100 0 -180 -149.5t-80 -335.5z" />
<glyph unicode="p" horiz-adv-x="925" d="M-190 -512l8 41q117 4 157.5 45t67.5 172l186 911q12 57 13 78q0 16 -15 17q-37 0 -157 -154l-29 27q88 115 179 193.5t132 78.5q37 0 37 -61q0 -66 -14 -131l-33 -160q270 350 385 350q55 0 101 -99.5t46 -217.5q0 -231 -162.5 -418t-363.5 -187q-63 0 -119 21l-49 -248 q-20 -104 -20 -133q0 -51 51 -72q27 -10 121 -12l-8 -41h-514zM248 82q63 -55 139 -55q135 0 242.5 165.5t107.5 376.5q0 92 -28.5 155.5t-69.5 63.5q-37 0 -126 -92t-187 -233z" />
<glyph unicode="q" horiz-adv-x="884" d="M33 221q0 121 73.5 255t198.5 243q207 178 459 178q43 0 43 -27l-4 -20l-223 -1102q-25 -119 -25 -141q0 -41 39 -59.5t127 -18.5h14l-8 -41h-508l8 41q127 14 157 45t58 174l109 531q-37 -37 -45 -43q-276 -262 -346 -263q-49 0 -88 76t-39 172zM172 254q0 -168 78 -168 q66 0 315 264l88 432q-193 -6 -288 -84q-84 -70 -138.5 -193.5t-54.5 -250.5z" />
<glyph unicode="r" horiz-adv-x="595" d="M74 659q193 238 256 238q16 0 31.5 -19.5t15.5 -43.5q0 -47 -40 -226.5t-67 -273.5q-2 -6 -18 -64q0 -12 8 -12q6 -2 10 6t23 60q109 307 185.5 440t146.5 133q23 0 39 -19.5t16 -46.5q0 -41 -20.5 -74.5t-45.5 -33.5l-45 12q-49 -10 -77.5 -47t-77.5 -156 q-86 -215 -114 -297.5t-62 -228.5q-6 -23 -15.5 -28t-50.5 -5q-39 0 -53.5 4.5t-12.5 14.5l123 696q4 25 4 31q0 31 -20 31q-23 0 -115 -115z" />
<glyph unicode="s" horiz-adv-x="636" d="M-16 74q0 29 18 46t49 17q37 0 121 -53q68 -43 117 -43q51 0 87 34t36 81q0 72 -93 180l-81 98q-80 94 -80 172q0 98 101 194.5t206 96.5q51 0 91 -37t40 -82q0 -31 -16.5 -51t-42.5 -20q-23 0 -35.5 13t-44.5 68q-25 43 -68 43q-45 0 -89 -48t-44 -99q0 -57 74 -143 l76 -88q94 -113 94 -205q0 -125 -94.5 -200t-253.5 -75q-168 1 -168 101z" />
<glyph unicode="t" horiz-adv-x="565" d="M117 61q0 51 41 252l98 484h-113l9 37q168 70 321 321h37q-78 -145 -102 -281h172l-17 -77h-172l-135 -664q-6 -43 -6 -47q0 -29 22 -29q39 0 209 164l23 -26q-88 -96 -178 -159t-140 -63q-33 0 -51 23.5t-18 64.5z" />
<glyph unicode="u" horiz-adv-x="1019" d="M86 647q70 104 146.5 175t119.5 71q41 0 41 -57q0 -41 -10 -88l-107 -519q-10 -51 -10 -84q0 -39 29 -39q39 0 185.5 160t211.5 275q57 98 88 295q6 41 18.5 51t57.5 10q41 0 53.5 -4t12.5 -21q0 -14 -2 -22l-138 -678q-6 -29 -6 -33q0 -18 15 -18q27 0 139 133l26 -25 q-86 -106 -168.5 -181t-117.5 -75q-39 0 -39 62q0 111 84 469q-150 -203 -287 -342q-188 -188 -246 -189q-59 0 -59 121q0 43 18 135l97 476q4 20 4 22q0 14 -13 14q-27 0 -116 -110z" />
<glyph unicode="v" horiz-adv-x="874" d="M51 651q193 244 277 244q45 0 45 -70q0 -33 -15 -133l-84 -508q-8 -47 -8 -67q0 -39 23 -39q33 0 118 72.5t150 158.5q80 104 127 216t47 194q0 31 -26 45q-29 16 -29 37q0 29 37 62.5t69 33.5q41 0 69 -38t28 -95q0 -100 -99.5 -255t-271.5 -323q-219 -213 -313 -213 q-53 0 -54 105q0 90 17 194l63 392q6 33 6 51q0 33 -18 33q-25 0 -131 -121z" />
<glyph unicode="w" horiz-adv-x="1343" d="M43 635q197 262 281 262q39 0 38 -66q0 -33 -12 -118l-76 -518q-8 -57 -8 -93q0 -33 27 -32q41 0 168 138t239 304l43 299q8 55 21.5 69.5t54.5 14.5q35 0 46.5 -8t11.5 -31q0 -25 -7 -68l-94 -604q-8 -45 -8 -78q0 -39 25 -38q29 0 116 84q156 154 236 317 q72 143 72 240q0 33 -33 61q-16 14 -17 33q0 33 32 62.5t67 29.5q39 0 64.5 -35t25.5 -88q0 -238 -404 -629q-176 -170 -258 -170q-59 0 -59 86q0 47 14 140l35 225q-106 -158 -258 -309q-139 -139 -223 -140q-31 0 -49.5 25t-18.5 66q0 78 15 167l57 392q10 72 10 92 q0 25 -16 24q-27 0 -129 -129z" />
<glyph unicode="x" horiz-adv-x="1075" d="M16 51q0 57 52 193h41q6 -72 20 -96.5t53 -24.5q82 0 203 153l102 127l-110 283q-23 57 -41.5 78.5t-42.5 21.5q-29 0 -61.5 -35.5t-88.5 -129.5l-37 20q88 145 141.5 200.5t106.5 55.5q45 0 75 -35t67 -131l82 -213l92 123q188 254 278 254q41 0 67.5 -30.5t26.5 -80.5 q0 -35 -16 -98h-41q-4 88 -84 88q-84 0 -184 -133l-121 -162l94 -241q55 -141 96 -142q29 0 55.5 33t71.5 125l33 -16q-125 -264 -227 -265q-47 0 -72 41q-18 25 -53 115l-90 229l-101 -120q-219 -262 -323 -263q-64 0 -64 76z" />
<glyph unicode="y" horiz-adv-x="960" d="M8 -500l15 35q92 2 120.5 16.5t57.5 69.5q98 197 137 310.5t39 209.5q0 231 -86 559q-25 92 -49 93q-20 0 -49 -30t-99 -120l-28 19q170 233 249 233q57 0 109 -211q66 -268 72 -610q109 199 155 301q129 274 129 358q0 16 -10 31q-16 23 -16 49q0 35 25.5 59.5 t60.5 24.5q39 0 62.5 -29.5t23.5 -79.5q0 -121 -230 -462q-106 -158 -138 -220.5t-105 -238.5l-86 -209q-29 -70 -29 -80q0 -39 106 -41q18 0 33 -2l-16 -35h-453z" />
<glyph unicode="z" horiz-adv-x="1056" d="M14 8q0 33 39 94.5t90 110.5q66 66 161 126t353 204q133 74 184.5 111.5t92.5 93.5q-129 -68 -238 -68q-88 0 -217 63q-109 51 -151 52q-82 0 -160 -107l-27 19q139 186 291 186q51 0 89 -13.5t124 -60.5q121 -68 180 -67q117 0 138 92q10 53 36 53q31 0 31 -35 q0 -78 -121 -194q-72 -70 -140.5 -113t-408.5 -238q-164 -94 -221 -155q100 49 199 49q66 0 107.5 -14.5t183.5 -87.5q57 -29 104 -29q90 0 168 117l29 -21q-61 -92 -135 -146.5t-140 -54.5q-43 0 -79.5 14.5t-141.5 69.5q-145 80 -225 80q-102 0 -109 -76q-8 -90 -55 -90 q-31 0 -31 35z" />
<glyph unicode="{" horiz-adv-x="663" d="M66 496l6 26q119 12 154.5 56.5t70.5 209.5l76 369q35 172 117.5 226.5t300.5 54.5h36l-6 -37q-145 0 -218 -53.5t-97 -171.5l-94 -461q-18 -90 -63.5 -136.5t-133.5 -66.5l-2 -6q121 -25 121 -137q0 -29 -12 -99l-99 -483q-10 -51 -10 -84q0 -92 76 -123q43 -20 157 -20 l-8 -37q-143 0 -202 8q-74 8 -114 51t-40 115q0 31 16 113l80 393q33 162 33 188q0 76 -68 94q-26 9 -77 11z" />
<glyph unicode="|" horiz-adv-x="1024" d="M510 -342v1708h102v-1708h-102z" />
<glyph unicode="}" horiz-adv-x="663" d="M-147 -477l8 37q147 -2 218 49t97 178l98 483q23 109 68 162t135 74l2 6q-66 16 -94.5 48t-28.5 85q0 25 9 70l92 461q10 47 10 75q0 94 -88 131q-39 16 -143 19l6 37l108 -2q111 -2 156 -21q90 -35 90 -143q0 -45 -12 -115l-76 -369q-29 -139 -29 -163q0 -94 148 -103 l-6 -26q-100 -2 -140 -39q-37 -33 -49 -66t-43 -188l-80 -393q-23 -106 -58.5 -164t-105.5 -90q-65 -31 -292 -33z" />
<glyph unicode="~" horiz-adv-x="1366" d="M299 1276q119 197 285 197q59 0 186 -46q109 -37 162 -36q113 0 205 112l26 -18q-47 -84 -126 -138.5t-152 -54.5q-39 0 -193 49q-121 37 -178 37q-53 0 -88 -22.5t-98 -98.5z" />
<glyph unicode="&#xa1;" horiz-adv-x="641" d="M39 -473q0 14 6 37l270 960h43l-131 -958q-8 -55 -18 -66.5t-57 -11.5h-46q-41 0 -54 8t-13 31zM295 768q0 55 29.5 92t74.5 37q39 0 62.5 -27.5t23.5 -72.5q0 -53 -29.5 -90t-74.5 -37q-39 0 -62.5 26.5t-23.5 71.5z" />
<glyph unicode="&#xa2;" d="M252 201q0 193 112.5 398.5t256.5 270.5l104 551h37l-105 -538q49 14 80 14q113 0 113 -80q0 -31 -15.5 -49t-39.5 -18q-33 0 -105 38q-27 14 -47 17l-143 -744q10 -2 20 -2q104 0 219 138l29 -23q-66 -78 -145.5 -132t-139.5 -62l-90 -472h-35l91 467q-92 0 -144.5 61 t-52.5 165zM389 225q0 -119 78 -155l139 733q-45 -10 -84 -72q-51 -86 -92 -241.5t-41 -264.5z" />
<glyph unicode="&#xa3;" horiz-adv-x="1193" d="M0 -14q0 55 88 118q20 14 117 54q55 63 143 288h-239l10 56h250q117 295 172 412.5t137 246.5q162 258 360 258q66 0 111 -29.5t45 -74.5q0 -29 -25.5 -49.5t-58.5 -20.5q-29 0 -46 14.5t-40 55.5q-23 39 -55 39q-59 0 -110.5 -77t-149.5 -314q-117 -276 -209 -461h301 l-10 -56h-320q-90 -162 -186 -282q193 0 360 -88q119 -61 176 -62q45 0 76 32t31 79q0 25 -37 88q-12 23 -12 43q0 27 22.5 48.5t50.5 21.5q37 0 58.5 -31t21.5 -84q0 -113 -79 -191.5t-191 -78.5q-70 0 -129.5 22.5t-159.5 85.5q-109 70 -190 70q-23 0 -39 -2 q-111 -184 -189 -185q-23 0 -39 15.5t-16 38.5z" />
<glyph unicode="&#xa4;" d="M139 266l135 135q-98 121 -98 269q0 150 98 266l-135 135l43 45l137 -137q115 100 266.5 100t266.5 -100l137 137l43 -45l-135 -135q98 -117 98 -266q0 -145 -98 -269l135 -135l-43 -43l-135 135q-119 -98 -268 -98q-145 0 -269 98l-135 -135zM291 670q0 -121 86 -208 t205 -87q125 0 212 86t87 207q0 123 -86 210t-209 87t-209 -87t-86 -208z" />
<glyph unicode="&#xa5;" d="M158 754l10 55h268l-47 184h-182l10 56h160l-35 137q-18 74 -53 108.5t-96 36.5l6 35h397l-6 -35q-111 -6 -111 -69q0 -18 17 -80l34 -133h373l62 92q31 45 44 68.5t14 29.5t1 21q0 66 -117 71l6 35h326l-10 -35q-92 -27 -160 -133l-98 -149h147l-10 -56h-174l-123 -184 h258l-10 -55h-285l-121 -183l-73 -358q-10 -45 -11 -74q0 -104 138 -104h49l-6 -35h-562l7 35h34q100 0 146 49q27 29 47 129l74 358l-45 183h-293zM543 993l90 -354l233 354h-323z" />
<glyph unicode="&#xa6;" horiz-adv-x="1024" d="M510 313h102v-655h-102v655zM510 684v682h102v-682h-102z" />
<glyph unicode="&#xa7;" d="M-78 -408q2 39 23.5 69t50.5 32q20 2 42.5 -10.5t102.5 -63.5q63 -41 125 -41q100 0 169 97.5t69 236.5q0 84 -24.5 161t-100.5 230q-125 252 -125 424q0 182 104.5 357.5t272.5 285t342 109.5q80 0 140.5 -30t60.5 -69q0 -41 -23 -72.5t-53 -31.5q-37 0 -94 43 q-98 74 -179 74q-82 0 -134 -76t-52 -195q0 -174 119 -444q80 -182 104.5 -268t24.5 -183q0 -313 -303 -553q-109 -86 -231 -136t-226 -50q-88 0 -147.5 29.5t-57.5 74.5zM350 745q0 -137 66 -292q12 -31 94 -199q78 -160 78 -303q0 -115 -47 -213q252 195 252 477 q0 154 -111 397q-129 291 -129 463q0 74 25 162q-228 -248 -228 -492z" />
<glyph unicode="&#xa8;" horiz-adv-x="1024" d="M408 1192q0 33 24.5 56.5t57 23.5t56 -24.5t23.5 -57.5t-23.5 -56.5t-56.5 -23.5q-35 0 -58 24.5t-23 57.5zM758 1192q0 33 24.5 56.5t57 23.5t56.5 -24.5t24 -57.5t-24 -56.5t-56.5 -23.5t-57 24.5t-24.5 57.5z" />
<glyph unicode="&#xa9;" horiz-adv-x="1675" d="M164 682q0 297 212 508t511 211q301 0 511 -211t210 -512q0 -297 -214 -505t-520 -208q-291 0 -500.5 212t-209.5 505zM236 682q0 -266 189 -460.5t449 -194.5q276 0 469 189.5t193 461.5q0 274 -189.5 467.5t-460 193.5t-460.5 -192.5t-190 -464.5zM496 676 q0 158 114.5 261t292.5 103q100 0 199 -34q23 -8 37 -9q6 0 18 7h21l12 -164h-29q-27 76 -96.5 122t-157.5 46q-133 0 -216 -86t-83 -224q0 -141 90 -237t224 -96q176 0 270 155h29q-18 -74 -76 -168q-10 4 -24.5 4t-96.5 -16q-72 -14 -135 -14q-170 0 -281.5 99t-111.5 251 z" />
<glyph unicode="&#xaa;" horiz-adv-x="614" d="M98 657l11 56h507l-12 -56h-506zM176 971q0 147 140.5 282.5t293.5 135.5q14 0 35 -3l-86 -428q-4 -20 -4 -26q0 -16 10 -17q16 0 80 74v-43q-100 -115 -143 -115q-41 0 -41 64q0 27 16 111q-172 -174 -219 -175q-33 0 -57.5 42.5t-24.5 97.5zM266 999q0 -39 12.5 -66.5 t28.5 -27.5q33 0 180 154l54 254q-88 -6 -148 -43q-57 -39 -92 -114t-35 -157z" />
<glyph unicode="&#xab;" horiz-adv-x="960" d="M164 479l422 408h45l-316 -408l134 -403h-52zM535 479l344 359h47l-236 -359l62 -350h-47z" />
<glyph unicode="&#xac;" horiz-adv-x="1024" d="M123 467v80h876v-547h-182v467h-694z" />
<glyph unicode="&#xad;" horiz-adv-x="733" d="M102 367l29 137h496l-29 -137h-496z" />
<glyph unicode="&#xae;" horiz-adv-x="1675" d="M164 682q0 297 212 508t511 211q301 0 511 -211t210 -512q0 -297 -214 -505t-520 -208q-291 0 -500.5 212t-209.5 505zM236 682q0 -266 189 -460.5t449 -194.5q276 0 469 189.5t193 461.5q0 274 -189.5 467.5t-460 193.5t-460.5 -192.5t-190 -464.5zM494 342v29h24 q51 0 72 20q14 16 14 92v402q0 76 -15.5 93t-82.5 17h-10v29q133 10 266 10q158 0 233 -45q88 -55 88 -151q0 -90 -69 -140q-10 -6 -74 -39q68 -53 178 -161q76 -76 132.5 -107t121.5 -35v-26h-41q-119 0 -174 25.5t-166 131.5q-131 123 -160 142q-29 -4 -69 -4q-33 0 -57 2 v-144q0 -76 14 -92q20 -20 69 -20h31v-29h-325zM705 655q49 -4 53 -4q213 0 213 178.5t-221 178.5q-31 0 -45 -4v-349z" />
<glyph unicode="&#xaf;" horiz-adv-x="1024" d="M356 1184l17 104h620l-16 -104h-621z" />
<glyph unicode="&#xb0;" horiz-adv-x="602" d="M246 1184q0 84 60.5 143t146.5 59q84 0 143 -60t59 -144t-59 -144.5t-143 -60.5q-86 0 -146.5 60.5t-60.5 146.5zM295 1183.5q0 -63.5 46 -109.5t109.5 -46t109.5 45t46 107q0 66 -46 111.5t-111 45.5q-63 0 -108.5 -45t-45.5 -108.5z" />
<glyph unicode="&#xb1;" horiz-adv-x="1120" d="M104 104v68h902v-68h-902zM104 666v67h418v397h68v-397h416v-67h-418v-398h-66v398h-418z" />
<glyph unicode="&#xb2;" horiz-adv-x="692" d="M100 801v24l119 115q215 209 296 319.5t81 196.5q0 53 -37 87t-96 34q-141 0 -201 -162h-33q18 102 89 164.5t171 62.5q98 0 160 -53t62 -137q0 -72 -53.5 -135.5t-243.5 -241.5l-193 -178h309q31 0 41.5 9t18.5 48l4 23h33l-31 -176h-496z" />
<glyph unicode="&#xb3;" horiz-adv-x="692" d="M106 838q0 20 14.5 34.5t35.5 14.5q12 0 41 -15q55 -31 102 -30q84 0 154.5 92t70.5 199q0 57 -31.5 93t-80.5 36q-37 0 -117 -41l8 41q137 78 197.5 133t60.5 102q0 37 -28.5 62.5t-69.5 25.5q-72 0 -148 -90l-24 18q80 129 213 129q72 0 119 -36.5t47 -94.5 q0 -109 -185 -180q154 -12 154 -162q0 -139 -136 -262t-290 -123q-47 0 -77 15.5t-30 38.5z" />
<glyph unicode="&#xb4;" horiz-adv-x="1024" d="M449 985l233 475h149l-337 -475h-45z" />
<glyph unicode="&#xb5;" horiz-adv-x="1019" d="M-96 -317q0 31 41 145q137 397 209 747l65 322h137l-112 -547q-18 -86 -19 -145q0 -66 40 -105t106 -39q76 0 144.5 39t148.5 129l135 668h135l-133 -659q-14 -78 -15 -93q0 -63 62 -63q31 0 67 22l-6 -30l-178 -94l-8 -3q-25 0 -49 25q-23 25 -23 88q0 4 4 62 q-139 -111 -208.5 -147t-149.5 -36q-115 0 -160 80q-20 35 -26 103q-27 -121 -33 -177l-12 -163q-14 -199 -105 -199q-57 0 -57 70z" />
<glyph unicode="&#xb6;" d="M133 -492l8 41q111 8 148 49.5t65 188.5l168 823h-39q-152 0 -232.5 82t-80.5 234q0 141 67.5 272t176.5 197q104 66 268 65h555l-8 -41q-111 -8 -148 -49t-65 -188l-283 -1395q-25 -119 -24 -141q0 -47 31.5 -69.5t107.5 -27.5l-8 -41h-707zM401 -426h197l371 1821h-195 z" />
<glyph unicode="&#xb7;" horiz-adv-x="641" d="M248 625q0 45 32.5 76.5t77.5 31.5t78 -32.5t33 -77.5t-33 -78t-78 -33q-47 0 -78.5 33t-31.5 80z" />
<glyph unicode="&#xb8;" horiz-adv-x="1024" d="M152 -414l6 35q20 -2 43 -2q90 0 142 35t52 98q0 80 -110 86l84 162h34l-28 -59q53 -2 89 -43t36 -103q0 -98 -79 -154.5t-216 -56.5q-30 0 -53 2z" />
<glyph unicode="&#xb9;" horiz-adv-x="692" d="M240 803l6 28h45q43 0 56 12.5t24 61.5l123 604q-127 -96 -230 -131l8 45q182 74 297 217h56l-148 -725q-4 -16 -4 -34q0 -27 19.5 -36t80.5 -14l-6 -28h-327z" />
<glyph unicode="&#xba;" horiz-adv-x="614" d="M98 657l11 56h507l-12 -56h-506zM223 1040q0 158 148 271q102 78 168 78q51 0 89 -59.5t38 -137.5q0 -180 -160 -293q-100 -68 -160 -68q-47 0 -85 63.5t-38 145.5zM319 1049q0 -70 26 -116t63 -46q63 0 113 87t50 197q0 66 -29.5 112t-70.5 46q-57 0 -104.5 -85.5 t-47.5 -194.5z" />
<glyph unicode="&#xbb;" horiz-adv-x="960" d="M51 125l236 358l-62 351h47l168 -351l-342 -358h-47zM344 76l315 407l-131 404h52l233 -404l-422 -407h-47z" />
<glyph unicode="&#xbc;" horiz-adv-x="1615" d="M229 0l1248 1366h90l-1245 -1366h-93zM240 547l6 28h43q45 0 58 12.5t24 61.5l123 604q-125 -96 -232 -131l10 45q184 74 295 217h58l-148 -725q-6 -29 -6 -34q0 -27 19.5 -36t82.5 -14l-6 -28h-327zM975 248v51l498 541h43l-105 -514h123l-16 -78h-123l-54 -266h-104 l53 266h-315zM1053 326h254l71 352z" />
<glyph unicode="&#xbd;" horiz-adv-x="1615" d="M188 0l1248 1366h90l-1245 -1366h-93zM240 547l6 28h43q45 0 58 12.5t24 61.5l123 604q-125 -96 -232 -131l10 45q184 74 295 217h58l-148 -725q-6 -29 -6 -34q0 -27 19.5 -36t82.5 -14l-6 -28h-327zM913 0v25l119 114q209 203 293 316.5t84 199.5q0 53 -37 86t-96 33 q-141 0 -201 -160h-33q18 102 89 164t172 62q98 0 159.5 -52.5t61.5 -136.5q0 -72 -54.5 -139.5t-242.5 -239.5l-193 -176h309q31 0 42.5 9.5t17.5 46.5l4 22h33l-31 -174h-496z" />
<glyph unicode="&#xbe;" horiz-adv-x="1615" d="M106 582q0 20 14.5 34.5t35.5 14.5q12 0 41 -15q55 -31 102 -30q84 0 154.5 92t70.5 199q0 57 -31.5 93t-80.5 36q-37 0 -117 -41l8 41q137 78 197.5 133t60.5 102q0 37 -28.5 62.5t-69.5 25.5q-72 0 -148 -90l-24 18q80 129 213 129q72 0 119 -36.5t47 -94.5 q0 -109 -185 -180q154 -12 154 -162q0 -139 -136 -262t-290 -123q-47 0 -77 15.5t-30 38.5zM215 0l1247 1366h90l-1245 -1366h-92zM973 299l500 541h43l-105 -514h121l-14 -78h-123l-56 -266h-104l55 266h-315zM1053 326h254l71 352z" />
<glyph unicode="&#xbf;" horiz-adv-x="870" d="M27 -172q0 143 63 252q51 86 178 143q106 49 153.5 111.5t78.5 193.5h43q-23 -225 -72 -316t-178 -159q-104 -55 -148.5 -108.5t-44.5 -122.5q0 -76 55.5 -125t139.5 -49q51 0 135 24q31 10 45 11q25 0 40 -24t15 -58q0 -47 -56 -80t-140 -33q-135 0 -221 95t-86 245z M483 768q0 53 30 91t75 38q37 0 60.5 -27.5t23.5 -72.5q0 -53 -30 -90t-75 -37q-39 0 -61.5 26.5t-22.5 71.5z" />
<glyph unicode="&#xc0;" horiz-adv-x="1533" d="M-106 0l8 39q80 10 133 50t139 153l889 1159h115l10 -1233q0 -72 36 -97.5t136 -29.5l12 -2l-8 -39h-586l6 39q127 -2 179.5 39t52.5 143l-2 375h-494l-287 -371q-39 -49 -38 -92q0 -57 51 -76q43 -16 131 -18l-8 -39h-475zM582 674h430l-4 565zM819 1810h178l181 -325 h-45z" />
<glyph unicode="&#xc1;" horiz-adv-x="1533" d="M-106 0l8 39q80 10 133 50t139 153l889 1159h115l10 -1233q0 -72 36 -97.5t136 -29.5l12 -2l-8 -39h-586l6 39q127 -2 179.5 39t52.5 143l-2 375h-494l-287 -371q-39 -49 -38 -92q0 -57 51 -76q43 -16 131 -18l-8 -39h-475zM582 674h430l-4 565zM1073 1485l189 321h174 l-320 -321h-43z" />
<glyph unicode="&#xc2;" horiz-adv-x="1533" d="M-106 0l8 39q80 10 133 50t139 153l889 1159h115l10 -1233q0 -72 36 -97.5t136 -29.5l12 -2l-8 -39h-586l6 39q127 -2 179.5 39t52.5 143l-2 375h-494l-287 -371q-39 -49 -38 -92q0 -57 51 -76q43 -16 131 -18l-8 -39h-475zM582 674h430l-4 565zM797 1497l317 305h139 l185 -305h-41l-228 205l-325 -205h-47z" />
<glyph unicode="&#xc3;" horiz-adv-x="1533" d="M-106 0l8 39q80 10 133 50t139 153l889 1159h115l10 -1233q0 -72 36 -97.5t136 -29.5l12 -2l-8 -39h-586l6 39q127 -2 179.5 39t52.5 143l-2 375h-494l-287 -371q-39 -49 -38 -92q0 -57 51 -76q43 -16 131 -18l-8 -39h-475zM582 674h430l-4 565zM795 1481 q10 100 69.5 158.5t149.5 58.5q76 0 192 -60q102 -55 148 -55q41 0 74.5 33t44.5 80h45q-12 -100 -70.5 -157.5t-147.5 -57.5q-82 0 -200 59q-102 51 -148 51q-43 0 -73.5 -29.5t-40.5 -80.5h-43z" />
<glyph unicode="&#xc4;" horiz-adv-x="1533" d="M-106 0l8 39l8 2q74 10 126 50t138 151l889 1159h115l10 -1233q0 -72 36 -97.5t136 -29.5l12 -2l-8 -39h-586l6 39q127 -2 179.5 39t52.5 143l-2 375h-494l-287 -371q-39 -49 -38 -92q0 -59 51 -76q45 -16 131 -18l-8 -39h-475zM582 674h430l-4 565zM788 1585 q0 37 27 63.5t66 26.5q37 0 63.5 -26.5t26.5 -63.5q0 -39 -26.5 -65.5t-63.5 -26.5q-39 0 -66 26.5t-27 65.5zM1268 1585q0 37 26.5 63.5t65.5 26.5q37 0 63.5 -26.5t26.5 -65.5q0 -37 -26.5 -63.5t-63.5 -26.5q-39 0 -65.5 26.5t-26.5 65.5z" />
<glyph unicode="&#xc5;" horiz-adv-x="1533" d="M-106 0l8 39l8 2q74 10 126 50t138 151l879 1144q-74 16 -121 75t-47 134q0 88 63.5 150.5t151.5 62.5t150.5 -62.5t62.5 -150.5q0 -66 -36 -120t-99 -80l10 -1227q0 -72 36 -97.5t136 -29.5l12 -2l-8 -39h-586l6 39q127 -2 179.5 39t52.5 143l-2 375h-494l-287 -371 q-39 -49 -38 -92q0 -59 51 -76q45 -16 131 -18l-8 -39h-475zM582 674h430l-4 565zM940 1595.5q0 -65.5 46 -112.5t114 -47q63 0 110 46t47 111.5t-46 112.5t-111.5 47t-112.5 -46t-47 -111.5z" />
<glyph unicode="&#xc6;" horiz-adv-x="2043" d="M-135 0l8 39q92 8 166 71.5t237 268.5l687 856q23 27 22 45q0 20 -33.5 29.5t-128.5 15.5l15 41h1175l-61 -303h-39v33q0 115 -53.5 165t-178.5 50h-409l-119 -590h440q162 0 215 149h37l-80 -389h-36q2 12 2 25q0 94 -46.5 127t-177.5 33h-366l-94 -461q-4 -16 -5 -43 q0 -61 44 -84t161 -23h142q190 0 331 95q88 57 150 151h37l-109 -301h-1149l8 41h7q113 0 161 55q33 35 54 142l63 307h-463l-235 -295q-70 -86 -70 -131q0 -49 49 -68q27 -10 101 -12l-9 -39h-450zM524 600h428l148 725z" />
<glyph unicode="&#xc7;" horiz-adv-x="1617" d="M160 582q0 344 279.5 581.5t684.5 237.5q279 0 480 -101l-82 -327h-41q6 39 6 65q0 147 -99.5 228.5t-279.5 81.5q-279 0 -508 -207q-119 -104 -183.5 -257t-64.5 -323q0 -250 130 -396.5t354 -146.5q166 0 316.5 87.5t254.5 242.5h43l-111 -344h-20q-37 12 -78 12 q-35 0 -127 -18q-182 -33 -299 -33l-33 -53q72 -2 120 -47t48 -111q0 -111 -105.5 -174t-289.5 -63q-39 0 -70 2l7 37h26q127 0 199 26q94 39 94 119q0 88 -145 98l102 168q-111 6 -193 31q-190 61 -302.5 219t-112.5 365z" />
<glyph unicode="&#xc8;" horiz-adv-x="1382" d="M-18 0l10 39h10q111 0 162 55q31 33 53 144l182 890q12 61 13 93q0 102 -140 102h-55l10 43h1127l-62 -303h-35q2 23 3 43q0 109 -55.5 157t-182.5 48h-412l-121 -592h433q92 0 139 30.5t86 114.5h39l-80 -385h-37q2 14 2 33q0 88 -47 120t-176 32h-369l-94 -461 q-4 -29 -4 -43q0 -59 44 -83t161 -24h141q193 0 334 92q49 33 75.5 60.5t69.5 89.5h37l-98 -295h-1163zM592 1810h178l180 -325h-45z" />
<glyph unicode="&#xc9;" horiz-adv-x="1382" d="M-18 0l10 39h10q111 0 162 55q31 33 53 144l182 890q12 61 13 93q0 102 -140 102h-55l10 43h1127l-62 -303h-35q2 23 3 43q0 109 -55.5 157t-182.5 48h-412l-121 -592h433q92 0 139 30.5t86 114.5h39l-80 -385h-37q2 14 2 33q0 88 -47 120t-176 32h-369l-94 -461 q-4 -29 -4 -43q0 -59 44 -83t161 -24h141q193 0 334 92q49 33 75.5 60.5t69.5 89.5h37l-98 -295h-1163zM791 1485l188 321h174l-319 -321h-43z" />
<glyph unicode="&#xca;" horiz-adv-x="1382" d="M-18 0l10 39h10q111 0 162 55q31 33 53 144l182 890q12 61 13 93q0 102 -140 102h-55l10 43h1127l-62 -303h-35q2 23 3 43q0 109 -55.5 157t-182.5 48h-412l-121 -592h433q92 0 139 30.5t86 114.5h39l-80 -385h-37q2 14 2 33q0 88 -47 120t-176 32h-369l-94 -461 q-4 -29 -4 -43q0 -59 44 -83t161 -24h141q193 0 334 92q49 33 75.5 60.5t69.5 89.5h37l-98 -295h-1163zM530 1497l318 305h139l184 -305h-41l-227 205l-325 -205h-48z" />
<glyph unicode="&#xcb;" horiz-adv-x="1382" d="M-18 0l10 39h10q111 0 162 55q31 33 53 144l182 890q12 61 13 93q0 102 -140 102h-55l10 43h1127l-62 -303h-35q2 23 3 43q0 109 -55.5 157t-182.5 48h-412l-121 -592h433q92 0 139 30.5t86 114.5h39l-80 -385h-37q2 14 2 33q0 88 -47 120t-176 32h-369l-94 -461 q-4 -29 -4 -43q0 -59 44 -83t161 -24h141q193 0 334 92q49 33 75.5 60.5t69.5 89.5h37l-98 -295h-1163zM537 1585q0 37 26.5 63.5t65.5 26.5q37 0 63.5 -26.5t26.5 -63.5q0 -39 -26.5 -65.5t-63.5 -26.5q-39 0 -65.5 26.5t-26.5 65.5zM1049 1585q0 37 26.5 63.5t65.5 26.5 q37 0 63.5 -26.5t26.5 -65.5q0 -37 -26.5 -63.5t-63.5 -26.5q-39 0 -65.5 26.5t-26.5 65.5z" />
<glyph unicode="&#xcc;" horiz-adv-x="694" d="M-8 0l8 41h8q106 0 156 55q33 33 55 142l180 890q14 70 15 95q0 47 -37 74.5t-103 27.5h-28l8 41h549l-8 -41h-15q-104 0 -153 -55q-27 -29 -52 -142l-182 -890q-12 -63 -12 -78q0 -119 156 -119h30l-8 -41h-567zM248 1810h178l180 -325h-45z" />
<glyph unicode="&#xcd;" horiz-adv-x="694" d="M-8 0l8 41h8q106 0 156 55q33 33 55 142l180 890q14 70 15 95q0 47 -37 74.5t-103 27.5h-28l8 41h549l-8 -41h-15q-104 0 -153 -55q-27 -29 -52 -142l-182 -890q-12 -63 -12 -78q0 -119 156 -119h30l-8 -41h-567zM449 1485l188 321h174l-319 -321h-43z" />
<glyph unicode="&#xce;" horiz-adv-x="694" d="M-8 0l8 41h8q106 0 156 55q33 33 55 142l180 890q14 70 15 95q0 47 -37 74.5t-103 27.5h-28l8 41h549l-8 -41h-15q-104 0 -153 -55q-27 -29 -52 -142l-182 -890q-12 -63 -12 -78q0 -119 156 -119h30l-8 -41h-567zM227 1497l318 305h139l184 -305h-41l-227 205l-326 -205 h-47z" />
<glyph unicode="&#xcf;" horiz-adv-x="694" d="M-8 0l8 41h8q106 0 156 55q33 33 55 142l180 890q14 70 15 95q0 47 -37 74.5t-103 27.5h-28l8 41h549l-8 -41h-15q-104 0 -153 -55q-27 -29 -52 -142l-182 -890q-12 -63 -12 -78q0 -119 156 -119h30l-8 -41h-567zM274 1585q0 37 27 63.5t66 26.5q37 0 63.5 -26.5 t26.5 -63.5q0 -39 -27 -65.5t-63 -26.5q-39 0 -66 26.5t-27 65.5zM705 1585q0 37 26.5 63.5t65.5 26.5q37 0 63.5 -26.5t26.5 -65.5q0 -37 -26.5 -63.5t-63.5 -26.5q-39 0 -65.5 26.5t-26.5 65.5z" />
<glyph unicode="&#xd0;" horiz-adv-x="1675" d="M-12 0l8 39h22q94 0 146 51q20 20 29.5 47t29.5 127l84 406h-170l13 53h167l82 405q14 74 15 95q0 102 -140 102h-59l8 41h656q328 0 525.5 -167t197.5 -441q0 -211 -124 -396.5t-327 -279.5q-180 -82 -395 -82h-768zM387 180q0 -74 51 -101.5t191 -27.5q250 0 401 82 q172 94 272.5 265t100.5 370q0 164 -73 287t-210 190q-76 39 -161 53.5t-232 14.5h-115l-120 -590h399l-10 -53h-400l-88 -434q-6 -27 -6 -56z" />
<glyph unicode="&#xd1;" horiz-adv-x="1693" d="M0 0l8 41q96 12 142.5 66.5t72.5 179.5l197 960q-41 66 -191 80l9 39h294l818 -1151l178 875q10 55 10 90q0 70 -45 105.5t-141 41.5l10 39h446l-8 -39q-94 -12 -145 -65.5t-74 -167.5l-227 -1119h-54l-839 1205l-178 -879q-10 -57 -11 -90q0 -109 95 -152q27 -10 98 -18 l-8 -41h-457zM721 1501q10 100 69.5 158.5t149.5 58.5q76 0 193 -59q102 -55 147 -55q41 0 75 32.5t44 79.5h45q-12 -100 -70.5 -157.5t-146.5 -57.5q-82 0 -201 60q-102 51 -147 51q-43 0 -74 -30t-41 -81h-43z" />
<glyph unicode="&#xd2;" horiz-adv-x="1738" d="M162 608q0 164 81 327t218 273q240 193 540 193q283 0 477.5 -186.5t194.5 -454.5q0 -328 -248.5 -561.5t-599.5 -233.5q-203 0 -362 101q-141 90 -221 233t-80 309zM356 539q0 -231 130 -376t341 -145q119 0 234 50.5t192 138.5q106 117 167 280.5t61 335.5 q0 229 -131 377t-338 148q-248 0 -412 -168q-115 -115 -179.5 -286t-64.5 -355zM770 1810h178l180 -325h-45z" />
<glyph unicode="&#xd3;" horiz-adv-x="1738" d="M162 608q0 164 81 327t218 273q240 193 540 193q283 0 477.5 -186.5t194.5 -454.5q0 -328 -248.5 -561.5t-599.5 -233.5q-203 0 -362 101q-141 90 -221 233t-80 309zM356 539q0 -231 130 -376t341 -145q119 0 234 50.5t192 138.5q106 117 167 280.5t61 335.5 q0 229 -131 377t-338 148q-248 0 -412 -168q-115 -115 -179.5 -286t-64.5 -355zM969 1485l188 321h174l-319 -321h-43z" />
<glyph unicode="&#xd4;" horiz-adv-x="1738" d="M162 608q0 164 81 327t218 273q240 193 540 193q283 0 477.5 -186.5t194.5 -454.5q0 -328 -248.5 -561.5t-599.5 -233.5q-203 0 -362 101q-141 90 -221 233t-80 309zM356 539q0 -231 130 -376t341 -145q119 0 234 50.5t192 138.5q106 117 167 280.5t61 335.5 q0 229 -131 377t-338 148q-248 0 -412 -168q-115 -115 -179.5 -286t-64.5 -355zM750 1497l317 305h139l185 -305h-41l-228 205l-325 -205h-47z" />
<glyph unicode="&#xd5;" horiz-adv-x="1738" d="M162 608q0 164 81 327t218 273q240 193 540 193q283 0 477.5 -186.5t194.5 -454.5q0 -328 -248.5 -561.5t-599.5 -233.5q-203 0 -362 101q-141 90 -221 233t-80 309zM356 539q0 -231 130 -376t341 -145q119 0 234 50.5t192 138.5q106 117 167 280.5t61 335.5 q0 229 -131 377t-338 148q-248 0 -412 -168q-115 -115 -179.5 -286t-64.5 -355zM745 1481q10 100 69.5 158.5t150.5 58.5q76 0 192 -60q102 -55 148 -55q41 0 74.5 33t43.5 80h45q-12 -100 -70.5 -157.5t-146.5 -57.5q-82 0 -200 59q-102 51 -148 51q-43 0 -73.5 -29.5 t-41.5 -80.5h-43z" />
<glyph unicode="&#xd6;" horiz-adv-x="1738" d="M162 608q0 164 81 327t218 273q240 193 540 193q283 0 477.5 -186.5t194.5 -454.5q0 -328 -248.5 -561.5t-599.5 -233.5q-203 0 -362 101q-141 90 -221 233t-80 309zM356 539q0 -231 130 -376t341 -145q119 0 234 50.5t192 138.5q106 117 167 280.5t61 335.5 q0 229 -131 377t-338 148q-248 0 -412 -168q-115 -115 -179.5 -286t-64.5 -355zM731 1585q0 37 26.5 63.5t65.5 26.5q37 0 63.5 -26.5t26.5 -63.5q0 -39 -26.5 -65.5t-63.5 -26.5q-39 0 -65.5 26.5t-26.5 65.5zM1210 1585q0 37 27 63.5t66 26.5q37 0 63.5 -26.5t26.5 -65.5 q0 -37 -27 -63.5t-63 -26.5q-39 0 -66 26.5t-27 65.5z" />
<glyph unicode="&#xd7;" d="M225 379l320 319l-320 320l47 47l320 -320l319 320l47 -47l-319 -320l319 -319l-47 -47l-319 319l-320 -319z" />
<glyph unicode="&#xd8;" horiz-adv-x="1736" d="M162 610q0 317 250 554t583 237q211 0 391 -115l140 158l41 -31l-137 -158q244 -188 243 -495q0 -178 -84 -341t-235 -280q-231 -174 -531 -174q-233 0 -407 133l-185 -211l-41 31l187 213q-215 200 -215 479zM356 553q0 -201 90 -342l883 1010q-139 127 -323 127 q-244 0 -406 -168q-113 -115 -178.5 -285t-65.5 -342zM477 170q135 -152 350 -152q119 0 234 50.5t192 138.5q106 117 167 280.5t61 335.5q0 219 -115 359z" />
<glyph unicode="&#xd9;" horiz-adv-x="1601" d="M182 1325l8 41h558l-9 -41h-16q-104 0 -152 -55q-33 -35 -53 -142l-115 -563q-27 -135 -26 -211q0 -150 113.5 -243t297.5 -93q276 0 422 181q82 100 123 319l105 574q8 43 8 79q0 154 -199 154l10 41h451l-8 -41q-164 -20 -205 -246l-106 -577q-45 -254 -177 -381 q-162 -156 -456 -156q-305 0 -451 160q-100 113 -100 258q0 63 26 188l113 557q14 78 14 95q0 47 -36.5 74.5t-102.5 27.5h-37zM702 1810h179l180 -325h-45z" />
<glyph unicode="&#xda;" horiz-adv-x="1601" d="M182 1325l8 41h558l-9 -41h-16q-104 0 -152 -55q-33 -35 -53 -142l-115 -563q-27 -135 -26 -211q0 -150 113.5 -243t297.5 -93q276 0 422 181q82 100 123 319l105 574q8 43 8 79q0 154 -199 154l10 41h451l-8 -41q-164 -20 -205 -246l-106 -577q-45 -254 -177 -381 q-162 -156 -456 -156q-305 0 -451 160q-100 113 -100 258q0 63 26 188l113 557q14 78 14 95q0 47 -36.5 74.5t-102.5 27.5h-37zM930 1485l188 321h174l-319 -321h-43z" />
<glyph unicode="&#xdb;" horiz-adv-x="1601" d="M182 1325l8 41h558l-9 -41h-16q-104 0 -152 -55q-33 -35 -53 -142l-115 -563q-27 -135 -26 -211q0 -150 113.5 -243t297.5 -93q276 0 422 181q82 100 123 319l105 574q8 43 8 79q0 154 -199 154l10 41h451l-8 -41q-164 -20 -205 -246l-106 -577q-45 -254 -177 -381 q-162 -156 -456 -156q-305 0 -451 160q-100 113 -100 258q0 63 26 188l113 557q14 78 14 95q0 47 -36.5 74.5t-102.5 27.5h-37zM694 1497l318 305h139l184 -305h-41l-227 205l-326 -205h-47z" />
<glyph unicode="&#xdc;" horiz-adv-x="1601" d="M182 1325l8 41h558l-9 -41h-16q-104 0 -152 -55q-33 -35 -53 -142l-115 -563q-27 -135 -26 -211q0 -150 113.5 -243t297.5 -93q276 0 422 181q82 100 123 319l105 574q8 43 8 79q0 154 -199 154l10 41h451l-8 -41q-164 -20 -205 -246l-106 -577q-45 -254 -177 -381 q-162 -156 -456 -156q-305 0 -451 160q-100 113 -100 258q0 63 26 188l113 557q14 78 14 95q0 47 -36.5 74.5t-102.5 27.5h-37zM694 1585q0 37 27 63.5t65 26.5q37 0 64 -26.5t27 -63.5q0 -39 -27 -65.5t-64 -26.5q-39 0 -65.5 26.5t-26.5 65.5zM1180 1585q0 37 26.5 63.5 t65.5 26.5q37 0 63.5 -26.5t26.5 -65.5q0 -37 -26.5 -63.5t-63.5 -26.5q-39 0 -65.5 26.5t-26.5 65.5z" />
<glyph unicode="&#xdd;" horiz-adv-x="1372" d="M160 1327l8 39h457l-9 -39q-121 -10 -120 -76q0 -37 26 -90l248 -536l426 489q78 90 78 133q0 74 -131 80l8 39h375l-8 -37q-55 -20 -92 -50t-99 -99l-539 -621l-65 -321q-12 -63 -12 -82q0 -115 153 -115h56l-9 -41h-624l8 41h37q113 0 162 55q31 33 53 142l65 321 l-276 606q-43 92 -78 126t-98 36zM815 1485l189 321h174l-320 -321h-43z" />
<glyph unicode="&#xde;" horiz-adv-x="1239" d="M12 0l8 41q92 4 135.5 52t67.5 171l176 864q12 55 13 95q0 47 -37 74.5t-103 27.5h-26l8 41h522l-8 -41q-84 -4 -129 -43t-61 -129l-11 -55h117q223 0 326 -56q197 -102 196 -321q0 -154 -104 -275q-154 -180 -467 -180q-76 0 -117 10l6 39q45 -6 72 -6q229 0 346 172 q80 121 80 271q0 178 -121 252q-68 39 -205 38h-139l-166 -804q-10 -53 -10 -82q0 -115 154 -115h30l-8 -41h-545z" />
<glyph unicode="&#xdf;" horiz-adv-x="933" d="M-434 -395q0 25 18.5 41t44.5 16q41 0 103 -47q70 -55 116 -55q41 0 84 34.5t68 90.5q51 106 86 311l113 645q43 250 75.5 363.5t87.5 209.5q70 121 173.5 192t209.5 71q104 0 176 -76t72 -187q0 -160 -149 -270q-72 -51 -201 -84q236 -90 236 -340q0 -201 -134.5 -374 t-289.5 -173q-51 0 -84 23.5t-33 60.5q0 25 17.5 42.5t41.5 17.5q33 0 90 -60q25 -25 50 -24q41 0 83 43t64 108q47 141 47 291q0 193 -100 293q-33 33 -99 70l7 28q115 23 178 74q63 49 101 130t38 169q0 84 -43 138.5t-111 54.5q-63 0 -127.5 -48.5t-97.5 -121.5 q-61 -139 -121 -467l-84 -478q-43 -246 -96 -397t-135 -260q-131 -170 -285 -170q-78 0 -134 34t-56 81z" />
<glyph unicode="&#xe0;" horiz-adv-x="878" d="M29 199q0 143 89 293.5t240 265.5q84 61 188.5 100t190.5 39q14 0 49 -4l-131 -643q-16 -80 -16 -117q0 -33 20 -33q29 0 125 115v-53q-166 -188 -229 -189q-27 0 -43 28t-16 73q0 70 30 207q-295 -307 -372 -308q-49 0 -87 69t-38 157zM164 246q0 -66 20.5 -114 t48.5 -48q51 0 308 262l88 438q-160 -12 -252 -75q-94 -66 -153.5 -195t-59.5 -268zM264 1460h156l229 -475h-41z" />
<glyph unicode="&#xe1;" horiz-adv-x="878" d="M29 199q0 143 89 293.5t240 265.5q84 61 188.5 100t190.5 39q14 0 49 -4l-131 -643q-16 -80 -16 -117q0 -33 20 -33q29 0 125 115v-53q-166 -188 -229 -189q-27 0 -43 28t-16 73q0 70 30 207q-295 -307 -372 -308q-49 0 -87 69t-38 157zM164 246q0 -66 20.5 -114 t48.5 -48q51 0 308 262l88 438q-160 -12 -252 -75q-94 -66 -153.5 -195t-59.5 -268zM444 985l234 475h149l-338 -475h-45z" />
<glyph unicode="&#xe2;" horiz-adv-x="878" d="M29 199q0 143 89 293.5t240 265.5q84 61 188.5 100t190.5 39q14 0 49 -4l-131 -643q-16 -80 -16 -117q0 -33 20 -33q29 0 125 115v-53q-166 -188 -229 -189q-27 0 -43 28t-16 73q0 70 30 207q-295 -307 -372 -308q-49 0 -87 69t-38 157zM164 246q0 -66 20.5 -114 t48.5 -48q51 0 308 262l88 438q-160 -12 -252 -75q-94 -66 -153.5 -195t-59.5 -268zM297 973l362 479h119l2 -479h-51l-70 309l-313 -309h-49z" />
<glyph unicode="&#xe3;" horiz-adv-x="878" d="M29 199q0 143 89 293.5t240 265.5q84 61 188.5 100t190.5 39q14 0 49 -4l-131 -643q-16 -80 -16 -117q0 -33 20 -33q29 0 125 115v-53q-166 -188 -229 -189q-27 0 -43 28t-16 73q0 70 30 207q-295 -307 -372 -308q-49 0 -87 69t-38 157zM164 246q0 -66 20.5 -114 t48.5 -48q51 0 308 262l88 438q-160 -12 -252 -75q-94 -66 -153.5 -195t-59.5 -268zM274 1110q6 98 54.5 154.5t128.5 56.5q66 0 192 -80q80 -51 131 -51q49 0 78 35t29 94h28q-2 -98 -48 -154.5t-126 -56.5q-76 0 -200 76q-86 53 -138 53q-92 0 -100 -127h-29z" />
<glyph unicode="&#xe4;" horiz-adv-x="878" d="M29 199q0 143 89 293.5t240 265.5q84 61 188.5 100t190.5 39q14 0 49 -4l-131 -643q-16 -80 -16 -117q0 -33 20 -33q29 0 125 115v-53q-166 -188 -229 -189q-27 0 -43 28t-16 73q0 70 30 207q-295 -307 -372 -308q-49 0 -87 69t-38 157zM164 246q0 -66 20.5 -114 t48.5 -48q51 0 308 262l88 438q-160 -12 -252 -75q-94 -66 -153.5 -195t-59.5 -268zM326 1192q0 33 24.5 56.5t57 23.5t56 -24.5t23.5 -57.5t-23.5 -56.5t-55.5 -23.5q-35 0 -58.5 24.5t-23.5 57.5zM676 1192q0 33 24.5 56.5t57.5 23.5t56.5 -24.5t23.5 -57.5t-23.5 -56.5 t-56.5 -23.5t-57.5 24.5t-24.5 57.5z" />
<glyph unicode="&#xe5;" horiz-adv-x="878" d="M29 199q0 143 89 293.5t240 265.5q84 61 188.5 100t190.5 39q14 0 49 -4l-131 -643q-16 -80 -16 -117q0 -33 20 -33q29 0 125 115v-53q-166 -188 -229 -189q-27 0 -43 28t-16 73q0 70 30 207q-295 -307 -372 -308q-49 0 -87 69t-38 157zM164 246q0 -66 20.5 -114 t48.5 -48q51 0 308 262l88 438q-160 -12 -252 -75q-94 -66 -153.5 -195t-59.5 -268zM410 1221q0 78 58 136t140 58t139.5 -57.5t57.5 -139t-57.5 -140t-139.5 -58.5q-84 0 -141 58.5t-57 142.5zM459 1221q0 -63 43 -107.5t106 -44.5q61 0 104.5 44t43.5 104q0 63 -43 106 t-107 43q-59 0 -103 -43t-44 -102z" />
<glyph unicode="&#xe6;" horiz-adv-x="1220" d="M23 217q0 170 107.5 327.5t283.5 254t366 96.5h19l-27 -133q137 135 272 135q80 0 130.5 -42t50.5 -110q0 -70 -57.5 -133t-157.5 -106q-162 -72 -301 -105q-18 -82 -19 -143q0 -90 45 -147.5t117 -57.5q82 0 248 105l18 -27q-229 -158 -368 -158q-84 0 -143.5 76 t-59.5 182q0 20 2 37q-311 -293 -383 -293q-55 0 -99 75t-44 167zM160 272q0 -84 22.5 -136t57.5 -52q74 0 317 244l96 471q-125 -14 -205.5 -50t-146.5 -106q-141 -148 -141 -371zM715 442q6 2 10 2q106 25 215 82q166 84 166 219q0 47 -28.5 77t-73.5 30 q-96 0 -172 -106.5t-117 -303.5z" />
<glyph unicode="&#xe7;" horiz-adv-x="608" d="M25 -483l10 34q117 23 167 61t50 103q0 78 -92 121l63 139q-88 -2 -140 60.5t-52 165.5q0 106 43 235t114 238q147 223 328 223q51 0 82 -21.5t31 -58.5q0 -29 -15.5 -48t-42.5 -19q-33 0 -102 38q-37 18 -61 19q-78 0 -144 -158q-96 -240 -96 -424q0 -78 35 -122t94 -44 q109 0 219 138l29 -23q-63 -74 -143 -129t-140 -65l-18 -52q119 -43 118 -161q0 -100 -93.5 -170t-243.5 -80z" />
<glyph unicode="&#xe8;" horiz-adv-x="720" d="M39 272q0 242 162 445q143 180 325 180q82 0 128 -38t46 -105q0 -129 -200 -238q-90 -49 -303 -117q-14 -76 -15 -133q0 -98 44 -154.5t122 -56.5q98 0 252 115l18 -29q-94 -76 -193 -122t-169 -46q-92 0 -154.5 86t-62.5 213zM207 440q213 68 278 121q88 74 88 195 q0 96 -79 96q-86 0 -156 -86q-63 -80 -131 -326zM213 1460h156l229 -475h-41z" />
<glyph unicode="&#xe9;" horiz-adv-x="720" d="M39 272q0 242 162 445q143 180 325 180q82 0 128 -38t46 -105q0 -129 -200 -238q-90 -49 -303 -117q-14 -76 -15 -133q0 -98 44 -154.5t122 -56.5q98 0 252 115l18 -29q-94 -76 -193 -122t-169 -46q-92 0 -154.5 86t-62.5 213zM207 440q213 68 278 121q88 74 88 195 q0 96 -79 96q-86 0 -156 -86q-63 -80 -131 -326zM367 985l233 475h150l-338 -475h-45z" />
<glyph unicode="&#xea;" horiz-adv-x="720" d="M39 272q0 242 162 445q143 180 325 180q82 0 128 -38t46 -105q0 -129 -200 -238q-90 -49 -303 -117q-14 -76 -15 -133q0 -98 44 -154.5t122 -56.5q98 0 252 115l18 -29q-94 -76 -193 -122t-169 -46q-92 0 -154.5 86t-62.5 213zM207 440q213 68 278 121q88 74 88 195 q0 96 -79 96q-86 0 -156 -86q-63 -80 -131 -326zM231 973l363 479h119l2 -479h-51l-70 309l-313 -309h-50z" />
<glyph unicode="&#xeb;" horiz-adv-x="720" d="M39 272q0 242 162 445q143 180 325 180q82 0 128 -38t46 -105q0 -129 -200 -238q-90 -49 -303 -117q-14 -76 -15 -133q0 -98 44 -154.5t122 -56.5q98 0 252 115l18 -29q-94 -76 -193 -122t-169 -46q-92 0 -154.5 86t-62.5 213zM207 440q213 68 278 121q88 74 88 195 q0 96 -79 96q-86 0 -156 -86q-63 -80 -131 -326zM256 1192q0 33 24.5 56.5t57.5 23.5t56.5 -24.5t23.5 -57.5t-23.5 -56.5t-56.5 -23.5q-35 0 -58.5 24.5t-23.5 57.5zM606 1192q0 33 24.5 56.5t57.5 23.5t56.5 -24.5t23.5 -57.5t-23.5 -56.5t-56.5 -23.5t-57.5 24.5 t-24.5 57.5z" />
<glyph unicode="&#xec;" horiz-adv-x="532" d="M8 1460h156l229 -475h-41zM100 686q190 211 265 211q43 0 43 -55q0 -20 -9 -70l-123 -612q-6 -25 -6 -47q0 -25 19 -25q33 0 139 135l27 -24q-61 -84 -146.5 -155t-124.5 -71q-59 0 -59 78q0 37 10 84l111 549q12 66 12 68q0 14 -12 14q-10 0 -17.5 -5t-28.5 -27l-65 -64 l-12 -13z" />
<glyph unicode="&#xed;" horiz-adv-x="532" d="M100 686q190 211 265 211q43 0 43 -55q0 -20 -9 -70l-123 -612q-6 -25 -6 -47q0 -25 19 -25q33 0 139 135l27 -24q-61 -84 -146.5 -155t-124.5 -71q-59 0 -59 78q0 37 10 84l111 549q12 66 12 68q0 14 -12 14q-10 0 -17.5 -5t-28.5 -27l-65 -64l-12 -13zM270 985l234 475 h149l-338 -475h-45z" />
<glyph unicode="&#xee;" horiz-adv-x="532" d="M78 973l362 479h119l2 -479h-51l-70 309l-313 -309h-49zM102 686q193 211 265 211q43 0 43 -55q0 -20 -9 -70l-125 -612q-6 -43 -6 -47q0 -25 19 -25q35 0 141 135l27 -24q-61 -84 -147.5 -155t-125.5 -71q-59 0 -59 78q0 33 10 84l113 549q12 66 12 68q0 14 -12 14 q-14 0 -30.5 -14.5t-80.5 -81.5l-14 -13z" />
<glyph unicode="&#xef;" horiz-adv-x="532" d="M100 686q190 211 265 211q43 0 43 -55q0 -20 -9 -70l-123 -612q-6 -25 -6 -47q0 -25 19 -25q33 0 139 135l27 -24q-61 -84 -146.5 -155t-124.5 -71q-59 0 -59 78q0 37 10 84l111 549q12 66 12 68q0 14 -12 14q-10 0 -17.5 -5t-28.5 -27l-65 -64l-12 -13zM168 1192 q0 33 24.5 56.5t57.5 23.5t56.5 -24.5t23.5 -57.5t-23.5 -56.5t-56.5 -23.5t-57.5 24.5t-24.5 57.5zM449 1192q0 33 24.5 56.5t57 23.5t56 -24.5t23.5 -57.5t-23.5 -56.5t-56.5 -23.5q-35 0 -58 24.5t-23 57.5z" />
<glyph unicode="&#xf0;" horiz-adv-x="817" d="M51 313q0 272 246 461q164 125 276 125q31 0 76 -29v33q0 121 -41 244l-217 -68l-10 35l213 66q-43 102 -145 192l22 29q127 -86 199 -199l204 64l9 -33l-195 -62q102 -188 103 -419q0 -88 -19.5 -206t-42.5 -179q-39 -96 -80 -142q-111 -115 -200 -172 q-123 -78 -197 -78q-82 0 -141.5 100.5t-59.5 237.5zM195 328q0 -119 43 -197t106 -78q43 0 91 30t81 79q47 68 78 176t31 209q0 113 -49.5 189.5t-120.5 76.5q-100 0 -180 -149.5t-80 -335.5z" />
<glyph unicode="&#xf1;" horiz-adv-x="1024" d="M80 627q61 96 151.5 183t128.5 87q14 0 25.5 -12.5t11.5 -28.5q0 -31 -6 -61l-76 -369q373 471 506 471q39 0 62.5 -34t23.5 -91q0 -59 -18 -129l-129 -489q-14 -53 -14.5 -72t14.5 -19q33 0 190 185l25 -21q-197 -254 -305 -254q-27 0 -44.5 25t-17.5 63q0 31 10 72 l140 547q10 39 10 59q0 25 -10 41.5t-27 16.5q-33 0 -84 -47q-186 -184 -346 -402l-70 -334q-6 -29 -13 -34t-46 -5q-53 0 -65.5 4.5t-12.5 18.5q0 10 2 14l140 688q4 12 4 21q0 14 -11 14q-29 -4 -123 -131zM346 1110q6 98 54.5 154.5t127.5 56.5q66 0 193 -80 q80 -51 131 -51q49 0 77.5 35t28.5 94h29q-2 -98 -48 -154.5t-126 -56.5q-76 0 -201 76q-86 53 -137 53q-92 0 -100 -127h-29z" />
<glyph unicode="&#xf2;" horiz-adv-x="817" d="M51 317q0 125 63.5 243t178.5 208q164 129 272 129q70 0 131 -82q70 -96 70 -240q0 -301 -262 -489q-158 -113 -256 -113q-76 0 -136.5 105.5t-60.5 238.5zM195 328q0 -119 43 -197t106 -78q43 0 91 30t81 79q47 68 78 176t31 209q0 113 -49.5 189.5t-120.5 76.5 q-100 0 -180 -149.5t-80 -335.5zM287 1460h155l230 -475h-41z" />
<glyph unicode="&#xf3;" horiz-adv-x="817" d="M51 317q0 125 63.5 243t178.5 208q164 129 272 129q70 0 131 -82q70 -96 70 -240q0 -301 -262 -489q-158 -113 -256 -113q-76 0 -136.5 105.5t-60.5 238.5zM195 328q0 -119 43 -197t106 -78q43 0 91 30t81 79q47 68 78 176t31 209q0 113 -49.5 189.5t-120.5 76.5 q-100 0 -180 -149.5t-80 -335.5zM414 985l233 475h150l-338 -475h-45z" />
<glyph unicode="&#xf4;" horiz-adv-x="817" d="M51 317q0 125 63.5 243t178.5 208q164 129 272 129q70 0 131 -82q70 -96 70 -240q0 -301 -262 -489q-158 -113 -256 -113q-76 0 -136.5 105.5t-60.5 238.5zM195 328q0 -119 43 -197t106 -78q43 0 91 30t81 79q47 68 78 176t31 209q0 113 -49.5 189.5t-120.5 76.5 q-100 0 -180 -149.5t-80 -335.5zM291 973l362 479h119l2 -479h-51l-70 309l-313 -309h-49z" />
<glyph unicode="&#xf5;" horiz-adv-x="817" d="M51 317q0 125 63.5 243t178.5 208q164 129 272 129q70 0 131 -82q70 -96 70 -240q0 -301 -262 -489q-158 -113 -256 -113q-76 0 -136.5 105.5t-60.5 238.5zM195 328q0 -119 43 -197t106 -78q43 0 91 30t81 79q47 68 78 176t31 209q0 113 -49.5 189.5t-120.5 76.5 q-100 0 -180 -149.5t-80 -335.5zM258 1110q6 98 54 154.5t128 56.5q66 0 193 -80q80 -51 131 -51q49 0 77.5 35t28.5 94h29q-2 -98 -48 -154.5t-126 -56.5q-76 0 -201 76q-86 53 -137 53q-92 0 -100 -127h-29z" />
<glyph unicode="&#xf6;" horiz-adv-x="817" d="M51 317q0 125 63.5 243t178.5 208q164 129 272 129q70 0 131 -82q70 -96 70 -240q0 -301 -262 -489q-158 -113 -256 -113q-76 0 -136.5 105.5t-60.5 238.5zM195 328q0 -119 43 -197t106 -78q43 0 91 30t81 79q47 68 78 176t31 209q0 113 -49.5 189.5t-120.5 76.5 q-100 0 -180 -149.5t-80 -335.5zM332 1192q0 33 24.5 56.5t57 23.5t56.5 -24.5t24 -57.5t-24 -56.5t-56.5 -23.5t-57 24.5t-24.5 57.5zM682 1192q0 33 24.5 56.5t57.5 23.5t56.5 -24.5t23.5 -57.5t-23.5 -56.5t-56.5 -23.5q-35 0 -58.5 24.5t-23.5 57.5z" />
<glyph unicode="&#xf7;" d="M141 666v67h901v-67h-901zM512 348q0 33 22.5 56.5t57.5 23.5q33 0 55.5 -23.5t22.5 -54.5q0 -35 -23.5 -57.5t-56.5 -22.5q-31 0 -54.5 23.5t-23.5 54.5zM514 1048.5q0 32.5 23.5 55t56.5 22.5t55.5 -23.5t22.5 -53.5q0 -33 -22.5 -56.5t-55.5 -23.5t-56.5 23.5 t-23.5 56z" />
<glyph unicode="&#xf8;" horiz-adv-x="817" d="M6 0l92 104q-45 96 -45 213q0 125 63.5 243t178.5 208q164 129 272 129q72 0 138 -94l86 98l22 -29l-90 -102q45 -82 45 -197q0 -297 -262 -487q-158 -113 -258 -113q-70 0 -131 99l-88 -101zM197 322q0 -45 8 -95l397 457q-47 129 -145 129q-100 0 -180 -150.5 t-80 -340.5zM215 184q47 -131 131 -131q43 0 91 30t81 79q47 68 78 176t31 209q0 39 -13 96z" />
<glyph unicode="&#xf9;" horiz-adv-x="1019" d="M86 647q70 104 146.5 175t119.5 71q41 0 41 -57q0 -41 -10 -88l-107 -519q-10 -51 -10 -84q0 -39 29 -39q39 0 185.5 160t211.5 275q57 98 88 295q6 41 18.5 51t57.5 10q41 0 53.5 -4t12.5 -21q0 -14 -2 -22l-138 -678q-6 -29 -6 -33q0 -18 15 -18q27 0 139 133l26 -25 q-86 -106 -168.5 -181t-117.5 -75q-39 0 -39 62q0 111 84 469q-150 -203 -287 -342q-188 -188 -246 -189q-59 0 -59 121q0 43 18 135l97 476q4 20 4 22q0 14 -13 14q-27 0 -116 -110zM336 1460h156l229 -475h-41z" />
<glyph unicode="&#xfa;" horiz-adv-x="1019" d="M86 647q70 104 146.5 175t119.5 71q41 0 41 -57q0 -41 -10 -88l-107 -519q-10 -51 -10 -84q0 -39 29 -39q39 0 185.5 160t211.5 275q57 98 88 295q6 41 18.5 51t57.5 10q41 0 53.5 -4t12.5 -21q0 -14 -2 -22l-138 -678q-6 -29 -6 -33q0 -18 15 -18q27 0 139 133l26 -25 q-86 -106 -168.5 -181t-117.5 -75q-39 0 -39 62q0 111 84 469q-150 -203 -287 -342q-188 -188 -246 -189q-59 0 -59 121q0 43 18 135l97 476q4 20 4 22q0 14 -13 14q-27 0 -116 -110zM530 985l234 475h149l-338 -475h-45z" />
<glyph unicode="&#xfb;" horiz-adv-x="1019" d="M86 647q70 104 146.5 175t119.5 71q41 0 41 -57q0 -41 -10 -88l-107 -519q-10 -51 -10 -84q0 -39 29 -39q39 0 185.5 160t211.5 275q57 98 88 295q6 41 18.5 51t57.5 10q41 0 53.5 -4t12.5 -21q0 -14 -2 -22l-138 -678q-6 -29 -6 -33q0 -18 15 -18q27 0 139 133l26 -25 q-86 -106 -168.5 -181t-117.5 -75q-39 0 -39 62q0 111 84 469q-150 -203 -287 -342q-188 -188 -246 -189q-59 0 -59 121q0 43 18 135l97 476q4 20 4 22q0 14 -13 14q-27 0 -116 -110zM342 973l363 479h118l2 -479h-51l-69 309l-314 -309h-49z" />
<glyph unicode="&#xfc;" horiz-adv-x="1019" d="M86 647q70 104 146.5 175t119.5 71q41 0 41 -57q0 -41 -10 -88l-107 -519q-10 -51 -10 -84q0 -39 29 -39q39 0 185.5 160t211.5 275q57 98 88 295q6 41 18.5 51t57.5 10q41 0 53.5 -4t12.5 -21q0 -14 -2 -22l-138 -678q-6 -29 -6 -33q0 -18 15 -18q27 0 139 133l26 -25 q-86 -106 -168.5 -181t-117.5 -75q-39 0 -39 62q0 111 84 469q-150 -203 -287 -342q-188 -188 -246 -189q-59 0 -59 121q0 43 18 135l97 476q4 20 4 22q0 14 -13 14q-27 0 -116 -110zM393 1192q0 33 24.5 56.5t57.5 23.5t56.5 -24.5t23.5 -57.5t-23.5 -56.5t-56.5 -23.5 t-57.5 24.5t-24.5 57.5zM743 1192q0 33 25 56.5t57.5 23.5t56 -24.5t23.5 -57.5t-23.5 -56.5t-56.5 -23.5q-35 0 -58.5 24.5t-23.5 57.5z" />
<glyph unicode="&#xfd;" horiz-adv-x="960" d="M8 -500l15 35q92 2 120.5 16.5t57.5 69.5q98 197 137 310.5t39 209.5q0 231 -86 559q-25 92 -49 93q-20 0 -49 -30t-99 -120l-28 19q170 233 249 233q57 0 109 -211q66 -268 72 -610q109 199 155 301q129 274 129 358q0 16 -10 31q-16 23 -16 49q0 35 25.5 59.5 t60.5 24.5q39 0 62.5 -29.5t23.5 -79.5q0 -121 -230 -462q-106 -158 -138 -220.5t-105 -238.5l-86 -209q-29 -70 -29 -80q0 -39 106 -41q18 0 33 -2l-16 -35h-453zM541 985l233 475h150l-338 -475h-45z" />
<glyph unicode="&#xfe;" horiz-adv-x="925" d="M-190 -512l8 41q117 4 157.5 45t67.5 172l319 1563l5 28q0 16 -15 17q-23 0 -133 -62l-18 33l211 119q63 35 86 35q27 0 26 -29q0 -10 -6 -35l-176 -870q270 350 385 350q55 0 101 -99.5t46 -217.5q0 -231 -162.5 -418t-363.5 -187q-63 0 -119 21l-49 -248 q-20 -104 -20 -133q0 -51 51 -72q27 -10 123 -12l-10 -41h-514zM248 82q63 -55 139 -55q135 0 242.5 165.5t107.5 376.5q0 92 -28.5 155.5t-69.5 63.5q-37 0 -127 -93t-186 -232z" />
<glyph unicode="&#xff;" horiz-adv-x="960" d="M8 -500l15 35q92 2 120.5 16.5t57.5 69.5q98 197 137 310.5t39 209.5q0 231 -86 559q-25 92 -49 93q-20 0 -49 -30t-99 -120l-28 19q170 233 249 233q57 0 109 -211q66 -268 72 -610q109 199 155 301q129 274 129 358q0 16 -10 31q-16 23 -16 49q0 35 25.5 59.5 t60.5 24.5q39 0 62.5 -29.5t23.5 -79.5q0 -121 -230 -462q-106 -158 -138 -220.5t-105 -238.5l-86 -209q-29 -70 -29 -80q0 -39 106 -41q18 0 33 -2l-16 -35h-453zM377 1192q0 33 24.5 56.5t57.5 23.5t56.5 -24.5t23.5 -57.5t-23.5 -56.5t-56.5 -23.5t-57.5 24.5t-24.5 57.5 zM727 1192q0 33 24.5 56.5t57.5 23.5t56.5 -24.5t23.5 -57.5t-23.5 -56.5t-56.5 -23.5q-35 0 -58.5 24.5t-23.5 57.5z" />
<glyph unicode="&#x152;" horiz-adv-x="2265" d="M162 602q0 223 119.5 406.5t328.5 281.5q184 86 482 86q59 0 94 -2q154 -8 186 -8h860l-61 -303h-33v33q0 117 -54 166t-183 49h-383l-119 -592h413q168 0 216 151h36l-79 -391h-37q2 12 2 27q0 92 -47.5 125t-176.5 33h-340l-94 -463q-4 -29 -4 -41q0 -61 44 -84 t161 -23h113q319 0 483 246h37l-119 -299h-913q-14 0 -133 -4t-156 -4q-287 0 -455 155q-188 170 -188 455zM352 565q0 -199 94 -340q121 -180 379 -180q158 0 236 72q59 57 96 237l148 725q8 35 8 84q0 160 -266 160q-295 0 -496 -231q-199 -232 -199 -527z" />
<glyph unicode="&#x153;" horiz-adv-x="1259" d="M45 289q0 281 223 475q154 133 275 133q133 0 180 -215q129 215 340 215q84 0 134 -43t50 -113q0 -61 -50 -119.5t-140 -101.5q-184 -90 -340 -121q-12 -90 -12 -131q0 -106 44 -162.5t128 -56.5q109 0 260 115l20 -27q-213 -162 -371 -162q-147 0 -206 203 q-80 -90 -150 -133q-109 -72 -192 -72q-78 0 -135.5 94.5t-57.5 221.5zM182 340q0 -129 44 -206t120 -77q88 0 146 101q109 184 108 409q0 109 -39 180.5t-102 75.5q-37 2 -88.5 -30.5t-85.5 -81.5q-47 -68 -75 -169.5t-28 -201.5zM723 436q195 45 301 124t106 175 q0 51 -31.5 84t-80.5 33q-121 0 -201 -129q-55 -94 -94 -287z" />
<glyph unicode="&#x178;" horiz-adv-x="1372" d="M160 1327l8 39h457l-9 -39q-121 -10 -120 -76q0 -37 26 -90l248 -536l426 489q78 90 78 133q0 74 -131 80l8 39h375l-8 -37q-55 -20 -92 -50t-99 -99l-539 -621l-65 -321q-12 -63 -12 -82q0 -115 153 -115h56l-9 -41h-624l8 41h37q113 0 162 55q31 33 53 142l65 321 l-276 606q-43 92 -78 126t-98 36zM573 1585q0 37 27 63.5t66 26.5q37 0 63.5 -26.5t26.5 -63.5q0 -39 -27 -65.5t-63 -26.5q-39 0 -66 26.5t-27 65.5zM1085 1585q0 37 27 63.5t66 26.5q37 0 63.5 -26.5t26.5 -65.5q0 -37 -27 -63.5t-63 -26.5q-39 0 -66 26.5t-27 65.5z" />
<glyph unicode="&#x2c6;" horiz-adv-x="1024" d="M330 973l362 479h119l2 -479h-51l-70 309l-313 -309h-49z" />
<glyph unicode="&#x2dc;" horiz-adv-x="1024" d="M348 1110q6 98 54.5 154.5t127.5 56.5q66 0 193 -80q80 -51 131 -51q49 0 78 35t29 94h28q-2 -98 -48 -154.5t-126 -56.5q-76 0 -201 76q-86 53 -137 53q-92 0 -100 -127h-29z" />
<glyph unicode="&#x2000;" horiz-adv-x="905" />
<glyph unicode="&#x2001;" horiz-adv-x="1810" />
<glyph unicode="&#x2002;" horiz-adv-x="905" />
<glyph unicode="&#x2003;" horiz-adv-x="1810" />
<glyph unicode="&#x2004;" horiz-adv-x="602" />
<glyph unicode="&#x2005;" horiz-adv-x="452" />
<glyph unicode="&#x2006;" horiz-adv-x="301" />
<glyph unicode="&#x2007;" horiz-adv-x="301" />
<glyph unicode="&#x2008;" horiz-adv-x="225" />
<glyph unicode="&#x2009;" horiz-adv-x="360" />
<glyph unicode="&#x200a;" horiz-adv-x="100" />
<glyph unicode="&#x2010;" horiz-adv-x="733" d="M102 367l29 137h496l-29 -137h-496z" />
<glyph unicode="&#x2011;" horiz-adv-x="733" d="M102 367l29 137h496l-29 -137h-496z" />
<glyph unicode="&#x2012;" horiz-adv-x="733" d="M102 367l29 137h496l-29 -137h-496z" />
<glyph unicode="&#x2013;" horiz-adv-x="1097" d="M8 500v98h1125v-98h-1125z" />
<glyph unicode="&#x2014;" horiz-adv-x="2197" d="M8 500v98h2222v-98h-2222z" />
<glyph unicode="&#x2018;" horiz-adv-x="641" d="M340 983q0 121 86 231.5t236 186.5l18 -37q-111 -72 -156 -128t-45 -120q0 -41 31 -92q35 -53 35 -98q0 -43 -25.5 -72t-64.5 -29q-49 0 -82 44t-33 114z" />
<glyph unicode="&#x2019;" horiz-adv-x="571" d="M217 862q109 72 155 128.5t46 119.5q0 45 -31 92q-33 53 -33 98q0 41 26 71t62 30q51 0 83 -44t32 -114q0 -121 -85 -232.5t-234 -185.5z" />
<glyph unicode="&#x201a;" horiz-adv-x="641" d="M35 -338q109 70 155 126t46 122q0 41 -31 92q-33 51 -33 98q0 41 25.5 71t62.5 30q51 0 83 -44t32 -114q0 -121 -85 -232.5t-235 -185.5z" />
<glyph unicode="&#x201c;" horiz-adv-x="1097" d="M319 983q0 121 86.5 231.5t235.5 186.5l18 -37q-111 -72 -155.5 -128t-44.5 -120q0 -41 30 -92q35 -53 35 -98q0 -43 -25.5 -72t-64.5 -29q-49 0 -82 44t-33 114zM772 983q0 121 86 231.5t236 186.5l18 -37q-109 -72 -155 -128t-46 -120q0 -43 31 -92q35 -53 35 -98 q0 -41 -25.5 -71t-64.5 -30q-49 0 -82 44t-33 114z" />
<glyph unicode="&#x201d;" horiz-adv-x="1097" d="M279 862q109 72 154.5 128.5t45.5 119.5q0 45 -30 92q-33 53 -33 98q0 41 25.5 71t62.5 30q51 0 82.5 -44t31.5 -114q0 -121 -84.5 -232.5t-234.5 -185.5zM731 862q111 72 156 128.5t45 119.5q0 43 -31 92q-33 53 -33 98q0 41 26 71t62 30q51 0 83 -44t32 -114 q0 -121 -85 -231.5t-234 -186.5z" />
<glyph unicode="&#x201e;" horiz-adv-x="1097" d="M12 -338q109 70 155 126t46 122q0 41 -31 92q-33 51 -32 98q0 41 25.5 71t62.5 30q51 0 82.5 -44t31.5 -114q0 -121 -85 -232.5t-234 -185.5zM465 -338q109 72 155 128t46 120q0 47 -31 92q-33 53 -33 98q0 41 25.5 71t62.5 30q51 0 83 -44t32 -114q0 -121 -86 -232.5 t-236 -185.5z" />
<glyph unicode="&#x2022;" horiz-adv-x="1366" d="M451 692q0 119 83.5 202t204.5 83q113 0 196 -84t83 -199q0 -119 -83 -201.5t-200 -82.5t-200.5 82.5t-83.5 199.5z" />
<glyph unicode="&#x2026;" horiz-adv-x="2197" d="M199 72q0 53 29.5 91t74.5 38q37 0 60.5 -28t23.5 -73q0 -53 -29.5 -90t-74.5 -37q-39 0 -61.5 27t-22.5 72zM930 72q0 53 30.5 91t73.5 38q39 0 62.5 -28t23.5 -73q0 -53 -29.5 -90t-74.5 -37q-39 0 -62.5 27t-23.5 72zM1663 72q0 53 30.5 91t73.5 38q39 0 62.5 -28 t23.5 -73q0 -53 -29.5 -90t-74.5 -37q-39 0 -62.5 27t-23.5 72z" />
<glyph unicode="&#x202f;" horiz-adv-x="360" />
<glyph unicode="&#x2039;" horiz-adv-x="733" d="M203 479l422 408h45l-316 -408l133 -403h-51z" />
<glyph unicode="&#x203a;" horiz-adv-x="733" d="M78 76l315 407l-131 404h49l234 -404l-422 -407h-45z" />
<glyph unicode="&#x205f;" horiz-adv-x="452" />
<glyph unicode="&#x20ac;" horiz-adv-x="1705" d="M115 600l32 53h101q0 2 2 21.5t4 32.5h-119l33 53h98q78 291 334 466t602 175q279 0 481 -101l-79 -327h-41q6 37 6 63q0 150 -99.5 231t-281.5 81q-152 0 -302.5 -70t-258.5 -191q-121 -135 -166 -327h844l-33 -53h-823l-7 -54h797l-33 -53h-768q-2 -14 -2 -43 q0 -272 166 -426q121 -115 320 -115q168 0 316 86t255 246h43l-111 -344h-18q-37 12 -76 12q-35 0 -129 -18q-176 -33 -289 -33q-219 0 -374 88q-137 78 -216 221.5t-79 311.5v14h-129z" />
<glyph unicode="&#x2122;" horiz-adv-x="1978" d="M207 1192l43 207h26q29 -33 84 -33h498q63 0 86 5t45 28h31l-43 -207h-31q2 82 -16.5 108.5t-73.5 26.5h-180l-123 -602q-6 -31 -6 -43q0 -63 86 -64h31l-7 -30h-356l6 30h19q57 0 80.5 20.5t37.5 86.5l123 602h-145q-76 0 -115 -28.5t-71 -106.5h-29zM913 588l7 30 q66 10 91 44t58 147l117 410q8 49 8 61q0 31 -21.5 43t-76.5 12h-17l6 31h242l119 -651l434 651h215l-6 -31h-16q-55 0 -77 -20.5t-36 -85.5l-102 -504q-8 -41 -9 -45q0 -61 88 -62h23l-6 -30h-340l6 30h8q59 0 83 22t36 85l108 537l-446 -674h-49l-121 680l-145 -518 q-8 -33 -9 -50q0 -78 97 -82l-6 -30h-263z" />
<glyph unicode="&#xe000;" horiz-adv-x="895" d="M0 895h895v-895h-895v895z" />
<glyph unicode="&#xfb01;" horiz-adv-x="1064" d="M-446 -414q0 29 18 48.5t47 19.5q39 0 115 -57q59 -45 102 -46q76 0 127 62q84 100 117 297l156 883h-158l8 38q135 23 164 39q47 242 153 394q154 217 363 217q86 0 149.5 -43t63.5 -103q0 -27 -18.5 -45t-47.5 -18q-33 0 -52 14t-58 66q-51 68 -119 67 q-61 0 -112.5 -35.5t-79.5 -97.5q-51 -106 -89 -313l-18 -103h324q145 0 215 23l-138 -770q-4 -33 -4 -39q0 -27 23 -27q47 0 164 142l26 -21q-160 -205 -274 -205q-74 0 -74 90q0 39 15 119l108 611h-397l-107 -594q-39 -217 -71 -301q-76 -199 -197 -304.5t-272 -105.5 q-82 0 -127 25.5t-45 72.5z" />
<glyph unicode="&#xfb02;" horiz-adv-x="1044" d="M-446 -414q0 29 18 47.5t51 18.5q37 0 111 -55q57 -45 102 -46q76 0 127 62q84 100 117 297l156 883h-158l6 38q131 23 164 37q53 258 153 396q156 217 361 217q86 0 149 -43l82 41h31l-238 -1356q-4 -33 -4 -39q0 -27 23 -27q45 0 162 140l28 -19q-164 -205 -274 -205 q-76 0 -76 88q0 31 14 121l109 611h-397l-105 -596q-35 -203 -71 -299q-76 -197 -198 -303.5t-271 -106.5q-82 0 -127 25.5t-45 72.5zM385 870h395l74 420q-20 16 -53 62q-53 68 -119 67q-61 0 -112.5 -35.5t-80.5 -97.5q-57 -123 -88 -313z" />
<glyph unicode="&#xfb03;" horiz-adv-x="1536" d="M-444 -410q0 27 19 45.5t48 18.5q20 0 36.5 -9.5t70.5 -47.5q59 -45 102 -46q74 0 134.5 96.5t88.5 262.5l156 883h-139l6 36q109 16 145 41q49 254 152 394q76 102 170 159.5t188 57.5q68 0 120 -33t52 -74q0 -27 -22.5 -46t-51.5 -19q-41 0 -94 55q-49 51 -98 51 q-51 0 -100.5 -36t-75.5 -93q-55 -121 -86 -313l-17 -103h400q49 248 153 394q160 217 355 217q86 0 150.5 -43t64.5 -99q0 -29 -19.5 -48t-48.5 -19q-43 0 -112 78q-63 70 -115 69q-55 0 -107.5 -36.5t-81.5 -96.5q-51 -111 -86 -313l-18 -103h297q143 0 242 31l-138 -778 q-6 -29 -6 -41q-4 -25 19 -25q23 2 59.5 44t73.5 108l28 -19q-125 -217 -237 -217q-78 0 -78 95q0 25 16 114l107 611h-395l-105 -594q-37 -207 -83 -327t-122 -214q-139 -170 -303 -170q-70 0 -120 33t-50 80q0 31 18.5 50t47.5 19q41 0 108 -55q61 -49 109 -49 q57 0 102 53q43 53 63.5 110.5t43.5 180.5l153 883h-399l-104 -594q-35 -205 -70 -301q-74 -199 -189.5 -304.5t-258.5 -105.5q-74 0 -121 28.5t-47 73.5z" />
<glyph unicode="&#xfb04;" horiz-adv-x="1517" d="M-444 -410q0 27 19 45.5t48 18.5q20 0 36.5 -9.5t70.5 -47.5q59 -45 102 -46q74 0 134.5 96.5t88.5 262.5l156 883h-139l6 36q109 14 145 41q53 260 152 394q76 102 170 159.5t188 57.5q66 0 119 -33t53 -74q0 -27 -22.5 -46t-51.5 -19q-41 0 -94 55q-49 51 -98 51 q-51 0 -100.5 -36t-75.5 -93q-55 -121 -86 -313l-17 -103h400q47 244 153 394q156 217 353 217q86 0 153 -45q61 29 86 43h29l-238 -1356q-4 -33 -4 -41q0 -25 19 -25q20 0 58 44t73 108l28 -21q-127 -215 -237 -215q-76 0 -76 90q0 29 14 119l107 611h-395l-105 -596 q-35 -205 -81 -324t-124 -215q-137 -170 -303 -170q-70 0 -120 33t-50 80q0 31 18.5 50t47.5 19q41 0 108 -55q61 -49 109 -49q57 0 102 53q43 53 63.5 110.5t43.5 180.5l153 883h-399l-104 -596q-35 -203 -70 -299q-74 -199 -189.5 -304.5t-258.5 -105.5q-74 0 -121 28.5 t-47 73.5zM895 870h397l74 418q-33 23 -66 62q-37 43 -58 56t-52 13q-57 0 -109.5 -36.5t-81.5 -96.5q-51 -115 -86 -313z" />
</font>
</defs>
</svg>
